<svg xmlns="http://www.w3.org/2000/svg" xmlns:xlink="http://www.w3.org/1999/xlink" width="1080" zoomAndPan="magnify" viewBox="0 0 810 809.999993" height="1080" preserveAspectRatio="xMidYMid meet" version="1.0"><defs><clipPath id="e29e47e638"><path d="M 100.035156 81 L 706 81 L 706 729 L 100.035156 729 Z M 100.035156 81 " clip-rule="nonzero"/></clipPath></defs><g clip-path="url(#e29e47e638)"><path fill="#009a57" d="M 299.882812 326.65625 L 342.789062 364.246094 C 342.789062 364.246094 366.078125 384.75 366.078125 384.75 C 382.53125 389.558594 400.503906 390.570312 417.589844 393.863281 C 419.996094 394.367188 689.835938 258.941406 692.113281 258.4375 C 706.417969 251.855469 709.960938 231.476562 698.949219 220.339844 C 696.164062 217.429688 693.128906 215.023438 689.835938 212.871094 C 689.332031 212.363281 688.824219 211.984375 688.191406 211.730469 C 673.507812 202.746094 655.15625 201.605469 639.210938 209.582031 C 639.210938 209.582031 553.144531 252.234375 539.347656 259.070312 L 425.4375 219.578125 C 424.171875 219.074219 422.78125 219.199219 421.515625 219.832031 L 384.558594 238.183594 C 381.011719 239.832031 380.886719 245.144531 384.175781 247.042969 L 465.308594 295.898438 C 456.953125 299.949219 429.234375 313.746094 395.820312 330.324219 L 332.160156 304.886719 C 330.765625 304.378906 329.375 304.378906 327.980469 305.011719 L 301.148438 318.300781 C 297.734375 319.820312 297.226562 324.503906 299.882812 326.65625 Z M 423.917969 229.957031 L 537.703125 269.445312 C 537.703125 269.445312 537.703125 269.445312 537.828125 269.445312 L 555.929688 275.648438 L 498.59375 304.125 L 478.34375 291.976562 L 397.339844 243.121094 Z M 495.554688 314.25 C 496.316406 314.757812 497.203125 314.882812 498.085938 314.882812 C 498.085938 314.882812 498.214844 314.882812 498.214844 314.882812 C 498.972656 314.882812 499.734375 314.757812 500.492188 314.378906 L 571.117188 279.320312 C 572.761719 278.558594 573.648438 277.039062 573.773438 275.523438 C 574.027344 273.242188 573.015625 270.839844 570.484375 270.078125 L 552.511719 263.878906 L 643.511719 218.820312 C 653.636719 213.757812 664.902344 213.25 674.902344 216.796875 C 665.03125 221.730469 650.601562 228.820312 650.601562 228.820312 C 645.792969 230.96875 647.691406 238.566406 652.878906 238.4375 C 653.636719 238.4375 654.398438 238.3125 655.15625 237.933594 C 655.15625 237.933594 678.066406 226.667969 685.914062 222.742188 C 687.8125 224.136719 689.710938 225.78125 691.480469 227.679688 C 694.519531 230.96875 695.910156 235.402344 695.027344 239.703125 C 694.265625 244.132812 691.480469 247.675781 687.433594 249.703125 L 416.707031 383.863281 C 401.644531 381.332031 386.582031 378.925781 371.648438 376.394531 L 355.066406 361.839844 L 475.433594 302.226562 Z M 330.261719 315.136719 L 383.417969 336.402344 C 376.835938 339.691406 372.660156 341.714844 367.976562 343.996094 L 346.714844 354.5 L 312.035156 323.996094 Z M 403.414062 351.210938 C 407.210938 349.4375 413.160156 344.878906 416.074219 350.578125 C 417.339844 353.109375 416.324219 356.144531 413.792969 357.285156 C 412.277344 357.917969 407.339844 360.953125 405.566406 360.703125 C 400.632812 360.953125 398.734375 353.359375 403.414062 351.210938 Z M 433.03125 336.527344 C 436.828125 334.753906 442.777344 330.199219 445.6875 335.894531 C 446.953125 338.425781 445.941406 341.464844 443.410156 342.601562 C 441.890625 343.234375 436.957031 346.273438 435.183594 346.019531 C 430.246094 346.273438 428.347656 338.679688 433.03125 336.527344 Z M 462.648438 321.84375 C 466.445312 320.074219 472.394531 315.515625 475.304688 321.210938 C 476.570312 323.742188 475.558594 326.78125 473.027344 327.921875 C 471.507812 328.554688 466.574219 331.589844 464.800781 331.339844 C 459.738281 331.71875 457.964844 323.996094 462.648438 321.84375 Z M 587.191406 260.207031 C 590.988281 258.4375 596.9375 253.878906 599.847656 259.574219 C 601.113281 262.105469 600.101562 265.144531 597.570312 266.28125 C 596.050781 266.914062 591.113281 269.953125 589.34375 269.699219 C 584.28125 269.953125 582.382812 262.359375 587.191406 260.207031 Z M 616.808594 245.527344 C 620.605469 243.753906 626.554688 239.199219 629.464844 244.894531 C 630.730469 247.425781 629.71875 250.460938 627.1875 251.601562 C 625.667969 252.234375 620.730469 255.269531 618.960938 255.019531 C 613.898438 255.269531 611.996094 247.675781 616.808594 245.527344 Z M 700.214844 464.867188 L 331.273438 464.867188 C 328.488281 464.867188 326.210938 467.144531 326.210938 469.929688 L 326.210938 578.144531 L 286.46875 578.144531 L 286.46875 499.417969 C 286.46875 496.632812 284.191406 494.355469 281.40625 494.355469 L 255.078125 494.355469 L 255.078125 271.726562 L 281.40625 271.726562 C 284.191406 271.726562 286.46875 269.445312 286.46875 266.664062 L 286.46875 237.300781 C 290.519531 230.84375 310.136719 199.835938 310.136719 199.835938 C 311.527344 200.46875 310.769531 169.332031 310.894531 168.445312 C 310.894531 165.660156 308.617188 163.382812 305.832031 163.382812 L 286.339844 163.382812 L 286.339844 145.160156 C 286.339844 130.351562 274.316406 118.324219 259.507812 118.324219 L 222.929688 118.324219 L 222.929688 86.304688 C 222.929688 83.519531 220.652344 81.242188 217.867188 81.242188 C 215.085938 81.242188 212.804688 83.519531 212.804688 86.304688 L 212.804688 118.324219 L 176.609375 118.324219 C 161.800781 118.324219 149.777344 130.351562 149.777344 145.160156 L 149.777344 163.382812 L 130.410156 163.382812 C 127.625 163.382812 125.347656 165.660156 125.347656 168.445312 L 125.347656 197.175781 C 125.347656 198.191406 125.601562 199.074219 126.109375 199.835938 L 149.777344 237.300781 L 149.777344 266.664062 C 149.777344 269.445312 152.054688 271.726562 154.839844 271.726562 L 181.164062 271.726562 L 181.164062 494.355469 L 154.839844 494.355469 C 152.054688 494.355469 149.777344 496.632812 149.777344 499.417969 L 149.777344 578.144531 L 105.097656 578.144531 C 102.3125 578.144531 100.035156 580.421875 100.035156 583.207031 L 100.035156 723.695312 C 100.035156 726.480469 102.3125 728.757812 105.097656 728.757812 L 331.398438 728.757812 C 331.398438 728.757812 331.527344 728.757812 331.527344 728.757812 L 673.128906 728.757812 C 675.914062 728.757812 678.191406 726.480469 678.191406 723.695312 L 678.191406 515.113281 L 700.339844 515.113281 C 703.125 515.113281 705.40625 512.835938 705.40625 510.050781 L 705.40625 469.929688 C 705.277344 467.144531 703 464.867188 700.214844 464.867188 Z M 301.023438 195.660156 L 278.746094 230.71875 L 249.761719 230.71875 L 257.863281 198.316406 C 257.992188 197.9375 257.992188 197.558594 257.992188 197.050781 L 257.992188 173.507812 L 301.023438 173.507812 Z M 188.503906 196.542969 L 188.503906 173.507812 L 247.863281 173.507812 L 247.863281 196.542969 L 239.257812 230.84375 L 197.113281 230.84375 Z M 159.902344 145.160156 C 159.902344 135.917969 167.367188 128.453125 176.609375 128.453125 L 259.761719 128.453125 C 269 128.453125 276.46875 135.917969 276.46875 145.160156 L 276.46875 163.382812 L 159.902344 163.382812 Z M 135.347656 173.507812 L 178.378906 173.507812 L 178.378906 197.175781 C 178.378906 197.558594 178.378906 198.0625 178.507812 198.441406 L 186.605469 230.84375 L 157.621094 230.84375 L 135.347656 195.660156 Z M 159.902344 240.84375 L 276.597656 240.84375 L 276.597656 261.601562 L 159.902344 261.601562 Z M 245.082031 271.726562 L 245.082031 494.101562 L 191.289062 494.101562 L 191.289062 271.726562 Z M 667.941406 645.476562 C 660.09375 645.476562 643.261719 645.476562 621.238281 645.476562 C 621.238281 626.871094 621.238281 606.875 621.238281 588.269531 L 667.941406 588.269531 Z M 611.238281 645.476562 C 597.191406 645.476562 581.367188 645.476562 564.535156 645.476562 C 564.535156 626.871094 564.535156 606.875 564.535156 588.269531 L 611.238281 588.269531 Z M 336.335938 588.269531 L 384.175781 588.269531 L 384.175781 645.476562 C 361.523438 645.476562 344.4375 645.476562 336.335938 645.476562 Z M 394.304688 588.269531 L 441.007812 588.269531 L 441.007812 645.476562 C 424.300781 645.476562 408.476562 645.476562 394.304688 645.476562 C 394.304688 626.746094 394.304688 606.875 394.304688 588.269531 Z M 497.707031 645.476562 C 481.886719 645.476562 466.191406 645.476562 451.003906 645.476562 C 451.003906 626.871094 451.003906 606.875 451.003906 588.269531 L 497.707031 588.269531 Z M 507.832031 588.269531 L 554.535156 588.269531 L 554.535156 645.476562 C 539.347656 645.476562 523.65625 645.476562 507.832031 645.476562 C 507.832031 626.746094 507.832031 606.875 507.832031 588.269531 Z M 441.007812 655.601562 L 441.007812 718.632812 L 394.304688 718.632812 C 394.304688 708.507812 394.304688 684.207031 394.304688 655.601562 Z M 451.003906 655.601562 L 497.707031 655.601562 L 497.707031 718.632812 L 451.003906 718.632812 C 451.003906 708.507812 451.003906 684.207031 451.003906 655.601562 Z M 507.832031 655.601562 L 554.535156 655.601562 L 554.535156 718.632812 L 507.832031 718.632812 C 507.832031 708.507812 507.832031 684.207031 507.832031 655.601562 Z M 564.535156 655.601562 L 611.238281 655.601562 L 611.238281 718.632812 L 564.535156 718.632812 C 564.535156 708.507812 564.535156 684.207031 564.535156 655.601562 Z M 564.535156 578.144531 C 564.535156 549.539062 564.535156 525.238281 564.535156 515.113281 L 611.238281 515.113281 L 611.238281 578.144531 C 597.0625 578.144531 581.242188 578.144531 564.535156 578.144531 Z M 554.410156 578.144531 C 539.222656 578.144531 523.527344 578.144531 507.707031 578.144531 C 507.707031 549.539062 507.707031 525.238281 507.707031 515.113281 L 554.410156 515.113281 Z M 497.707031 578.144531 C 481.886719 578.144531 466.191406 578.144531 451.003906 578.144531 C 451.003906 549.539062 451.003906 525.238281 451.003906 515.113281 L 497.707031 515.113281 Z M 441.007812 578.144531 C 424.300781 578.144531 408.476562 578.144531 394.304688 578.144531 C 394.304688 549.539062 394.304688 525.238281 394.304688 515.113281 L 441.007812 515.113281 Z M 384.175781 578.144531 C 361.523438 578.144531 344.4375 578.144531 336.335938 578.144531 L 336.335938 515.113281 L 384.175781 515.113281 Z M 159.902344 504.480469 L 276.46875 504.480469 L 276.46875 578.144531 L 159.902344 578.144531 Z M 232.425781 718.632812 L 232.425781 638.894531 L 283.683594 638.894531 L 283.683594 718.632812 Z M 326.210938 718.632812 L 293.683594 718.632812 L 293.683594 633.832031 C 293.683594 631.046875 291.402344 628.769531 288.621094 628.769531 L 227.359375 628.769531 C 224.578125 628.769531 222.296875 631.046875 222.296875 633.832031 L 222.296875 718.632812 L 110.035156 718.632812 L 110.035156 588.269531 L 326.210938 588.269531 Z M 336.335938 655.601562 L 384.175781 655.601562 L 384.175781 718.632812 L 336.335938 718.632812 Z M 621.238281 718.632812 C 621.238281 708.507812 621.238281 684.207031 621.238281 655.601562 L 667.941406 655.601562 L 667.941406 718.632812 Z M 667.941406 578.144531 C 660.09375 578.144531 643.261719 578.144531 621.238281 578.144531 C 621.238281 549.539062 621.238281 525.238281 621.238281 515.113281 L 667.941406 515.113281 Z M 695.277344 504.988281 L 336.460938 504.988281 L 336.460938 474.992188 L 695.277344 474.992188 Z M 695.277344 504.988281 " fill-opacity="1" fill-rule="nonzero"/></g></svg>