<svg xmlns="http://www.w3.org/2000/svg" xmlns:xlink="http://www.w3.org/1999/xlink" width="1080" zoomAndPan="magnify" viewBox="0 0 810 809.999993" height="1080" preserveAspectRatio="xMidYMid meet" version="1.0"><defs><clipPath id="e37f21a511"><path d="M 82 93.371094 L 729 93.371094 L 729 716.621094 L 82 716.621094 Z M 82 93.371094 " clip-rule="nonzero"/></clipPath></defs><g clip-path="url(#e37f21a511)"><path fill="#009a57" d="M 717.867188 246.773438 L 620.015625 246.773438 L 620.015625 189.527344 C 620.015625 163.070312 609.207031 139.03125 591.75 121.621094 C 574.308594 104.195312 550.269531 93.371094 523.859375 93.371094 C 514.242188 93.371094 504.964844 94.824219 496.1875 97.46875 C 487.410156 94.824219 478.117188 93.371094 468.519531 93.371094 C 442.058594 93.371094 418.019531 104.179688 400.59375 121.605469 C 385.785156 136.417969 375.78125 156.003906 373.101562 177.785156 C 353.824219 182.414062 335.996094 179.21875 318.3125 176.039062 C 286.917969 170.363281 255.90625 164.78125 216.28125 194.207031 L 173.316406 182.671875 C 170.140625 181.816406 166.605469 182.496094 163.929688 184.800781 L 86.535156 250.984375 C 82.195312 254.691406 81.695312 261.226562 85.40625 265.566406 L 138.566406 327.730469 C 142.277344 332.070312 148.8125 332.570312 153.152344 328.859375 L 230.238281 262.9375 C 232.917969 260.808594 234.480469 257.402344 234.09375 253.742188 L 229.429688 210.261719 C 261.714844 186.835938 288.03125 191.5625 314.667969 196.371094 C 333.011719 199.675781 351.5 203 372.34375 199.160156 L 372.34375 246.773438 L 284.769531 246.789062 C 279.367188 246.789062 274.800781 250.984375 274.445312 256.46875 L 264.199219 403.496094 L 232.882812 403.496094 C 232.882812 403.496094 232.867188 403.496094 232.867188 403.496094 L 132.871094 403.511719 C 127.773438 403.527344 123.320312 407.304688 122.625 412.5 L 83.128906 704.003906 C 82.96875 704.714844 82.886719 705.457031 82.886719 706.214844 C 82.886719 711.941406 87.535156 716.589844 93.261719 716.589844 L 192.9375 716.554688 L 193.277344 716.589844 L 477.667969 716.589844 C 477.667969 716.589844 477.683594 716.589844 477.683594 716.589844 L 717.867188 716.589844 C 723.59375 716.589844 728.242188 711.941406 728.242188 706.214844 L 728.242188 257.144531 C 728.242188 251.417969 723.59375 246.773438 717.867188 246.773438 Z M 147.550781 306.417969 L 107.847656 259.96875 L 173.207031 204.082031 L 208.972656 213.695312 L 212.925781 250.515625 Z M 577.117188 136.238281 L 577.117188 136.285156 C 590.78125 149.953125 599.285156 168.8125 599.285156 189.542969 L 599.285156 246.789062 L 564.691406 246.789062 L 564.691406 189.527344 C 564.691406 163.070312 553.882812 139.03125 536.457031 121.605469 C 533.84375 118.992188 531.070312 116.539062 528.164062 114.25 C 547.203125 115.328125 564.417969 123.542969 577.117188 136.238281 Z M 448.433594 246.789062 L 448.433594 189.527344 C 448.433594 168.796875 456.917969 149.9375 470.601562 136.269531 C 477.84375 129.027344 486.539062 123.265625 496.1875 119.425781 C 505.835938 123.265625 514.53125 129.027344 521.777344 136.269531 C 535.441406 149.9375 543.945312 168.796875 543.945312 189.527344 L 543.945312 246.773438 Z M 415.261719 136.269531 C 427.992188 123.542969 445.1875 115.328125 464.226562 114.25 C 461.324219 116.554688 458.546875 118.992188 455.933594 121.605469 C 438.511719 139.03125 427.699219 163.070312 427.699219 189.527344 L 427.699219 246.773438 L 393.109375 246.773438 L 393.109375 189.527344 C 393.09375 168.8125 401.578125 149.953125 415.261719 136.269531 Z M 374.328125 267.519531 L 364.828125 403.496094 L 337.15625 403.496094 L 346.660156 267.519531 Z M 294.433594 267.519531 L 325.910156 267.519531 L 316.410156 403.496094 L 284.933594 403.496094 Z M 184.242188 695.839844 L 155.101562 695.839844 L 191.902344 424.226562 L 221.042969 424.226562 Z M 141.90625 424.226562 L 171.042969 424.226562 L 134.242188 695.839844 L 105.105469 695.839844 Z M 205.101562 695.839844 L 224.347656 553.832031 L 241.917969 424.226562 L 277.460938 424.226562 L 373.734375 425.277344 C 374.199219 425.308594 374.652344 425.292969 375.085938 425.261719 L 429.054688 424.339844 L 465.839844 695.824219 L 205.101562 695.824219 Z M 707.492188 695.839844 L 486.703125 695.839844 L 467.726562 555.765625 L 448.320312 412.480469 C 448.320312 412.480469 448.320312 412.464844 448.320312 412.464844 C 448.238281 411.851562 448.09375 411.257812 447.914062 410.675781 C 447.898438 410.644531 447.898438 410.609375 447.882812 410.578125 C 447.707031 410.03125 447.464844 409.496094 447.191406 408.996094 C 447.15625 408.949219 447.140625 408.902344 447.109375 408.851562 C 446.835938 408.367188 446.527344 407.917969 446.191406 407.480469 C 446.140625 407.417969 446.109375 407.367188 446.0625 407.304688 C 445.722656 406.898438 445.367188 406.527344 444.964844 406.171875 C 444.898438 406.109375 444.816406 406.042969 444.753906 405.980469 C 444.382812 405.65625 443.964844 405.367188 443.542969 405.109375 C 443.429688 405.042969 443.316406 404.964844 443.203125 404.898438 C 442.800781 404.671875 442.382812 404.464844 441.960938 404.285156 C 441.800781 404.222656 441.640625 404.15625 441.480469 404.09375 C 441.089844 403.949219 440.6875 403.835938 440.269531 403.753906 C 440.042969 403.707031 439.800781 403.65625 439.558594 403.625 C 439.203125 403.578125 438.832031 403.527344 438.460938 403.511719 C 438.316406 403.511719 438.1875 403.480469 438.058594 403.480469 L 385.589844 403.480469 L 395.09375 267.503906 L 427.683594 267.503906 L 427.683594 289.15625 C 427.683594 294.882812 432.332031 299.527344 438.058594 299.527344 C 443.785156 299.527344 448.433594 294.882812 448.433594 289.15625 L 448.433594 267.503906 L 554.109375 267.503906 C 554.171875 267.503906 554.238281 267.519531 554.300781 267.519531 C 554.367188 267.519531 554.429688 267.503906 554.496094 267.503906 L 599.265625 267.503906 L 599.265625 289.15625 C 599.265625 294.882812 603.914062 299.527344 609.640625 299.527344 C 615.367188 299.527344 620.015625 294.882812 620.015625 289.15625 L 620.015625 267.503906 L 707.492188 267.503906 Z M 388.738281 459.5625 L 388.738281 493.378906 C 388.738281 508.042969 382.75 521.351562 373.101562 531 C 363.457031 540.648438 350.128906 546.636719 335.480469 546.636719 C 320.8125 546.636719 307.503906 540.648438 297.855469 531 C 288.222656 521.320312 282.222656 507.996094 282.222656 493.378906 L 282.222656 459.578125 C 282.222656 453.847656 286.867188 449.203125 292.59375 449.203125 C 298.324219 449.203125 302.96875 453.847656 302.96875 459.578125 L 302.96875 493.378906 C 302.96875 502.332031 306.617188 510.480469 312.488281 516.335938 L 312.535156 516.335938 C 318.441406 522.242188 326.574219 525.902344 335.496094 525.902344 C 344.417969 525.902344 352.566406 522.242188 358.453125 516.335938 C 364.34375 510.429688 368.019531 502.300781 368.019531 493.378906 L 368.019531 459.5625 C 368.019531 453.832031 372.667969 449.1875 378.394531 449.1875 C 384.121094 449.1875 388.738281 453.832031 388.738281 459.5625 Z M 388.738281 459.5625 " fill-opacity="1" fill-rule="nonzero"/></g></svg>