<svg xmlns="http://www.w3.org/2000/svg" xmlns:xlink="http://www.w3.org/1999/xlink" width="1080" zoomAndPan="magnify" viewBox="0 0 810 809.999993" height="1080" preserveAspectRatio="xMidYMid meet" version="1.0"><defs><clipPath id="b6776dcbde"><path d="M 88.289062 81 L 721 81 L 721 729 L 88.289062 729 Z M 88.289062 81 " clip-rule="nonzero"/></clipPath></defs><path fill="#009a57" d="M 549.167969 178.535156 L 419.597656 221.726562 L 426.429688 242.214844 L 556 199.023438 L 549.167969 178.535156 " fill-opacity="1" fill-rule="nonzero"/><path fill="#009a57" d="M 131.480469 512.707031 L 487.796875 512.707031 L 487.796875 491.109375 L 131.480469 491.109375 L 131.480469 512.707031 " fill-opacity="1" fill-rule="nonzero"/><path fill="#009a57" d="M 131.480469 555.894531 L 487.796875 555.894531 L 487.796875 534.300781 L 131.480469 534.300781 L 131.480469 555.894531 " fill-opacity="1" fill-rule="nonzero"/><g clip-path="url(#b6776dcbde)"><path fill="#009a57" d="M 545.054688 573.511719 C 525.726562 541.355469 526.535156 501.058594 547.507812 469.601562 L 549.421875 466.726562 L 681.226562 387.644531 C 672.847656 413.804688 676.539062 442.765625 692.320312 466.4375 L 699.394531 477.050781 Z M 698.539062 607.15625 L 544.90625 703.175781 C 525.519531 671.003906 526.3125 630.660156 547.3125 599.171875 L 549.453125 595.953125 C 550.585938 595.417969 551.691406 594.832031 552.761719 594.160156 L 674.429688 518.121094 C 669.75 549.59375 678.214844 581.753906 698.539062 607.15625 Z M 522.570312 577.492188 L 120.683594 577.492188 C 114.730469 577.492188 109.886719 572.644531 109.886719 566.691406 L 109.886719 470.507812 C 109.886719 470.175781 109.917969 469.84375 109.949219 469.515625 L 522.570312 469.515625 C 505.191406 503.457031 505.191406 543.546875 522.570312 577.492188 Z M 522.367188 707.0625 L 174.671875 707.0625 C 168.71875 707.0625 163.871094 702.214844 163.871094 696.261719 L 163.871094 599.085938 L 522.367188 599.085938 C 504.992188 633.027344 504.992188 673.117188 522.367188 707.0625 Z M 248.492188 375.511719 C 249.4375 375.90625 250.394531 376.269531 251.390625 376.582031 L 402.558594 423.820312 C 405.714844 424.808594 408.96875 425.300781 412.214844 425.300781 C 415.464844 425.300781 418.714844 424.808594 421.875 423.820312 L 573.039062 376.582031 C 581.167969 374.039062 587.6875 368.566406 591.625 361.539062 L 682.761719 361.539062 L 538.796875 447.921875 L 135.851562 447.921875 Z M 250.253906 247 L 401.417969 293.914062 L 401.417969 400.839844 L 257.828125 355.96875 C 253.300781 354.554688 250.253906 350.410156 250.253906 345.664062 Z M 423.011719 293.914062 L 574.179688 247 L 574.179688 345.664062 C 574.179688 350.410156 571.132812 354.554688 566.601562 355.96875 L 423.011719 400.839844 Z M 700.832031 501.617188 L 710.839844 495.363281 C 715.832031 492.242188 719.265625 487.351562 720.503906 481.597656 C 721.742188 475.84375 720.632812 469.972656 717.363281 465.070312 L 710.285156 454.457031 C 694.523438 430.804688 694.523438 400.25 710.292969 376.59375 L 712.335938 373.519531 C 716.765625 366.878906 717.175781 358.386719 713.414062 351.347656 C 709.648438 344.316406 702.351562 339.945312 694.371094 339.945312 L 595.773438 339.945312 L 595.773438 240.300781 L 695.320312 209.40625 C 704.402344 206.582031 710.511719 198.296875 710.511719 188.78125 C 710.511719 179.261719 704.402344 170.976562 695.320312 168.15625 L 422.054688 83.351562 C 415.539062 81.324219 408.679688 81.398438 402.210938 83.554688 L 344.019531 102.953125 L 350.847656 123.441406 L 409.035156 104.042969 C 411.191406 103.320312 413.480469 103.300781 415.652344 103.96875 L 688.917969 188.78125 L 415.417969 273.65625 C 413.324219 274.304688 411.109375 274.304688 409.015625 273.65625 L 136.078125 188.953125 L 210.167969 166.726562 L 203.957031 146.042969 L 129.871094 168.269531 C 120.714844 171.015625 114.53125 179.289062 114.488281 188.851562 C 114.441406 198.417969 120.546875 206.746094 129.675781 209.578125 L 131.480469 210.136719 L 131.480469 293.765625 L 100.628906 345.183594 L 119.144531 356.300781 L 131.480469 335.738281 L 131.480469 372.335938 L 153.074219 372.335938 L 153.074219 335.738281 L 165.414062 356.300781 L 183.929688 345.183594 L 153.074219 293.765625 L 153.074219 216.839844 L 228.65625 240.292969 L 228.65625 345.664062 C 228.65625 350.910156 229.90625 355.902344 232.152344 360.335938 L 103.167969 443.257812 C 93.851562 449.25 88.289062 459.433594 88.289062 470.507812 L 88.289062 566.691406 C 88.289062 584.554688 102.820312 599.085938 120.683594 599.085938 L 142.277344 599.085938 L 142.277344 696.261719 C 142.277344 714.125 156.808594 728.65625 174.671875 728.65625 L 535.589844 728.65625 C 541.671875 728.65625 547.605469 726.953125 552.761719 723.730469 L 709.980469 625.46875 C 715.207031 622.203125 718.789062 616.851562 719.824219 610.785156 C 720.863281 604.710938 719.246094 598.472656 715.402344 593.664062 C 695.398438 568.664062 689.503906 535.601562 699.625 505.230469 L 700.832031 501.617188 " fill-opacity="1" fill-rule="nonzero"/></g><path fill="#009a57" d="M 185.46875 642.277344 L 487.796875 642.277344 L 487.796875 620.679688 L 185.46875 620.679688 L 185.46875 642.277344 " fill-opacity="1" fill-rule="nonzero"/><path fill="#009a57" d="M 185.46875 685.464844 L 487.796875 685.464844 L 487.796875 663.871094 L 185.46875 663.871094 L 185.46875 685.464844 " fill-opacity="1" fill-rule="nonzero"/><path fill="#009a57" d="M 282.644531 129.257812 C 287.027344 135.660156 292.574219 141.207031 298.980469 145.589844 C 292.574219 149.96875 287.027344 155.515625 282.644531 161.921875 C 278.265625 155.515625 272.71875 149.96875 266.3125 145.589844 C 272.71875 141.207031 278.265625 135.660156 282.644531 129.257812 Z M 271.847656 196.878906 L 271.847656 199.578125 L 293.441406 199.578125 L 293.441406 196.878906 C 293.441406 174.550781 311.605469 156.386719 333.933594 156.386719 L 336.632812 156.386719 L 336.632812 134.792969 L 333.933594 134.792969 C 311.605469 134.792969 293.441406 116.628906 293.441406 94.300781 L 293.441406 91.601562 L 271.847656 91.601562 L 271.847656 94.300781 C 271.847656 116.628906 253.683594 134.792969 231.355469 134.792969 L 228.65625 134.792969 L 228.65625 156.386719 L 231.355469 156.386719 C 253.683594 156.386719 271.847656 174.550781 271.847656 196.878906 " fill-opacity="1" fill-rule="nonzero"/></svg>