<svg xmlns="http://www.w3.org/2000/svg" xmlns:xlink="http://www.w3.org/1999/xlink" width="1080" zoomAndPan="magnify" viewBox="0 0 810 1439.999935" height="1920" preserveAspectRatio="xMidYMid meet" version="1.0"><path fill="#ffffff" d="M 403.917969 354.050781 L 448.5625 1293.230469 L 482.320312 1293.253906 L 478.515625 1213.378906 L 681.800781 1213.378906 L 685.605469 1293.230469 L 719.367188 1293.253906 L 674.675781 353.90625 L 641.011719 355.519531 L 644.019531 418.945312 L 440.734375 418.945312 L 437.652344 353.929688 Z M 645.632812 452.636719 L 650.066406 545.707031 L 446.777344 545.707031 L 442.347656 452.636719 Z M 464.839844 926.078125 L 460.410156 833.007812 L 663.695312 833.007812 L 668.125 926.078125 Z M 669.738281 959.789062 L 674.167969 1052.859375 L 470.882812 1052.859375 L 466.453125 959.789062 Z M 458.820312 799.292969 L 454.386719 706.222656 L 657.675781 706.222656 L 662.105469 799.292969 Z M 452.800781 672.511719 L 448.367188 579.441406 L 651.652344 579.441406 L 656.085938 672.511719 Z M 476.902344 1179.667969 L 472.472656 1086.597656 L 675.757812 1086.597656 L 680.1875 1179.667969 Z M 476.902344 1179.667969 " fill-opacity="1" fill-rule="nonzero"/><path fill="#333333" d="M 719.34375 1295.660156 L 685.582031 1295.636719 C 684.308594 1295.636719 683.246094 1294.625 683.175781 1293.347656 L 679.492188 1215.785156 L 481.019531 1215.785156 L 484.707031 1293.132812 C 484.730469 1293.78125 484.488281 1294.433594 484.03125 1294.914062 C 483.574219 1295.394531 482.949219 1295.660156 482.296875 1295.660156 L 448.535156 1295.636719 C 447.261719 1295.636719 446.203125 1294.625 446.128906 1293.347656 L 401.507812 354.171875 C 401.484375 353.519531 401.726562 352.871094 402.160156 352.390625 C 402.617188 351.90625 403.242188 351.640625 403.890625 351.640625 L 437.628906 351.496094 C 438.90625 351.496094 439.964844 352.507812 440.035156 353.785156 L 443.023438 416.515625 L 641.492188 416.515625 L 638.601562 355.617188 C 638.53125 354.292969 639.566406 353.160156 640.890625 353.085938 L 674.554688 351.472656 C 675.230469 351.449219 675.808594 351.667969 676.289062 352.101562 C 676.769531 352.535156 677.035156 353.136719 677.082031 353.761719 L 721.726562 1293.109375 C 721.75 1293.757812 721.511719 1294.410156 721.054688 1294.890625 C 720.621094 1295.394531 719.992188 1295.660156 719.34375 1295.660156 Z M 687.871094 1290.820312 L 716.792969 1290.84375 L 672.386719 356.433594 L 643.515625 357.808594 L 646.429688 418.824219 C 646.453125 419.476562 646.210938 420.125 645.753906 420.609375 C 645.296875 421.089844 644.671875 421.355469 644.019531 421.355469 L 440.734375 421.355469 C 439.457031 421.355469 438.398438 420.34375 438.328125 419.066406 L 435.339844 356.335938 L 406.421875 356.457031 L 450.824219 1290.820312 L 479.746094 1290.84375 L 476.0625 1213.5 C 476.035156 1212.847656 476.277344 1212.199219 476.734375 1211.71875 C 477.191406 1211.234375 477.820312 1210.96875 478.46875 1210.96875 L 681.753906 1210.96875 C 683.03125 1210.96875 684.089844 1211.980469 684.164062 1213.257812 Z M 680.1875 1182.074219 L 476.902344 1182.074219 C 475.628906 1182.074219 474.566406 1181.0625 474.496094 1179.785156 L 470.066406 1086.714844 C 470.039062 1086.066406 470.28125 1085.417969 470.738281 1084.933594 C 471.195312 1084.453125 471.824219 1084.1875 472.472656 1084.1875 L 675.757812 1084.1875 C 677.035156 1084.1875 678.09375 1085.199219 678.167969 1086.476562 L 682.597656 1179.546875 C 682.621094 1180.195312 682.378906 1180.847656 681.921875 1181.328125 C 681.464844 1181.808594 680.839844 1182.074219 680.1875 1182.074219 Z M 479.191406 1177.257812 L 677.660156 1177.257812 L 673.472656 1089.003906 L 475 1089.003906 Z M 674.167969 1055.292969 L 470.882812 1055.292969 C 469.605469 1055.292969 468.546875 1054.28125 468.476562 1053.003906 L 464.042969 959.933594 C 464.019531 959.285156 464.261719 958.632812 464.71875 958.152344 C 465.175781 957.671875 465.800781 957.40625 466.453125 957.40625 L 669.738281 957.40625 C 671.015625 957.40625 672.074219 958.417969 672.144531 959.691406 L 676.578125 1052.761719 C 676.601562 1053.414062 676.359375 1054.0625 675.902344 1054.546875 C 675.445312 1055.003906 674.820312 1055.292969 674.167969 1055.292969 Z M 473.171875 1050.476562 L 671.640625 1050.476562 L 667.449219 962.222656 L 468.980469 962.222656 Z M 668.125 928.484375 L 464.839844 928.484375 C 463.5625 928.484375 462.503906 927.472656 462.429688 926.199219 L 458 833.128906 C 457.976562 832.476562 458.21875 831.828125 458.675781 831.34375 C 459.132812 830.863281 459.757812 830.597656 460.410156 830.597656 L 663.695312 830.597656 C 664.96875 830.597656 666.03125 831.609375 666.101562 832.886719 L 670.53125 925.957031 C 670.558594 926.605469 670.316406 927.257812 669.859375 927.738281 C 669.425781 928.21875 668.800781 928.484375 668.125 928.484375 Z M 467.152344 923.667969 L 665.621094 923.667969 L 661.429688 835.414062 L 462.960938 835.414062 Z M 662.105469 801.703125 L 458.820312 801.703125 C 457.542969 801.703125 456.484375 800.691406 456.410156 799.414062 L 451.980469 706.34375 C 451.957031 705.695312 452.199219 705.042969 452.65625 704.5625 C 453.113281 704.082031 453.738281 703.816406 454.386719 703.816406 L 657.675781 703.816406 C 658.949219 703.816406 660.011719 704.828125 660.082031 706.105469 L 664.511719 799.175781 C 664.535156 799.824219 664.296875 800.472656 663.839844 800.957031 C 663.382812 801.4375 662.753906 801.703125 662.105469 801.703125 Z M 461.105469 796.886719 L 659.578125 796.886719 L 655.386719 708.632812 L 456.917969 708.632812 Z M 656.085938 674.917969 L 452.800781 674.917969 C 451.523438 674.917969 450.464844 673.910156 450.390625 672.632812 L 445.960938 579.5625 C 445.9375 578.910156 446.175781 578.261719 446.632812 577.78125 C 447.09375 577.296875 447.71875 577.035156 448.367188 577.035156 L 651.652344 577.035156 C 652.929688 577.035156 653.988281 578.042969 654.0625 579.320312 L 658.492188 672.390625 C 658.515625 673.042969 658.277344 673.691406 657.820312 674.171875 C 657.359375 674.65625 656.734375 674.917969 656.085938 674.917969 Z M 455.085938 670.105469 L 653.554688 670.105469 L 649.367188 581.847656 L 450.898438 581.847656 Z M 650.039062 548.113281 L 446.753906 548.113281 C 445.480469 548.113281 444.417969 547.101562 444.347656 545.824219 L 439.917969 452.753906 C 439.890625 452.105469 440.132812 451.453125 440.589844 450.972656 C 441.046875 450.492188 441.675781 450.226562 442.324219 450.226562 L 645.609375 450.226562 C 646.886719 450.226562 647.945312 451.238281 648.019531 452.515625 L 652.449219 545.585938 C 652.472656 546.234375 652.230469 546.886719 651.773438 547.367188 C 651.339844 547.847656 650.714844 548.113281 650.039062 548.113281 Z M 449.066406 543.296875 L 647.535156 543.296875 L 643.347656 455.042969 L 444.851562 455.042969 Z M 449.066406 543.296875 " fill-opacity="1" fill-rule="nonzero"/><path fill="#22a454" d="M 677.46875 1050.789062 C 677.539062 1053.605469 675.277344 1055.941406 672.460938 1055.941406 L 519.839844 1055.941406 C 511.917969 1055.941406 506.570312 1047.609375 510.132812 1040.53125 C 526.605469 1007.828125 574.117188 988.445312 592.25 982.039062 C 596.558594 980.523438 599.398438 976.453125 599.398438 971.902344 L 599.398438 967.496094 C 599.398438 961.546875 604.214844 956.730469 610.164062 956.730469 L 664.417969 956.730469 C 670.242188 956.730469 675.011719 961.378906 675.179688 967.207031 Z M 561.90625 861.300781 C 561.835938 859.398438 562.171875 857.519531 562.871094 855.761719 L 575.609375 823.761719 C 577.148438 819.882812 576.8125 815.546875 574.789062 811.914062 C 562.125 788.867188 540.933594 782.605469 540.933594 782.605469 L 493.230469 808.109375 C 488.246094 810.78125 485.402344 816.222656 486.078125 821.859375 L 489.039062 846.445312 C 489.667969 851.621094 487.402344 856.796875 482.996094 859.566406 C 461.878906 872.957031 454.726562 897.085938 452.292969 913.027344 C 451.042969 921.332031 457.472656 928.820312 465.875 928.820312 L 525.304688 928.820312 C 562.003906 928.796875 562.363281 874.375 561.90625 861.300781 Z M 561.90625 861.300781 " fill-opacity="1" fill-rule="nonzero"/><path fill="#333333" d="M 398.28125 490.632812 L 81 490.632812 C 81 475.894531 83.023438 461.617188 86.777344 448.082031 C 105.152344 381.863281 165.425781 333.125 237.234375 332.039062 L 237.234375 180.023438 C 237.234375 178.699219 238.316406 177.613281 239.640625 177.613281 C 240.964844 177.613281 242.046875 178.699219 242.046875 180.023438 L 242.046875 332.039062 C 313.878906 333.101562 374.128906 381.863281 392.503906 448.082031 C 396.28125 461.617188 398.28125 475.894531 398.28125 490.632812 Z M 398.28125 490.632812 " fill-opacity="1" fill-rule="nonzero"/><path fill="#22a454" d="M 203.761719 144.359375 L 275.519531 144.359375 C 275.519531 147.683594 275.0625 150.910156 274.21875 153.992188 C 270.007812 169.136719 256.136719 180.238281 239.640625 180.238281 C 223.144531 180.238281 209.277344 169.136719 205.0625 153.992188 C 204.21875 150.910156 203.761719 147.683594 203.761719 144.359375 Z M 392.503906 448.082031 L 86.777344 448.082031 C 83.023438 461.617188 81 475.894531 81 490.632812 L 398.28125 490.632812 C 398.28125 475.894531 396.28125 461.617188 392.503906 448.082031 Z M 392.503906 448.082031 " fill-opacity="1" fill-rule="nonzero"/><path fill="#ffffff" d="M 305.71875 294.257812 L 355.273438 316.582031 L 332.734375 372.160156 L 278.699219 337.410156 Z M 426.601562 268.492188 L 501.898438 294.042969 L 495.878906 229.746094 L 442.398438 220.089844 Z M 426.601562 268.492188 " fill-opacity="1" fill-rule="nonzero"/><path fill="#333333" d="M 332.734375 374.566406 C 332.277344 374.566406 331.820312 374.445312 331.433594 374.179688 L 277.398438 339.433594 C 276.289062 338.710938 275.953125 337.242188 276.652344 336.132812 L 303.671875 292.984375 C 304.320312 291.972656 305.597656 291.585938 306.703125 292.066406 L 356.261719 314.390625 C 357.441406 314.917969 357.996094 316.292969 357.515625 317.496094 L 334.972656 373.074219 C 334.710938 373.746094 334.15625 374.253906 333.480469 374.46875 C 333.214844 374.519531 332.976562 374.566406 332.734375 374.566406 Z M 281.996094 336.6875 L 331.578125 368.570312 L 352.167969 317.832031 L 306.632812 297.316406 Z M 501.898438 296.449219 C 501.632812 296.449219 501.371094 296.402344 501.128906 296.328125 L 425.828125 270.78125 C 424.578125 270.347656 423.902344 269 424.3125 267.746094 L 440.085938 219.34375 C 440.46875 218.1875 441.625 217.492188 442.804688 217.730469 L 496.289062 227.386719 C 497.347656 227.582031 498.167969 228.449219 498.261719 229.53125 L 504.28125 293.824219 C 504.355469 294.644531 504.019531 295.4375 503.367188 295.945312 C 502.957031 296.28125 502.429688 296.449219 501.898438 296.449219 Z M 429.609375 266.976562 L 499.128906 290.574219 L 493.617188 231.820312 L 443.984375 222.859375 Z M 429.609375 266.976562 " fill-opacity="1" fill-rule="nonzero"/><path fill="#ffffff" d="M 595.015625 207.667969 L 595.015625 367.222656 L 539.367188 367.222656 L 540.378906 331.921875 C 514.734375 330.886719 493.6875 311.210938 490.484375 286.167969 C 484.824219 284.578125 480.660156 279.402344 480.660156 273.261719 C 480.660156 267.289062 484.609375 262.183594 490.050781 260.472656 L 490.050781 225.558594 C 490.050781 215.710938 498.117188 207.640625 507.96875 207.640625 L 595.015625 207.640625 Z M 595.015625 207.667969 " fill-opacity="1" fill-rule="nonzero"/><path fill="#333333" d="M 488.316406 288 C 492.242188 313.113281 512.6875 332.089844 537.921875 334.207031 L 536.984375 367.175781 C 536.960938 367.824219 537.199219 368.449219 537.65625 368.933594 C 538.117188 369.390625 538.742188 369.652344 539.390625 369.652344 L 595.042969 369.652344 C 596.367188 369.652344 597.449219 368.570312 597.449219 367.246094 L 597.449219 207.667969 C 597.449219 206.34375 596.367188 205.257812 595.042969 205.257812 L 507.96875 205.257812 C 496.769531 205.257812 487.644531 214.382812 487.644531 225.582031 L 487.644531 258.835938 C 481.960938 261.367188 478.253906 266.976562 478.253906 273.285156 C 478.277344 279.785156 482.320312 285.636719 488.316406 288 Z M 490.773438 262.785156 C 491.785156 262.472656 492.460938 261.535156 492.460938 260.5 L 492.460938 225.582031 C 492.460938 217.035156 499.417969 210.074219 507.96875 210.074219 L 592.632812 210.074219 L 592.632812 364.8125 L 541.871094 364.8125 L 542.8125 331.992188 C 542.859375 330.667969 541.824219 329.5625 540.5 329.511719 C 516.417969 328.523438 495.949219 309.765625 492.894531 285.855469 C 492.773438 284.890625 492.074219 284.097656 491.160156 283.832031 C 486.414062 282.507812 483.09375 278.148438 483.09375 273.238281 C 483.09375 268.542969 486.246094 264.230469 490.773438 262.785156 Z M 677.613281 967.6875 C 631.113281 990.636719 583.746094 971.082031 583.746094 971.082031 L 552.203125 683.347656 C 552.203125 683.347656 501.753906 691.125 492.75 723.828125 C 483.742188 756.503906 546.183594 782.605469 546.183594 782.605469 C 527.183594 837.078125 482.804688 848.636719 482.804688 848.636719 C 482.804688 848.636719 373.984375 785.519531 372.757812 714.605469 C 371.527344 643.6875 484.488281 564.269531 484.488281 564.269531 L 668.800781 564.269531 C 689.507812 662.445312 677.613281 967.6875 677.613281 967.6875 Z M 677.613281 967.6875 " fill-opacity="1" fill-rule="nonzero"/><path fill="#22a454" d="M 668.800781 564.269531 C 574.429688 590.710938 484.488281 564.269531 484.488281 564.269531 L 473.292969 448.082031 C 384.554688 440.234375 326.546875 394.023438 311.28125 380.464844 C 308.847656 378.300781 308.078125 374.855469 309.378906 371.871094 L 338.492188 304.300781 C 340.175781 300.375 344.917969 298.835938 348.605469 301 C 383.0625 321.445312 413.835938 333.027344 438.277344 339.554688 C 465.851562 346.921875 494.796875 346.945312 522.65625 340.734375 C 595.910156 324.382812 650.039062 342.925781 650.039062 342.925781 C 729.097656 362.140625 668.800781 564.269531 668.800781 564.269531 Z M 668.800781 564.269531 " fill-opacity="1" fill-rule="nonzero"/><path fill="#333333" d="M 516.445312 250.527344 C 517.574219 254.476562 515.289062 258.570312 511.339844 259.703125 C 507.390625 260.835938 503.296875 258.546875 502.164062 254.597656 C 501.03125 250.648438 503.320312 246.554688 507.269531 245.425781 C 511.21875 244.316406 515.335938 246.605469 516.445312 250.527344 Z M 662.417969 287.011719 C 652.617188 276.65625 646.261719 263.582031 643.226562 249.636719 C 640.335938 236.296875 633.449219 220.042969 617.460938 209.207031 C 586.109375 187.992188 526.992188 206.246094 526.992188 206.246094 L 551.214844 260.859375 C 551.839844 259.558594 552.5625 258.28125 553.40625 257.03125 C 560.65625 246.292969 573.175781 242.054688 581.386719 247.589844 C 589.597656 253.128906 590.394531 266.324219 583.144531 277.066406 C 581.53125 279.449219 579.652344 281.496094 577.632812 283.207031 C 577.632812 283.207031 544.425781 401.054688 622.058594 401.054688 C 691.386719 401.054688 703.957031 330.835938 662.417969 287.011719 Z M 662.417969 287.011719 " fill-opacity="1" fill-rule="nonzero"/><path fill="#22a454" d="M 638.289062 229.410156 C 638.335938 230.324219 637.589844 231.074219 636.699219 231.074219 L 479.070312 231.074219 C 475.890625 231.074219 473.339844 228.496094 473.339844 225.339844 L 473.339844 224.933594 C 473.339844 221.753906 475.917969 219.199219 479.070312 219.199219 L 485.8125 219.199219 C 492.484375 183.5625 523.933594 156.398438 561.425781 156.398438 C 582.59375 156.398438 601.832031 165.042969 615.773438 179.011719 C 628.851562 192.0625 637.277344 209.808594 638.289062 229.410156 Z M 638.289062 229.410156 " fill-opacity="1" fill-rule="nonzero"/><path fill="#333333" d="M 518.996094 244.148438 C 518.007812 244.148438 517.070312 243.523438 516.730469 242.558594 C 516.011719 240.558594 514.949219 239.257812 513.457031 238.609375 C 510.59375 237.332031 507.027344 238.707031 507.003906 238.730469 C 505.777344 239.234375 504.355469 238.632812 503.875 237.40625 C 503.367188 236.175781 503.96875 234.78125 505.199219 234.273438 C 505.414062 234.179688 510.664062 232.082031 515.433594 234.203125 C 518.152344 235.40625 520.128906 237.671875 521.285156 240.945312 C 521.742188 242.199219 521.089844 243.570312 519.816406 244.027344 C 519.550781 244.101562 519.261719 244.148438 518.996094 244.148438 Z M 522.269531 294.8125 C 528.894531 291.320312 531.230469 283.472656 531.324219 283.132812 C 531.6875 281.859375 530.964844 280.53125 529.6875 280.148438 C 528.410156 279.761719 527.0625 280.507812 526.703125 281.785156 C 526.675781 281.859375 524.773438 288.023438 520.007812 290.550781 C 517.527344 291.851562 514.589844 291.972656 511.3125 290.910156 C 510.039062 290.503906 508.691406 291.199219 508.28125 292.453125 C 507.871094 293.707031 508.570312 295.078125 509.820312 295.488281 C 511.820312 296.136719 513.722656 296.449219 515.550781 296.449219 C 517.960938 296.449219 520.199219 295.894531 522.269531 294.8125 Z M 559.015625 219.175781 C 559.015625 217.851562 557.933594 216.769531 556.609375 216.769531 L 485.789062 216.769531 C 484.464844 216.769531 483.382812 217.851562 483.382812 219.175781 C 483.382812 220.5 484.464844 221.585938 485.789062 221.585938 L 556.609375 221.585938 C 557.933594 221.585938 559.015625 220.523438 559.015625 219.175781 Z M 290.402344 1195.871094 L 290.402344 1119.632812 C 290.402344 1114.988281 286.621094 1111.207031 281.972656 1111.207031 L 212.308594 1111.207031 C 207.664062 1111.207031 203.882812 1114.988281 203.882812 1119.632812 L 203.882812 1195.871094 C 203.882812 1200.519531 207.664062 1204.300781 212.308594 1204.300781 L 281.996094 1204.300781 C 286.644531 1204.300781 290.402344 1200.542969 290.402344 1195.871094 Z M 220.738281 1128.085938 L 273.570312 1128.085938 L 273.570312 1187.46875 L 220.738281 1187.46875 Z M 220.738281 1128.085938 " fill-opacity="1" fill-rule="nonzero"/><path fill="#22a454" d="M 381.8125 1293.300781 L 112.472656 1293.300781 C 105.585938 1293.300781 100 1287.714844 100 1280.828125 L 100 1158.234375 C 100 1151.347656 105.585938 1145.761719 112.472656 1145.761719 L 381.8125 1145.761719 C 388.699219 1145.761719 394.285156 1151.347656 394.285156 1158.234375 L 394.285156 1280.828125 C 394.285156 1287.714844 388.699219 1293.300781 381.8125 1293.300781 Z M 381.8125 1293.300781 " fill-opacity="1" fill-rule="nonzero"/><path fill="#333333" d="M 396.691406 1197.390625 C 396.691406 1198.714844 395.609375 1199.796875 394.285156 1199.796875 L 100 1199.796875 C 98.675781 1199.796875 97.589844 1198.714844 97.589844 1197.390625 C 97.589844 1196.066406 98.675781 1194.980469 100 1194.980469 L 394.285156 1194.980469 C 395.609375 1194.980469 396.691406 1196.066406 396.691406 1197.390625 Z M 396.691406 1197.390625 " fill-opacity="1" fill-rule="nonzero"/><path fill="#ffffff" d="M 263.261719 1208.753906 L 231.019531 1208.753906 C 227.359375 1208.753906 224.375 1205.792969 224.375 1202.109375 L 224.375 1192.621094 C 224.375 1188.960938 227.335938 1185.976562 231.019531 1185.976562 L 263.238281 1185.976562 C 266.898438 1185.976562 269.886719 1188.9375 269.886719 1192.621094 L 269.886719 1202.109375 C 269.886719 1205.792969 266.921875 1208.753906 263.261719 1208.753906 Z M 407.191406 270.949219 L 423.710938 270.226562 C 425.878906 270.128906 428.019531 270.804688 429.753906 272.105469 C 434.761719 275.886719 441.988281 273.765625 444.15625 267.867188 L 458.964844 227.605469 C 461.105469 221.777344 457.085938 215.539062 450.898438 215.058594 L 445.742188 214.671875 C 445.070312 214.625 444.394531 214.503906 443.746094 214.3125 C 437.265625 212.363281 431.609375 208.292969 427.78125 202.707031 C 423.445312 196.398438 416.726562 187.96875 408.902344 182.839844 C 395.152344 173.832031 380.027344 187.390625 365.75 188.761719 C 351.46875 190.160156 343.933594 198.636719 349.085938 207.691406 C 354.09375 216.503906 355.179688 216.429688 367.289062 215.539062 L 356.742188 233.578125 C 354.769531 236.296875 354.40625 239.886719 355.804688 242.945312 L 356.550781 244.605469 C 357.441406 246.53125 358.957031 248.121094 360.859375 249.085938 L 402.542969 269.984375 C 404.011719 270.683594 405.601562 271.023438 407.191406 270.949219 Z M 306.96875 283.542969 L 306.898438 283.542969 C 302.972656 282.894531 299.191406 281.570312 295.746094 279.59375 C 294.738281 279.015625 294.039062 278.003906 293.820312 276.847656 C 292.0625 268.203125 282.070312 231.242188 241.085938 246.53125 L 256.160156 256.765625 L 237.980469 246.652344 C 233.113281 243.957031 226.804688 244.917969 223.484375 249.375 C 220.761719 253.058594 220.761719 257.707031 222.832031 261.292969 C 222.882812 261.367188 222.832031 261.4375 222.761719 261.4375 C 219.050781 261.558594 215.511719 263.507812 213.585938 266.953125 C 211.660156 270.394531 211.875 274.464844 213.730469 277.667969 C 213.777344 277.738281 213.730469 277.8125 213.65625 277.8125 C 209.949219 277.933594 206.410156 279.882812 204.484375 283.328125 C 202.558594 286.769531 202.773438 290.839844 204.628906 294.042969 C 204.675781 294.113281 204.628906 294.1875 204.554688 294.1875 C 199.714844 294.332031 195.117188 297.628906 194.105469 303.335938 C 193.308594 307.863281 195.765625 312.367188 199.789062 314.632812 L 200.027344 314.75 C 208.988281 319.761719 218.355469 323.925781 228.035156 327.226562 C 237.570312 330.5 250.5 335.21875 261.167969 340.253906 C 265.285156 342.179688 264.492188 350.511719 266.753906 354.4375 C 269.378906 359.011719 276.027344 358.960938 278.578125 354.339844 L 312.003906 293.898438 C 314.363281 289.636719 311.785156 284.335938 306.96875 283.542969 Z M 306.96875 283.542969 " fill-opacity="1" fill-rule="nonzero"/><path fill="#333333" d="M 460.09375 218.042969 C 458.097656 214.914062 454.796875 212.964844 451.089844 212.675781 L 445.9375 212.289062 C 445.429688 212.242188 444.925781 212.167969 444.46875 212.023438 C 438.472656 210.21875 433.269531 206.414062 429.800781 201.355469 C 425.421875 194.953125 418.460938 186.1875 410.273438 180.839844 C 400.28125 174.316406 390.046875 178.289062 380.125 182.117188 C 375.042969 184.089844 370.226562 185.945312 365.582031 186.402344 C 356.308594 187.292969 349.351562 191.003906 346.484375 196.566406 C 344.511719 200.394531 344.726562 204.777344 347.085938 208.917969 C 351.445312 216.574219 353.804688 218.359375 360.523438 218.332031 C 360.933594 218.453125 361.679688 218.648438 362.667969 218.863281 L 354.863281 232.203125 C 352.382812 235.625 351.949219 240.152344 353.707031 243.980469 L 354.457031 245.640625 C 355.5625 248.074219 357.488281 250.070312 359.875 251.25 L 401.554688 272.152344 C 403.339844 273.042969 405.335938 273.476562 407.335938 273.382812 L 423.855469 272.660156 C 425.492188 272.5625 427.058594 273.09375 428.332031 274.054688 C 430.40625 275.621094 432.859375 276.441406 435.390625 276.441406 C 436.496094 276.441406 437.628906 276.269531 438.738281 275.957031 C 442.347656 274.898438 445.164062 272.273438 446.464844 268.734375 L 461.277344 228.472656 C 462.503906 224.957031 462.09375 221.175781 460.09375 218.042969 Z M 456.699219 226.785156 L 441.890625 267.046875 C 441.121094 269.144531 439.457031 270.683594 437.339844 271.308594 C 435.222656 271.9375 432.980469 271.527344 431.199219 270.179688 C 429.152344 268.636719 426.648438 267.792969 424.121094 267.792969 C 423.949219 267.792969 423.78125 267.792969 423.613281 267.792969 L 407.09375 268.515625 C 405.914062 268.566406 404.734375 268.324219 403.675781 267.792969 L 361.992188 246.894531 C 360.597656 246.195312 359.441406 245.015625 358.789062 243.570312 L 358.042969 241.910156 C 357.007812 239.644531 357.273438 236.972656 358.863281 234.757812 L 367.84375 219.371094 C 373.214844 219.539062 380.582031 218.429688 387.347656 212.769531 C 389.492188 219.804688 395.101562 234.105469 407.070312 241.8125 C 412.34375 245.207031 418.195312 246.894531 424.578125 246.894531 C 427.492188 246.894531 430.5 246.53125 433.605469 245.832031 C 434.90625 245.542969 435.726562 244.246094 435.414062 242.945312 C 435.125 241.644531 433.847656 240.824219 432.523438 241.136719 C 423.902344 243.089844 416.222656 241.957031 409.695312 237.765625 C 395.488281 228.640625 391.035156 207.90625 390.984375 207.714844 C 390.792969 206.824219 390.140625 206.125 389.277344 205.882812 C 388.410156 205.644531 387.46875 205.910156 386.867188 206.582031 C 381.183594 212.820312 374.5625 214.433594 369.53125 214.554688 C 369.480469 214.433594 369.433594 214.3125 369.386719 214.214844 C 368.902344 213.445312 368.0625 213.011719 367.167969 213.085938 C 355.515625 213.953125 355.515625 213.953125 351.230469 206.4375 C 349.664062 203.691406 349.496094 201.066406 350.722656 198.683594 C 352.816406 194.664062 358.523438 191.820312 366.015625 191.097656 C 371.335938 190.59375 376.679688 188.523438 381.835938 186.523438 C 391.007812 182.960938 399.703125 179.613281 407.601562 184.789062 C 415.136719 189.726562 421.664062 197.960938 425.804688 204.007812 C 429.898438 209.976562 436.039062 214.433594 443.070312 216.550781 C 443.890625 216.792969 444.730469 216.960938 445.574219 217.007812 L 450.726562 217.394531 C 452.917969 217.5625 454.847656 218.71875 456.050781 220.574219 C 457.230469 222.476562 457.472656 224.714844 456.699219 226.785156 Z M 307.304688 281.160156 C 303.671875 280.558594 300.179688 279.328125 296.953125 277.5 C 296.566406 277.28125 296.277344 276.871094 296.179688 276.367188 C 295.097656 270.972656 290.378906 252.695312 275.640625 244.53125 C 266.03125 239.1875 254.113281 239.113281 240.242188 244.292969 C 239.953125 244.390625 239.714844 244.558594 239.496094 244.726562 L 239.160156 244.53125 C 233.089844 241.136719 225.503906 242.605469 221.554688 247.929688 C 219.050781 251.277344 218.355469 255.585938 219.484375 259.511719 C 216.089844 260.449219 213.226562 262.664062 211.46875 265.796875 C 209.734375 268.925781 209.347656 272.539062 210.335938 275.910156 C 206.941406 276.847656 204.074219 279.0625 202.339844 282.195312 C 200.605469 285.324219 200.222656 288.9375 201.207031 292.308594 C 196.34375 293.65625 192.589844 297.703125 191.671875 302.953125 C 190.710938 308.371094 193.480469 313.933594 198.558594 316.75 L 198.800781 316.871094 C 207.808594 321.902344 217.367188 326.164062 227.191406 329.535156 C 236.269531 332.644531 249.320312 337.410156 260.085938 342.46875 C 261.480469 343.140625 262.082031 346.25 262.613281 348.992188 C 263.070312 351.351562 263.527344 353.808594 264.613281 355.6875 C 266.273438 358.578125 269.234375 360.285156 272.582031 360.285156 C 272.605469 360.285156 272.628906 360.285156 272.65625 360.285156 C 276.027344 360.261719 278.988281 358.480469 280.625 355.542969 L 314.046875 295.078125 C 315.542969 292.378906 315.613281 289.128906 314.289062 286.382812 C 313.011719 283.617188 310.386719 281.664062 307.304688 281.160156 Z M 309.90625 292.742188 L 276.460938 353.183594 C 275.6875 354.578125 274.269531 355.421875 272.679688 355.445312 C 271.113281 355.421875 269.644531 354.652344 268.851562 353.253906 C 268.175781 352.074219 267.789062 350.027344 267.40625 348.054688 C 266.660156 344.175781 265.816406 339.792969 262.203125 338.085938 C 251.246094 332.933594 237.980469 328.089844 228.804688 324.960938 C 219.246094 321.6875 209.949219 317.542969 201.207031 312.65625 L 200.96875 312.511719 C 197.667969 310.683594 195.863281 307.140625 196.464844 303.746094 C 197.308594 298.953125 201.160156 296.714844 204.605469 296.59375 C 205.445312 296.570312 206.3125 296.039062 206.722656 295.320312 C 207.132812 294.570312 207.132812 293.585938 206.699219 292.839844 C 205.183594 290.214844 205.132812 287.082031 206.578125 284.507812 C 208.023438 281.929688 210.695312 280.316406 213.730469 280.21875 C 214.574219 280.195312 215.441406 279.667969 215.847656 278.945312 C 216.257812 278.199219 216.257812 277.210938 215.824219 276.464844 C 214.308594 273.839844 214.261719 270.707031 215.703125 268.132812 C 217.148438 265.554688 219.824219 263.941406 222.855469 263.84375 C 223.699219 263.820312 224.566406 263.316406 224.976562 262.570312 C 225.386719 261.824219 225.386719 260.835938 224.953125 260.089844 C 223.21875 257.101562 223.410156 253.539062 225.433594 250.816406 C 227.023438 248.675781 229.550781 247.542969 232.199219 247.542969 C 233.765625 247.542969 235.355469 247.929688 236.824219 248.746094 L 255.003906 258.859375 C 256.160156 259.511719 257.628906 259.101562 258.277344 257.921875 C 258.929688 256.765625 258.519531 255.296875 257.339844 254.648438 L 244.9375 247.734375 C 256.113281 244.148438 265.648438 244.484375 273.304688 248.722656 C 286.234375 255.898438 290.472656 272.417969 291.460938 277.304688 C 291.847656 279.183594 292.980469 280.773438 294.566406 281.664062 C 298.300781 283.785156 302.320312 285.203125 306.582031 285.902344 C 308.101562 286.144531 309.328125 287.082031 310.003906 288.457031 C 310.675781 289.851562 310.628906 291.394531 309.90625 292.742188 Z M 309.90625 292.742188 " fill-opacity="1" fill-rule="nonzero"/><path fill="#333333" d="M 360.210938 221.730469 C 360.019531 222.910156 358.984375 223.75 357.828125 223.75 C 357.707031 223.75 357.5625 223.75 357.417969 223.726562 L 249.5625 205.738281 C 249.226562 206.101562 248.765625 206.367188 248.261719 206.390625 L 242.167969 206.679688 C 241.542969 206.703125 240.964844 206.4375 240.578125 205.957031 L 238.125 202.851562 C 237.425781 201.960938 237.640625 200.683594 238.582031 200.058594 L 241.90625 197.914062 C 242.433594 197.578125 243.058594 197.503906 243.636719 197.746094 L 249.296875 199.984375 C 249.777344 200.175781 250.140625 200.5625 250.332031 201.019531 L 358.1875 219.007812 C 359.535156 219.175781 360.425781 220.40625 360.210938 221.730469 Z M 360.210938 221.730469 " fill-opacity="1" fill-rule="nonzero"/><path fill="#22a454" d="M 444.660156 236.175781 C 443.289062 244.339844 435.558594 249.878906 427.394531 248.507812 L 350.84375 235.742188 C 346.101562 234.949219 342.871094 230.445312 343.667969 225.703125 L 345.859375 212.578125 C 346.652344 207.835938 351.15625 204.609375 355.898438 205.402344 L 431.730469 218.042969 C 440.300781 219.488281 446.105469 227.605469 444.660156 236.175781 Z M 444.660156 236.175781 " fill-opacity="1" fill-rule="nonzero"/><path fill="#ffffff" d="M 338.007812 234.105469 L 350.265625 213.277344 C 353.105469 208.460938 359.367188 206.824219 364.207031 209.664062 C 367.433594 211.566406 369.191406 215.011719 369.167969 218.527344 C 372.226562 216.792969 376.105469 216.648438 379.332031 218.550781 C 382.558594 220.453125 384.316406 223.894531 384.289062 227.414062 C 387.347656 225.679688 391.226562 225.535156 394.453125 227.4375 C 397.679688 229.339844 399.4375 232.78125 399.414062 236.296875 C 402.472656 234.5625 406.347656 234.417969 409.574219 236.320312 C 414.390625 239.164062 416.027344 245.425781 413.1875 250.265625 L 400.929688 271.09375 C 398.089844 275.910156 391.828125 277.546875 386.988281 274.707031 C 383.761719 272.804688 382.003906 269.359375 382.027344 265.84375 C 378.96875 267.578125 375.09375 267.722656 371.867188 265.820312 C 368.640625 263.917969 366.882812 260.472656 366.90625 256.957031 C 363.847656 258.691406 359.96875 258.835938 356.742188 256.933594 C 353.515625 255.03125 351.757812 251.589844 351.78125 248.074219 C 348.722656 249.808594 344.847656 249.953125 341.621094 248.050781 C 336.78125 245.183594 335.167969 238.921875 338.007812 234.105469 Z M 338.007812 234.105469 " fill-opacity="1" fill-rule="nonzero"/><path fill="#333333" d="M 416.605469 241.980469 C 415.765625 238.730469 413.691406 235.984375 410.828125 234.273438 C 407.984375 232.589844 404.589844 232.15625 401.410156 232.949219 C 400.570312 229.796875 398.546875 227.027344 395.679688 225.367188 C 392.839844 223.703125 389.445312 223.246094 386.265625 224.039062 C 385.421875 220.886719 383.398438 218.117188 380.535156 216.457031 C 377.691406 214.769531 374.296875 214.335938 371.117188 215.132812 C 370.277344 211.976562 368.253906 209.207031 365.386719 207.546875 C 362.5 205.859375 359.128906 205.378906 355.851562 206.222656 C 352.601562 207.0625 349.855469 209.136719 348.144531 212 L 335.890625 232.832031 C 334.179688 235.71875 333.722656 239.113281 334.566406 242.367188 C 335.40625 245.617188 337.480469 248.363281 340.34375 250.070312 C 343.1875 251.757812 346.582031 252.191406 349.761719 251.394531 C 350.601562 254.550781 352.625 257.296875 355.492188 258.980469 C 358.355469 260.667969 361.726562 261.101562 364.90625 260.304688 C 365.75 263.460938 367.773438 266.207031 370.636719 267.890625 C 373.480469 269.550781 376.875 270.011719 380.054688 269.214844 C 380.894531 272.371094 382.917969 275.113281 385.785156 276.800781 C 387.78125 277.980469 389.972656 278.535156 392.140625 278.535156 C 396.453125 278.535156 400.664062 276.320312 403 272.320312 L 415.257812 251.492188 C 416.96875 248.625 417.449219 245.230469 416.605469 241.980469 Z M 411.117188 249.085938 L 398.859375 269.914062 C 397.800781 271.695312 396.113281 272.972656 394.117188 273.476562 C 392.09375 274.007812 389.996094 273.71875 388.238281 272.660156 C 385.878906 271.285156 384.433594 268.6875 384.460938 265.890625 C 384.460938 265.027344 384.003906 264.230469 383.28125 263.796875 C 382.894531 263.582031 382.484375 263.460938 382.050781 263.460938 C 381.640625 263.460938 381.234375 263.554688 380.871094 263.773438 C 378.4375 265.144531 375.453125 265.144531 373.117188 263.773438 C 370.757812 262.402344 369.3125 259.800781 369.335938 257.007812 C 369.335938 256.140625 368.878906 255.34375 368.15625 254.910156 C 367.410156 254.476562 366.496094 254.453125 365.75 254.886719 C 363.316406 256.261719 360.332031 256.261719 357.996094 254.886719 C 355.636719 253.515625 354.191406 250.914062 354.214844 248.121094 C 354.214844 247.253906 353.757812 246.460938 353.035156 246.027344 C 352.289062 245.59375 351.375 245.59375 350.625 246.003906 C 348.195312 247.375 345.207031 247.375 342.871094 246.003906 C 341.089844 244.941406 339.816406 243.257812 339.308594 241.257812 C 338.777344 239.234375 339.066406 237.140625 340.128906 235.382812 L 352.382812 214.554688 C 353.445312 212.769531 355.128906 211.496094 357.128906 210.988281 C 359.152344 210.460938 361.246094 210.75 363.027344 211.808594 C 365.195312 213.085938 366.59375 215.421875 366.761719 217.996094 L 355.949219 235.742188 C 355.25 236.875 355.613281 238.367188 356.742188 239.042969 C 357.128906 239.285156 357.5625 239.402344 357.996094 239.402344 C 358.8125 239.402344 359.609375 238.996094 360.042969 238.25 L 370.855469 220.5 C 373.191406 219.371094 375.933594 219.417969 378.152344 220.695312 C 380.339844 221.992188 381.738281 224.328125 381.90625 226.90625 L 371.503906 245.425781 C 370.855469 246.578125 371.261719 248.050781 372.417969 248.699219 C 372.78125 248.914062 373.191406 249.011719 373.597656 249.011719 C 374.441406 249.011719 375.261719 248.578125 375.695312 247.785156 L 386.046875 229.363281 C 388.382812 228.253906 391.105469 228.304688 393.296875 229.578125 C 395.488281 230.878906 396.886719 233.238281 397.054688 235.816406 L 386.578125 255.03125 C 385.953125 256.1875 386.386719 257.65625 387.542969 258.308594 C 387.902344 258.5 388.3125 258.597656 388.699219 258.597656 C 389.539062 258.597656 390.382812 258.136719 390.816406 257.34375 L 401.21875 238.25 C 403.554688 237.140625 406.253906 237.1875 408.445312 238.464844 C 410.226562 239.523438 411.5 241.210938 412.007812 243.207031 C 412.464844 245.207031 412.175781 247.300781 411.117188 249.085938 Z M 411.117188 249.085938 " fill-opacity="1" fill-rule="nonzero"/></svg>