<svg xmlns="http://www.w3.org/2000/svg" xmlns:xlink="http://www.w3.org/1999/xlink" width="1080" zoomAndPan="magnify" viewBox="0 0 810 1439.999935" height="1920" preserveAspectRatio="xMidYMid meet" version="1.0"><defs><clipPath id="473d3b6c21"><path d="M 12 264 L 810 264 L 810 1181.863281 L 12 1181.863281 Z M 12 264 " clip-rule="nonzero"/></clipPath><clipPath id="07b44be747"><path d="M 97 776 L 659 776 L 659 1181.863281 L 97 1181.863281 Z M 97 776 " clip-rule="nonzero"/></clipPath></defs><g clip-path="url(#473d3b6c21)"><path fill="#22a454" d="M 788.425781 586.597656 L 622.816406 510.246094 C 623.332031 509.367188 623.652344 508.332031 623.691406 507.214844 C 623.8125 503.308594 620.640625 498.941406 613.300781 498.023438 C 612.902344 497.945312 611.488281 497.726562 609.453125 497.824219 C 608.21875 494.976562 605.085938 492.421875 599.683594 491.746094 C 599.34375 491.6875 598.265625 491.507812 596.691406 491.527344 C 595.296875 488.914062 592.265625 486.640625 587.21875 486.003906 C 586.882812 485.945312 585.804688 485.765625 584.230469 485.785156 C 582.832031 483.171875 579.800781 480.902344 574.757812 480.261719 C 573.898438 480.105469 568.59375 479.285156 562.214844 482.316406 L 469.390625 439.515625 C 469.410156 439.015625 469.429688 438.519531 469.429688 438.019531 L 469.429688 387.644531 C 473.296875 387.425781 477.1875 387.125 481.054688 386.765625 L 485.78125 386.328125 C 489.628906 385.96875 490.945312 381.027344 487.792969 378.792969 L 469.667969 365.976562 C 466.339844 340.417969 444.523438 320.683594 418.0625 320.683594 L 403.003906 320.683594 C 374.230469 320.683594 350.921875 343.988281 350.921875 372.753906 C 350.921875 372.753906 349.921875 377.257812 349.34375 384.136719 L 192.429688 311.792969 L 192.089844 311.632812 C 191.691406 311.09375 191.171875 310.636719 190.554688 310.316406 L 160.484375 294.925781 C 160.285156 294.828125 160.046875 294.726562 159.804688 294.648438 C 159.726562 294.609375 159.667969 294.566406 159.628906 294.546875 C 157.992188 293.789062 156.058594 293.710938 154.34375 294.347656 C 153.945312 294.507812 153.546875 294.707031 153.167969 294.925781 C 152.746094 295.1875 152.367188 295.464844 152.089844 295.722656 C 151.730469 296.0625 151.410156 296.402344 151.171875 296.742188 C 150.632812 297.476562 150.253906 298.296875 150.054688 299.132812 C 149.9375 299.570312 149.875 300.050781 149.855469 300.46875 C 149.855469 300.46875 149.855469 300.488281 149.855469 300.488281 C 147.640625 300.507812 145.507812 301.585938 144.191406 303.578125 C 143.054688 305.292969 142.777344 307.304688 143.277344 309.140625 C 141.402344 309.398438 139.644531 310.4375 138.488281 312.152344 C 137.351562 313.863281 137.09375 315.878906 137.574219 317.710938 C 135.699219 317.972656 133.941406 319.007812 132.804688 320.722656 C 131.667969 322.4375 131.390625 324.449219 131.890625 326.285156 C 130.015625 326.542969 128.261719 327.582031 127.125 329.292969 C 125.988281 331.007812 125.707031 333.023438 126.207031 334.855469 C 124.332031 335.117188 122.578125 336.171875 121.441406 337.886719 C 120.304688 339.601562 120.042969 341.613281 120.523438 343.449219 C 118.648438 343.707031 116.894531 344.746094 115.757812 346.480469 C 114.640625 348.171875 114.359375 350.207031 114.859375 352.039062 C 112.964844 352.300781 111.210938 353.335938 110.054688 355.070312 C 108.917969 356.785156 108.65625 358.796875 109.15625 360.632812 C 107.363281 360.890625 105.707031 361.847656 104.570312 363.421875 L 95.558594 353.15625 C 95.855469 353.15625 96.136719 353.15625 96.433594 353.117188 C 96.894531 353.058594 97.292969 352.957031 97.769531 352.777344 C 99.464844 352.160156 100.859375 350.84375 101.640625 349.191406 C 102.296875 347.773438 102.4375 346.160156 102.058594 344.605469 C 103.933594 344.34375 105.667969 343.308594 106.785156 341.632812 C 106.984375 341.335938 107.164062 340.996094 107.320312 340.675781 C 108 339.203125 108.121094 337.585938 107.722656 336.113281 C 109.574219 335.851562 111.332031 334.816406 112.445312 333.121094 C 112.644531 332.804688 112.824219 332.503906 112.984375 332.164062 C 113.664062 330.691406 113.78125 329.074219 113.382812 327.601562 C 115.257812 327.320312 117.011719 326.285156 118.167969 324.550781 C 118.347656 324.269531 118.507812 323.972656 118.648438 323.671875 C 119.328125 322.199219 119.445312 320.582031 119.066406 319.109375 C 120.921875 318.847656 122.65625 317.8125 123.792969 316.117188 C 123.992188 315.820312 124.171875 315.5 124.332031 315.179688 C 125.007812 313.683594 125.128906 312.070312 124.75 310.574219 C 126.625 310.296875 128.359375 309.28125 129.476562 307.605469 C 129.675781 307.285156 129.855469 306.988281 129.996094 306.667969 C 130.671875 305.191406 130.792969 303.578125 130.414062 302.082031 C 132.269531 301.804688 134.023438 300.789062 135.140625 299.113281 C 135.339844 298.8125 135.519531 298.496094 135.679688 298.15625 C 136.355469 296.660156 136.476562 295.066406 136.097656 293.570312 C 136.554688 293.511719 136.992188 293.410156 137.472656 293.230469 C 137.890625 293.074219 138.289062 292.875 138.628906 292.671875 C 139.027344 292.433594 139.445312 292.136719 139.746094 291.835938 C 140.105469 291.519531 140.425781 291.160156 140.644531 290.839844 C 140.921875 290.480469 141.140625 290.082031 141.359375 289.644531 C 141.5625 289.207031 141.71875 288.746094 141.800781 288.40625 C 141.898438 287.988281 141.980469 287.550781 142 287.09375 C 142.039062 286.632812 142 286.15625 141.917969 285.675781 C 141.839844 285.238281 141.738281 284.800781 141.582031 284.402344 C 141.421875 283.960938 141.203125 283.523438 140.960938 283.125 C 140.742188 282.785156 140.484375 282.425781 140.203125 282.128906 C 140.003906 281.890625 139.765625 281.691406 139.527344 281.488281 C 139.347656 281.230469 139.109375 281.011719 138.808594 280.851562 L 110.671875 265.921875 C 109.753906 265.421875 108.617188 265.722656 108.058594 266.597656 L 107.898438 266.839844 C 77.230469 258.945312 44.367188 273.796875 30.628906 303.558594 L 20.859375 324.75 C 0.0585938 369.84375 19.742188 423.230469 64.828125 444.019531 L 96.472656 458.613281 C 94.71875 478.628906 100.582031 498.203125 113.164062 513.972656 C 126.144531 530.242188 144.691406 540.488281 165.371094 542.800781 C 189.957031 545.570312 213.726562 536.578125 230.199219 519.496094 C 231.554688 522.046875 233.6875 524.199219 236.5 525.496094 L 243.160156 528.566406 C 244.695312 529.285156 246.308594 529.664062 247.925781 529.761719 L 247.546875 530.578125 L 257.179688 535.023438 C 233.148438 563.433594 210.617188 600.273438 199.96875 622.621094 C 171.96875 681.410156 151.011719 736.050781 140.664062 764.476562 C 139.964844 764.21875 139.148438 764.359375 138.589844 764.917969 C 137.8125 765.695312 137.8125 766.949219 138.589844 767.726562 C 138.667969 767.808594 138.910156 768.046875 139.246094 768.363281 C 137.234375 773.96875 135.699219 778.3125 134.722656 781.105469 C 133.902344 783.496094 134.460938 786.148438 136.175781 788.019531 C 136.972656 788.878906 137.792969 789.714844 138.609375 790.53125 C 119.046875 803.113281 101.480469 821.234375 97.769531 842.902344 C 96.414062 850.777344 97.332031 856.078125 100.523438 858.691406 C 102.398438 860.226562 104.589844 860.445312 106.265625 860.304688 C 106.964844 871.070312 109.65625 877.730469 114.261719 880.082031 C 116.875 881.417969 119.464844 881.058594 121.261719 880.480469 C 123.234375 887.558594 126.246094 891.625 130.234375 892.582031 C 133.605469 893.398438 136.753906 891.761719 138.910156 890.109375 C 140.742188 897.722656 145.390625 901.210938 149.65625 901.253906 C 149.675781 901.253906 149.695312 901.253906 149.738281 901.253906 C 154.28125 901.253906 160.007812 897.367188 161.320312 886.382812 C 162.757812 874.441406 169.875 863.15625 173.90625 857.554688 C 176.117188 870.414062 181.082031 878.746094 187.84375 880.699219 C 192.230469 881.957031 196.65625 880.28125 200.007812 876.074219 C 204.613281 870.273438 203.4375 864.910156 201.960938 858.09375 C 200.886719 853.167969 199.570312 847.050781 200.167969 838.976562 C 201.042969 827.015625 199.609375 819.578125 198.332031 815.511719 C 199.667969 815.652344 200.90625 815.75 201.980469 815.832031 C 205.074219 816.050781 207.925781 814.214844 208.960938 811.285156 C 209.9375 808.554688 211.535156 804.40625 214.125 798.269531 C 214.363281 798.289062 214.585938 798.308594 214.824219 798.328125 C 214.863281 798.328125 214.902344 798.328125 214.964844 798.328125 C 216 798.328125 216.878906 797.511719 216.957031 796.453125 C 217.015625 795.597656 216.5 794.839844 215.742188 794.519531 C 217.855469 789.675781 220.488281 783.796875 223.777344 776.699219 C 237.617188 746.875 278.773438 692.671875 286.371094 682.765625 C 286.371094 682.765625 286.371094 682.785156 286.390625 682.785156 C 286.75 683.0625 287.167969 683.183594 287.585938 683.183594 C 287.789062 683.183594 287.964844 683.101562 288.167969 683.042969 C 290 689.183594 291.238281 696.898438 292.054688 705.132812 C 293.449219 719.027344 293.410156 732.980469 292.132812 746.835938 C 291.894531 747.09375 291.714844 747.414062 291.636719 747.792969 C 291.554688 748.269531 291.675781 748.730469 291.894531 749.109375 C 290.519531 762.605469 287.945312 776 284.316406 789.136719 C 271.058594 837.203125 278.015625 874.398438 255.664062 908.371094 C 233.070312 942.679688 174.464844 976.507812 158.988281 985.039062 C 157.453125 985.898438 156.335938 987.292969 155.796875 988.886719 C 143.675781 987.433594 128.179688 986.972656 109.316406 989.046875 C 102.476562 989.804688 97.628906 996.105469 98.566406 1002.921875 L 120.421875 1161.105469 C 121.480469 1168.800781 129.296875 1173.527344 136.65625 1171.015625 C 149.976562 1166.46875 168.300781 1154.347656 172.609375 1122.09375 C 175.957031 1096.914062 182.058594 1078.59375 187.464844 1066.355469 C 190.613281 1069.941406 193.425781 1072.792969 195.601562 1074.828125 C 197.933594 1077.019531 201.464844 1077.300781 204.136719 1075.546875 C 227.804688 1059.835938 326.472656 1015.980469 363.621094 986.414062 C 399.117188 958.128906 412.238281 910.402344 414.769531 899.9375 C 442.726562 920.75 473.378906 946.882812 483.726562 968.054688 C 484.066406 968.773438 484.785156 969.171875 485.519531 969.171875 C 485.820312 969.171875 486.121094 969.113281 486.398438 968.972656 C 486.4375 968.953125 486.457031 968.933594 486.476562 968.914062 C 488.953125 973.417969 491.203125 978.101562 493.277344 983.007812 C 504.882812 1010.457031 486.277344 1080.867188 479.777344 1103.472656 C 478.78125 1106.902344 480.574219 1110.410156 483.726562 1111.726562 C 479.320312 1124.40625 474.851562 1143.34375 474.136719 1168.980469 C 473.957031 1175.859375 479.519531 1181.519531 486.417969 1181.519531 L 646.164062 1181.519531 C 653.921875 1181.519531 659.683594 1174.421875 658.191406 1166.808594 C 655.496094 1152.992188 646.007812 1133.199219 614.617188 1124.527344 C 599.882812 1120.457031 587.757812 1115.734375 577.949219 1111.109375 C 580.121094 1110.113281 581.675781 1108.039062 581.976562 1105.585938 C 586.382812 1068.03125 616.734375 1017.117188 614.121094 953.183594 C 611.410156 886.320312 535.035156 820.835938 525.882812 787.582031 C 524.765625 783.554688 523.925781 778.730469 523.308594 773.367188 C 523.328125 773.367188 523.367188 773.367188 523.367188 773.367188 C 524.425781 773.210938 525.183594 772.273438 525.085938 771.195312 C 522.433594 743.84375 524.207031 701.800781 526.519531 667.714844 C 547.9375 699.351562 616.394531 715.238281 639.945312 670.203125 C 651.371094 648.316406 648.160156 621.882812 641.777344 600.351562 L 757.554688 653.71875 C 762.480469 655.992188 767.726562 657.148438 773.007812 657.148438 C 777.316406 657.148438 781.644531 656.390625 785.8125 654.835938 C 795.0625 651.425781 802.441406 644.609375 806.589844 635.636719 C 808.863281 630.734375 810 625.53125 810 620.1875 C 809.921875 605.773438 801.484375 592.597656 788.425781 586.597656 Z M 781.164062 624.292969 C 779.410156 627.980469 776.320312 630.792969 772.429688 632.1875 C 768.542969 633.582031 764.375 633.382812 760.6875 631.648438 L 728.28125 616.359375 C 724.574219 614.605469 721.78125 611.515625 720.386719 607.628906 C 718.988281 603.742188 719.1875 599.574219 720.925781 595.886719 C 723.554688 590.324219 729.078125 587.074219 734.863281 587.074219 C 737.054688 587.074219 739.289062 587.554688 741.402344 588.550781 L 773.808594 603.839844 C 777.515625 605.59375 780.308594 608.683594 781.703125 612.574219 C 783.101562 616.441406 782.898438 620.605469 781.164062 624.292969 Z M 781.164062 624.292969 " fill-opacity="1" fill-rule="nonzero"/></g><path fill="#22a454" d="M 467.933594 412.582031 L 467.933594 539.828125 L 354.390625 539.828125 L 354.390625 419.363281 L 396.007812 331.785156 L 467.234375 377.058594 Z M 256.460938 477.792969 L 258.894531 534.488281 L 259.492188 545.589844 L 344.679688 561.878906 L 354.390625 498.523438 L 305.296875 459.070312 Z M 256.460938 477.792969 " fill-opacity="1" fill-rule="nonzero"/><path fill="#ffffff" d="M 198.433594 874.839844 C 191.273438 883.847656 178.210938 879.601562 175.222656 852.589844 C 175.222656 852.589844 161.441406 868.480469 159.328125 886.121094 C 157.214844 903.765625 142.019531 903.425781 140.265625 886.121094 C 140.265625 886.121094 127.902344 900.953125 122.617188 877.648438 C 122.617188 877.648438 109.195312 886.660156 108.140625 857.875 C 108.140625 857.875 96.472656 862.359375 99.746094 843.222656 C 104.371094 816.210938 132.148438 793.621094 159.328125 781.621094 C 186.507812 769.621094 196.058594 797.867188 194.980469 812.679688 C 194.980469 812.679688 199.570312 819.738281 198.152344 838.796875 C 196.738281 857.855469 205.589844 865.847656 198.433594 874.839844 Z M 198.433594 874.839844 " fill-opacity="1" fill-rule="nonzero"/><g clip-path="url(#07b44be747)"><path fill="#000000" d="M 197.175781 1042.035156 C 197.792969 1045.144531 197.195312 1048.355469 195.5 1051.023438 C 190.058594 1059.515625 177.894531 1082.261719 172.589844 1122.09375 C 168.28125 1154.347656 149.957031 1166.46875 136.636719 1171.015625 C 129.296875 1173.527344 121.480469 1168.800781 120.402344 1161.105469 L 98.546875 1002.941406 C 97.609375 996.125 102.457031 989.824219 109.296875 989.066406 C 146.425781 984.980469 170.554688 990.742188 181.480469 994.449219 C 185.609375 995.84375 188.660156 999.375 189.519531 1003.640625 Z M 658.148438 1166.808594 C 655.457031 1152.992188 645.964844 1133.199219 614.578125 1124.527344 C 575.832031 1113.820312 554.957031 1098.648438 547.277344 1092.109375 C 544.867188 1090.058594 541.753906 1089.019531 538.605469 1089.21875 L 499.519531 1091.574219 C 495.171875 1091.832031 491.265625 1094.363281 489.308594 1098.269531 C 484.144531 1108.578125 475.132812 1131.683594 474.09375 1169.019531 C 473.914062 1175.898438 479.480469 1181.558594 486.378906 1181.558594 L 646.125 1181.558594 C 653.882812 1181.519531 659.625 1174.441406 658.148438 1166.808594 Z M 201.941406 858.09375 C 203.417969 864.910156 204.59375 870.273438 199.988281 876.074219 C 196.636719 880.28125 192.210938 881.957031 187.824219 880.699219 C 181.0625 878.746094 176.097656 870.414062 173.886719 857.554688 C 169.835938 863.136719 162.71875 874.417969 161.300781 886.382812 C 159.984375 897.363281 154.261719 901.253906 149.714844 901.253906 C 149.695312 901.253906 149.675781 901.253906 149.636719 901.253906 C 145.371094 901.210938 140.722656 897.722656 138.886719 890.109375 C 136.714844 891.742188 133.5625 893.398438 130.214844 892.582031 C 126.226562 891.625 123.214844 887.558594 121.242188 880.480469 C 119.425781 881.078125 116.855469 881.417969 114.242188 880.082031 C 109.636719 877.730469 106.941406 871.089844 106.246094 860.304688 C 104.570312 860.445312 102.375 860.226562 100.503906 858.691406 C 97.332031 856.097656 96.414062 850.777344 97.75 842.902344 C 102.714844 813.976562 132.386719 791.351562 158.492188 779.828125 C 170.8125 774.386719 179.089844 777.257812 183.855469 780.605469 C 194.363281 788 197.433594 803.332031 196.976562 812.261719 C 198.09375 814.433594 201.34375 822.371094 200.105469 838.996094 C 199.546875 847.050781 200.886719 853.167969 201.941406 858.09375 Z M 198.054688 858.949219 C 196.9375 853.785156 195.539062 847.347656 196.179688 838.695312 C 197.515625 820.753906 193.347656 813.855469 193.308594 813.796875 C 193.085938 813.4375 192.96875 813 193.007812 812.582031 C 193.6875 803.03125 189.917969 789.714844 181.601562 783.875 C 175.878906 779.847656 168.660156 779.726562 160.125 783.496094 C 134.960938 794.601562 106.40625 816.230469 101.699219 843.601562 C 100.261719 851.914062 101.917969 854.683594 103.015625 855.621094 C 104.011719 856.457031 105.347656 856.457031 106.285156 856.320312 C 108.300781 836.402344 122.914062 823.046875 123.554688 822.46875 C 124.371094 821.730469 125.628906 821.8125 126.367188 822.628906 C 127.101562 823.445312 127.023438 824.703125 126.207031 825.4375 C 126.066406 825.578125 111.429688 838.933594 110.09375 857.972656 C 110.613281 871.769531 114.042969 875.535156 116.035156 876.554688 C 117.75 877.429688 119.566406 876.910156 120.601562 876.472656 C 120.464844 847.964844 134.742188 832.976562 135.378906 832.355469 C 136.15625 831.578125 137.414062 831.558594 138.191406 832.335938 C 138.96875 833.09375 138.988281 834.371094 138.230469 835.148438 C 138.089844 835.289062 124.113281 850 124.589844 877.46875 C 126.125 884.089844 128.4375 888.074219 131.152344 888.734375 C 133.785156 889.351562 136.914062 886.820312 138.289062 885.382812 C 139.085938 859.746094 153.367188 838.796875 153.984375 837.917969 C 154.601562 837 155.859375 836.78125 156.753906 837.421875 C 157.652344 838.039062 157.890625 839.292969 157.253906 840.191406 C 157.113281 840.410156 142.816406 861.402344 142.257812 886.101562 C 143.074219 893.757812 146.664062 897.285156 149.695312 897.304688 C 149.714844 897.304688 149.714844 897.304688 149.734375 897.304688 C 152.867188 897.304688 156.417969 893.796875 157.355469 885.960938 C 159.527344 867.921875 173.148438 852.03125 173.726562 851.355469 C 174.242188 850.757812 175.0625 850.519531 175.820312 850.757812 C 176.578125 850.996094 177.113281 851.652344 177.214844 852.429688 C 179.46875 872.664062 186.765625 876.292969 188.960938 876.910156 C 191.730469 877.710938 194.625 876.511719 196.898438 873.640625 C 200.285156 869.277344 199.449219 865.390625 198.054688 858.949219 Z M 198.054688 858.949219 " fill-opacity="1" fill-rule="nonzero"/></g><path fill="#22a454" d="M 639.863281 670.183594 C 616.09375 715.65625 546.519531 699.03125 525.820312 666.796875 C 525.820312 666.796875 516.648438 754.332031 525.820312 787.582031 C 534.976562 820.835938 611.347656 886.320312 614.058594 953.183594 C 616.671875 1017.117188 586.324219 1068.03125 581.914062 1105.585938 C 581.558594 1108.617188 579.304688 1111.089844 576.292969 1111.628906 C 562.671875 1114.078125 524.246094 1119.5625 485.082031 1112.164062 C 481.09375 1111.429688 478.601562 1107.402344 479.738281 1103.492188 C 486.238281 1080.886719 504.84375 1010.476562 493.238281 983.027344 C 479.320312 950.113281 457.644531 927.726562 415.210938 897.863281 C 415.210938 897.863281 403.625 954.539062 363.582031 986.433594 C 326.433594 1016 227.765625 1059.855469 204.09375 1075.566406 C 201.421875 1077.320312 197.894531 1077.039062 195.558594 1074.847656 C 185.011719 1064.917969 158.847656 1036.074219 155.4375 991.636719 C 155.238281 988.945312 156.597656 986.375 158.96875 985.058594 C 174.441406 976.527344 233.050781 942.699219 255.640625 908.390625 C 277.996094 874.421875 271.035156 837.222656 284.296875 789.15625 C 291.835938 761.804688 294.847656 733.359375 292.015625 705.152344 C 291.117188 696.082031 289.703125 687.609375 287.546875 681.210938 C 287.546875 681.210938 239.011719 743.804688 223.738281 776.71875 C 214.824219 795.933594 210.753906 806.140625 208.921875 811.304688 C 207.882812 814.234375 205.03125 816.070312 201.941406 815.851562 C 189.101562 814.933594 156.695312 810.367188 136.175781 788.042969 C 134.460938 786.167969 133.902344 783.515625 134.722656 781.125 C 140.402344 764.738281 164.550781 696.957031 199.96875 622.621094 C 210.796875 599.894531 233.925781 562.117188 258.433594 533.53125 C 271.15625 518.679688 284.257812 506.316406 296.203125 499.800781 C 298.792969 498.382812 302.445312 495.335938 306.910156 494.976562 C 309.023438 494.796875 311.316406 495.253906 313.75 496.769531 L 319.851562 499.582031 C 338.894531 508.332031 361.726562 499.960938 370.601562 480.980469 L 370.640625 480.921875 C 372.277344 477.390625 376.503906 475.859375 380.035156 477.472656 L 640.941406 597.78125 C 647.820312 619.75 651.75 647.4375 639.863281 670.183594 Z M 231.074219 421.933594 C 239.332031 404.210938 241.324219 385.171875 237.953125 367.332031 C 233.167969 341.953125 203.21875 330.570312 182.539062 346.019531 L 126.246094 388.101562 L 88.296875 344.921875 L 92.226562 294.925781 L 110.632812 267.617188 C 79.226562 258.066406 44.765625 272.898438 30.628906 303.558594 L 20.859375 324.75 C 0.0585938 369.84375 19.742188 423.230469 64.828125 444.019531 L 110.574219 465.113281 C 155.796875 485.964844 210.058594 467.066406 231.074219 421.933594 Z M 231.074219 421.933594 " fill-opacity="1" fill-rule="nonzero"/><path fill="#000000" d="M 586.421875 668.171875 C 586.101562 668.351562 585.765625 668.429688 585.425781 668.429688 C 584.726562 668.429688 584.070312 668.070312 583.691406 667.433594 C 556.410156 620.289062 566.382812 556.316406 566.5 555.675781 C 566.679688 554.601562 567.679688 553.84375 568.792969 554.023438 C 569.871094 554.203125 570.628906 555.21875 570.449219 556.316406 C 570.351562 556.933594 560.597656 619.550781 587.160156 665.441406 C 587.699219 666.398438 587.359375 667.613281 586.421875 668.171875 Z M 586.421875 668.171875 " fill-opacity="1" fill-rule="nonzero"/><path fill="#ffffff" d="M 787.585938 588.410156 L 191.59375 313.605469 L 167.644531 349.707031 L 146.507812 381.5625 L 137.730469 394.78125 L 107.402344 379.050781 L 98.628906 456.898438 C 93.941406 498.5625 123.914062 536.140625 165.589844 540.824219 C 198.949219 544.59375 229.71875 526.113281 243.058594 497.207031 C 246.371094 490.03125 248.601562 482.195312 249.539062 473.902344 L 250.257812 467.484375 L 313.75 496.769531 L 319.992188 499.640625 C 339.054688 508.410156 361.828125 500.019531 370.601562 480.980469 C 371.640625 478.769531 372.417969 476.496094 372.976562 474.222656 L 640.941406 597.78125 L 758.3125 651.882812 C 775.839844 659.976562 796.621094 652.304688 804.695312 634.78125 C 806.890625 630.035156 807.925781 625.050781 807.925781 620.167969 C 807.925781 606.949219 800.386719 594.292969 787.585938 588.410156 Z M 782.960938 625.152344 C 778.871094 633.804688 768.464844 637.53125 759.828125 633.445312 L 727.425781 618.152344 C 718.769531 614.066406 715.042969 603.660156 719.128906 595.03125 C 723.21875 586.398438 733.625 582.648438 742.261719 586.738281 L 774.664062 602.027344 C 783.300781 606.09375 787.046875 616.519531 782.960938 625.152344 Z M 782.960938 625.152344 " fill-opacity="1" fill-rule="nonzero"/><path fill="#000000" d="M 767.1875 637.113281 C 764.375 637.113281 761.582031 636.496094 758.972656 635.257812 L 726.566406 619.96875 C 721.902344 617.777344 718.371094 613.867188 716.617188 608.984375 C 714.863281 604.101562 715.121094 598.835938 717.316406 594.191406 C 721.882812 584.542969 733.445312 580.378906 743.097656 584.941406 L 775.503906 600.234375 C 780.167969 602.425781 783.699219 606.332031 785.453125 611.214844 C 787.207031 616.101562 786.949219 621.363281 784.753906 626.007812 C 782.5625 630.671875 778.652344 634.203125 773.765625 635.957031 C 771.632812 636.714844 769.398438 637.113281 767.1875 637.113281 Z M 734.863281 587.074219 C 729.078125 587.074219 723.554688 590.34375 720.925781 595.886719 C 719.167969 599.574219 718.988281 603.761719 720.386719 607.628906 C 721.78125 611.496094 724.574219 614.605469 728.28125 616.359375 L 760.6875 631.648438 C 764.394531 633.40625 768.5625 633.582031 772.429688 632.1875 C 776.320312 630.792969 779.410156 628.003906 781.164062 624.292969 C 782.921875 620.605469 783.101562 616.417969 781.703125 612.550781 C 780.308594 608.664062 777.515625 605.574219 773.808594 603.820312 L 741.402344 588.53125 C 739.289062 587.535156 737.054688 587.074219 734.863281 587.074219 Z M 772.929688 657.105469 C 767.664062 657.105469 762.402344 655.972656 757.476562 653.679688 L 640.101562 599.574219 L 374.269531 476.992188 C 373.753906 478.648438 373.132812 480.261719 372.417969 481.796875 C 363.164062 501.871094 339.273438 510.683594 319.175781 501.414062 L 251.953125 470.414062 L 251.535156 474.082031 C 250.597656 482.4375 248.363281 490.46875 244.875 498.003906 C 230.777344 528.566406 198.832031 546.546875 165.371094 542.757812 C 144.691406 540.425781 126.144531 530.199219 113.164062 513.933594 C 100.183594 497.667969 94.320312 477.3125 96.652344 456.640625 L 105.746094 375.902344 L 137.054688 392.148438 L 190.875 311.035156 L 192.429688 311.75 L 788.425781 586.558594 C 801.484375 592.558594 809.921875 605.734375 809.921875 620.128906 C 809.921875 625.46875 808.765625 630.671875 806.511719 635.578125 C 802.382812 644.527344 795.003906 651.347656 785.730469 654.773438 C 781.5625 656.351562 777.238281 657.105469 772.929688 657.105469 Z M 371.617188 471.390625 L 759.152344 650.070312 C 767.148438 653.757812 776.101562 654.117188 784.355469 651.066406 C 792.613281 648.015625 799.191406 641.9375 802.882812 633.941406 C 804.894531 629.558594 805.933594 624.933594 805.933594 620.167969 C 805.933594 607.328125 798.394531 595.566406 786.75 590.226562 L 192.308594 316.117188 L 138.410156 397.371094 L 109.058594 382.164062 L 100.601562 457.117188 C 96.054688 497.625 125.289062 534.289062 165.808594 538.832031 C 197.554688 542.402344 227.863281 525.355469 241.246094 496.351562 C 244.535156 489.214844 246.667969 481.578125 247.546875 473.664062 L 248.5625 464.496094 L 320.808594 497.804688 C 338.914062 506.140625 360.433594 498.203125 368.765625 480.125 C 369.703125 478.109375 370.460938 475.957031 371.019531 473.722656 Z M 371.617188 471.390625 " fill-opacity="1" fill-rule="nonzero"/><path fill="#22a454" d="M 221.246094 362.925781 L 186.847656 414.65625 L 181.242188 475.617188 C 179.765625 491.664062 165.429688 503.585938 149.378906 502.113281 C 133.324219 500.636719 121.398438 486.304688 122.875 470.253906 L 129.058594 402.855469 C 129.695312 395.996094 132.6875 389.898438 137.152344 385.253906 C 137.433594 384.65625 137.730469 384.078125 138.109375 383.519531 L 171.011719 335.714844 C 174.144531 331.167969 180.085938 329.535156 185.113281 331.847656 L 216.519531 346.339844 C 222.859375 349.269531 225.09375 357.125 221.246094 362.925781 Z M 221.246094 362.925781 " fill-opacity="1" fill-rule="nonzero"/><path fill="#ffffff" d="M 106.40625 381.207031 L 104.789062 380.367188 C 104.390625 380.167969 104.089844 379.871094 103.851562 379.511719 C 103.832031 379.492188 103.8125 379.492188 103.8125 379.472656 C 103.59375 379.230469 103.414062 378.972656 103.234375 378.714844 C 103.074219 378.433594 102.933594 378.136719 102.816406 377.855469 C 102.714844 377.558594 102.617188 377.238281 102.574219 376.917969 C 102.535156 376.601562 102.515625 376.28125 102.515625 375.960938 C 102.515625 375.644531 102.574219 375.324219 102.65625 375.003906 C 102.796875 374.386719 103.074219 373.789062 103.453125 373.292969 C 103.652344 373.03125 103.851562 372.792969 104.089844 372.574219 C 104.332031 372.355469 104.589844 372.175781 104.847656 371.996094 C 105.128906 371.816406 105.425781 371.695312 105.726562 371.578125 C 106.027344 371.457031 106.324219 371.398438 106.644531 371.335938 C 106.804688 371.316406 106.984375 371.316406 107.140625 371.316406 C 105.148438 369.761719 104.648438 366.933594 106.046875 364.800781 C 107.519531 362.585938 110.472656 361.96875 112.707031 363.363281 L 113.003906 362.90625 C 110.851562 361.390625 110.273438 358.441406 111.730469 356.226562 C 113.203125 354.015625 116.15625 353.394531 118.390625 354.792969 L 118.6875 354.332031 C 116.515625 352.816406 115.9375 349.867188 117.414062 347.65625 C 118.867188 345.441406 121.820312 344.824219 124.074219 346.21875 L 124.371094 345.761719 C 122.21875 344.246094 121.640625 341.296875 123.09375 339.082031 C 124.570312 336.871094 127.523438 336.25 129.753906 337.648438 L 130.054688 337.1875 C 127.902344 335.671875 127.324219 332.722656 128.777344 330.511719 C 130.234375 328.296875 133.183594 327.679688 135.4375 329.074219 L 135.757812 328.535156 C 133.605469 327.023438 133.007812 324.070312 134.480469 321.859375 C 135.9375 319.644531 138.886719 319.027344 141.140625 320.421875 L 141.441406 319.964844 C 139.289062 318.449219 138.710938 315.5 140.164062 313.285156 C 141.640625 311.074219 144.589844 310.457031 146.824219 311.851562 L 147.125 311.394531 C 144.96875 309.878906 144.390625 306.925781 145.847656 304.714844 C 147.304688 302.5 150.253906 301.882812 152.488281 303.257812 C 152.347656 303.019531 152.230469 302.761719 152.128906 302.5 C 152.03125 302.203125 151.949219 301.902344 151.890625 301.585938 C 151.832031 301.265625 151.808594 300.945312 151.832031 300.628906 C 151.832031 300.308594 151.871094 299.988281 151.96875 299.671875 C 152.109375 299.054688 152.386719 298.453125 152.765625 297.957031 C 152.945312 297.699219 153.167969 297.457031 153.40625 297.238281 C 153.625 297.019531 153.882812 296.820312 154.164062 296.660156 C 154.441406 296.5 154.722656 296.34375 155.019531 296.242188 C 156.21875 295.804688 157.59375 295.84375 158.769531 296.382812 C 158.847656 296.421875 158.929688 296.480469 158.988281 296.519531 C 159.167969 296.5625 159.367188 296.621094 159.546875 296.71875 L 189.617188 312.109375 C 190.972656 312.808594 191.414062 314.503906 190.574219 315.757812 L 166.644531 351.859375 L 145.507812 383.738281 L 137.992188 395.058594 C 137.273438 396.136719 135.859375 396.496094 134.699219 395.917969 Z M 90.292969 354.414062 L 92.886719 350.503906 C 93.023438 350.585938 93.164062 350.683594 93.324219 350.765625 C 93.621094 350.902344 93.921875 351.003906 94.242188 351.082031 C 94.539062 351.164062 94.859375 351.203125 95.179688 351.203125 C 95.496094 351.222656 95.816406 351.203125 96.136719 351.144531 C 96.472656 351.105469 96.753906 351.023438 97.074219 350.925781 C 98.269531 350.484375 99.285156 349.546875 99.824219 348.371094 C 100.363281 347.214844 100.421875 345.839844 99.984375 344.644531 C 99.863281 344.34375 99.722656 344.046875 99.566406 343.765625 C 99.386719 343.507812 99.207031 343.25 98.988281 343.011719 C 98.765625 342.769531 98.527344 342.570312 98.289062 342.371094 L 98.546875 341.972656 C 100.761719 343.328125 103.691406 342.710938 105.148438 340.519531 C 105.289062 340.296875 105.40625 340.078125 105.527344 339.839844 C 106.484375 337.746094 105.847656 335.234375 103.933594 333.859375 L 104.210938 333.460938 C 106.445312 334.835938 109.355469 334.21875 110.8125 332.027344 C 110.953125 331.804688 111.089844 331.585938 111.210938 331.347656 C 112.1875 329.253906 111.53125 326.722656 109.59375 325.347656 L 109.855469 324.949219 C 112.089844 326.34375 115.019531 325.726562 116.515625 323.535156 C 116.65625 323.3125 116.773438 323.09375 116.894531 322.855469 C 117.871094 320.742188 117.210938 318.191406 115.257812 316.835938 L 115.519531 316.4375 C 117.75 317.851562 120.722656 317.234375 122.199219 315.019531 C 122.335938 314.800781 122.476562 314.601562 122.578125 314.363281 C 123.554688 312.230469 122.894531 309.660156 120.921875 308.304688 L 121.179688 307.902344 C 123.414062 309.339844 126.40625 308.742188 127.882812 306.507812 C 128.019531 306.289062 128.140625 306.070312 128.261719 305.832031 C 129.257812 303.699219 128.558594 301.125 126.566406 299.769531 L 126.824219 299.371094 C 129.058594 300.847656 132.070312 300.230469 133.542969 297.996094 C 133.683594 297.777344 133.804688 297.558594 133.921875 297.320312 C 134.898438 295.1875 134.222656 292.574219 132.207031 291.238281 L 132.46875 290.839844 C 132.667969 290.980469 132.886719 291.117188 133.105469 291.21875 C 133.40625 291.359375 133.703125 291.457031 134.023438 291.539062 C 134.320312 291.617188 134.640625 291.65625 134.960938 291.65625 C 135.277344 291.675781 135.597656 291.65625 135.917969 291.597656 C 136.238281 291.558594 136.554688 291.476562 136.855469 291.359375 C 137.152344 291.257812 137.433594 291.097656 137.710938 290.917969 C 137.992188 290.761719 138.25 290.5625 138.46875 290.339844 C 138.710938 290.121094 138.929688 289.882812 139.109375 289.644531 C 139.308594 289.382812 139.464844 289.105469 139.605469 288.804688 C 139.746094 288.507812 139.84375 288.207031 139.90625 287.910156 C 139.984375 287.609375 140.023438 287.292969 140.046875 286.953125 C 140.066406 286.632812 140.046875 286.316406 139.984375 285.996094 C 139.925781 285.675781 139.867188 285.378906 139.746094 285.078125 C 139.644531 284.78125 139.488281 284.480469 139.328125 284.203125 C 139.148438 283.941406 138.96875 283.683594 138.75 283.445312 C 138.53125 283.203125 138.289062 283.003906 138.050781 282.804688 C 137.992188 282.765625 137.929688 282.726562 137.871094 282.6875 L 137.929688 282.585938 L 133.824219 280.453125 L 109.734375 267.695312 L 64.128906 338.722656 C 59.601562 345.78125 62.074219 355.230469 69.515625 359.136719 L 70.273438 359.535156 C 77.269531 363.222656 85.925781 361.011719 90.292969 354.414062 Z M 90.292969 354.414062 " fill-opacity="1" fill-rule="nonzero"/><path fill="#000000" d="M 192.847656 313.207031 C 192.53125 311.972656 191.671875 310.914062 190.535156 310.316406 L 160.464844 294.925781 C 160.265625 294.828125 160.027344 294.726562 159.785156 294.648438 C 159.707031 294.609375 159.648438 294.566406 159.605469 294.546875 C 157.972656 293.789062 156.039062 293.710938 154.324219 294.347656 C 153.925781 294.507812 153.523438 294.707031 153.144531 294.925781 C 152.726562 295.1875 152.347656 295.464844 152.070312 295.722656 C 151.710938 296.0625 151.390625 296.402344 151.152344 296.742188 C 150.613281 297.476562 150.234375 298.296875 150.035156 299.132812 C 149.914062 299.570312 149.855469 300.050781 149.835938 300.46875 C 149.835938 300.46875 149.835938 300.488281 149.835938 300.488281 C 147.621094 300.507812 145.488281 301.585938 144.171875 303.578125 C 143.035156 305.292969 142.757812 307.304688 143.253906 309.140625 C 141.382812 309.398438 139.625 310.4375 138.46875 312.152344 C 137.332031 313.863281 137.074219 315.878906 137.550781 317.710938 C 135.679688 317.972656 133.921875 319.007812 132.785156 320.722656 C 131.648438 322.4375 131.371094 324.449219 131.871094 326.285156 C 129.996094 326.542969 128.238281 327.582031 127.101562 329.292969 C 125.96875 331.007812 125.6875 333.023438 126.1875 334.855469 C 124.3125 335.117188 122.558594 336.171875 121.421875 337.886719 C 120.285156 339.601562 120.023438 341.613281 120.503906 343.449219 C 118.628906 343.707031 116.875 344.746094 115.738281 346.480469 C 114.621094 348.171875 114.339844 350.207031 114.839844 352.039062 C 112.945312 352.300781 111.191406 353.335938 110.035156 355.070312 C 108.898438 356.785156 108.636719 358.796875 109.136719 360.632812 C 107.261719 360.890625 105.507812 361.929688 104.351562 363.644531 C 103.015625 365.675781 102.875 368.148438 103.8125 370.222656 C 103.773438 370.242188 103.753906 370.261719 103.710938 370.28125 C 103.355469 370.5 103.015625 370.757812 102.714844 371.039062 C 102.375 371.335938 102.097656 371.675781 101.796875 372.054688 C 101.261719 372.792969 100.882812 373.609375 100.660156 374.527344 C 100.5625 374.964844 100.503906 375.40625 100.480469 375.863281 C 100.460938 376.28125 100.503906 376.699219 100.5625 377.199219 C 100.640625 377.636719 100.761719 378.074219 100.902344 378.472656 C 101.0625 378.894531 101.238281 379.292969 101.519531 379.75 C 101.738281 380.109375 101.996094 380.449219 102.277344 380.746094 C 102.277344 380.746094 102.277344 380.746094 102.296875 380.765625 C 102.714844 381.324219 103.234375 381.785156 103.832031 382.101562 L 105.449219 382.941406 L 133.765625 397.632812 C 134.421875 397.972656 135.140625 398.152344 135.859375 398.152344 C 137.332031 398.152344 138.769531 397.433594 139.625 396.117188 L 192.210938 316.816406 C 192.96875 315.777344 193.1875 314.441406 192.847656 313.207031 Z M 188.921875 314.640625 L 136.335938 393.945312 C 136.175781 394.164062 135.878906 394.261719 135.636719 394.125 L 107.320312 379.429688 L 105.707031 378.59375 C 105.6875 378.574219 105.605469 378.535156 105.507812 378.414062 C 105.449219 378.316406 105.367188 378.234375 105.308594 378.15625 C 105.289062 378.136719 105.269531 378.097656 105.226562 378.074219 C 105.109375 377.9375 105.007812 377.796875 104.949219 377.695312 C 104.847656 377.539062 104.769531 377.359375 104.691406 377.160156 C 104.628906 376.980469 104.570312 376.78125 104.550781 376.660156 C 104.53125 376.460938 104.511719 376.242188 104.511719 376.023438 C 104.511719 375.824219 104.550781 375.644531 104.589844 375.484375 C 104.667969 375.125 104.828125 374.785156 105.046875 374.488281 C 105.167969 374.328125 105.289062 374.1875 105.425781 374.050781 C 105.585938 373.910156 105.765625 373.789062 105.90625 373.691406 C 106.085938 373.570312 106.265625 373.511719 106.40625 373.449219 C 106.585938 373.390625 106.785156 373.351562 107.023438 373.3125 C 107.042969 373.3125 107.222656 373.3125 107.242188 373.3125 C 108.078125 373.269531 108.796875 372.714844 109.035156 371.914062 C 109.296875 371.117188 109.015625 370.261719 108.359375 369.742188 C 107.164062 368.804688 106.882812 367.132812 107.699219 365.894531 C 108.578125 364.578125 110.3125 364.199219 111.648438 365.039062 C 112.566406 365.617188 113.761719 365.355469 114.359375 364.441406 L 114.660156 363.980469 C 115.257812 363.085938 115.039062 361.867188 114.140625 361.25 C 112.84375 360.332031 112.507812 358.597656 113.363281 357.304688 C 114.242188 355.988281 115.976562 355.609375 117.3125 356.445312 C 118.230469 357.023438 119.425781 356.746094 120.023438 355.847656 L 120.324219 355.390625 C 120.921875 354.492188 120.683594 353.277344 119.804688 352.660156 C 118.527344 351.78125 118.191406 350.007812 119.066406 348.710938 C 119.925781 347.394531 121.660156 347.035156 123.015625 347.875 C 123.933594 348.433594 125.128906 348.171875 125.726562 347.277344 L 126.027344 346.816406 C 126.625 345.921875 126.386719 344.703125 125.507812 344.085938 C 124.210938 343.167969 123.871094 341.433594 124.730469 340.140625 C 125.609375 338.824219 127.34375 338.445312 128.679688 339.28125 C 129.597656 339.859375 130.792969 339.582031 131.390625 338.683594 L 131.691406 338.226562 C 132.289062 337.328125 132.046875 336.113281 131.171875 335.496094 C 129.875 334.578125 129.535156 332.84375 130.414062 331.546875 C 131.269531 330.230469 133.007812 329.871094 134.34375 330.691406 C 135.257812 331.269531 136.457031 330.988281 137.054688 330.09375 L 137.351562 329.632812 C 137.953125 328.738281 137.710938 327.519531 136.835938 326.902344 C 135.539062 325.984375 135.199219 324.25 136.078125 322.933594 C 136.933594 321.621094 138.667969 321.261719 140.003906 322.097656 C 140.921875 322.65625 142.117188 322.398438 142.71875 321.5 L 143.015625 321.042969 C 143.613281 320.144531 143.394531 318.929688 142.496094 318.308594 C 141.203125 317.394531 140.863281 315.660156 141.71875 314.363281 C 142.597656 313.046875 144.332031 312.667969 145.667969 313.507812 C 146.585938 314.0625 147.78125 313.804688 148.378906 312.90625 L 148.679688 312.449219 C 149.277344 311.550781 149.058594 310.335938 148.160156 309.71875 C 146.863281 308.800781 146.546875 307.066406 147.402344 305.769531 C 148.261719 304.476562 149.996094 304.097656 151.332031 304.914062 C 152.109375 305.390625 153.105469 305.292969 153.765625 304.65625 C 154.421875 304.015625 154.5625 303.019531 154.101562 302.222656 C 154.023438 302.082031 153.945312 301.945312 153.882812 301.765625 C 153.824219 301.585938 153.785156 301.425781 153.746094 301.207031 C 153.703125 301.027344 153.703125 300.867188 153.722656 300.648438 C 153.722656 300.46875 153.746094 300.308594 153.804688 300.109375 C 153.882812 299.75 154.042969 299.410156 154.304688 299.054688 C 154.382812 298.933594 154.503906 298.792969 154.703125 298.613281 C 154.800781 298.515625 154.941406 298.414062 155.082031 298.335938 C 155.261719 298.234375 155.417969 298.136719 155.597656 298.078125 C 156.316406 297.816406 157.132812 297.835938 157.710938 298.097656 C 157.753906 298.136719 157.914062 298.214844 157.972656 298.253906 C 158.113281 298.335938 158.390625 298.414062 158.550781 298.453125 L 188.621094 313.84375 C 188.800781 313.945312 188.859375 314.085938 188.898438 314.183594 C 188.941406 314.285156 189.039062 314.484375 188.921875 314.640625 Z M 102.039062 344.644531 C 103.914062 344.386719 105.648438 343.347656 106.761719 341.675781 C 106.964844 341.375 107.140625 341.035156 107.300781 340.71875 C 107.980469 339.242188 108.101562 337.628906 107.699219 336.152344 C 109.554688 335.894531 111.308594 334.855469 112.425781 333.160156 C 112.625 332.84375 112.804688 332.542969 112.964844 332.207031 C 113.644531 330.730469 113.761719 329.113281 113.363281 327.640625 C 115.238281 327.359375 116.992188 326.324219 118.148438 324.589844 C 118.328125 324.3125 118.488281 324.011719 118.628906 323.710938 C 119.304688 322.238281 119.425781 320.621094 119.046875 319.148438 C 120.902344 318.886719 122.636719 317.851562 123.773438 316.15625 C 123.972656 315.859375 124.152344 315.539062 124.3125 315.21875 C 124.988281 313.726562 125.109375 312.109375 124.730469 310.617188 C 126.605469 310.335938 128.339844 309.320312 129.457031 307.644531 C 129.65625 307.324219 129.835938 307.027344 129.976562 306.707031 C 130.652344 305.234375 130.773438 303.617188 130.394531 302.125 C 132.25 301.84375 134.003906 300.828125 135.121094 299.152344 C 135.320312 298.855469 135.5 298.535156 135.65625 298.195312 C 136.335938 296.699219 136.457031 295.105469 136.078125 293.609375 C 136.535156 293.550781 136.972656 293.453125 137.453125 293.273438 C 137.871094 293.113281 138.269531 292.914062 138.609375 292.714844 C 139.007812 292.472656 139.425781 292.175781 139.726562 291.875 C 140.085938 291.558594 140.402344 291.199219 140.625 290.878906 C 140.902344 290.519531 141.121094 290.121094 141.339844 289.683594 C 141.539062 289.246094 141.699219 288.785156 141.78125 288.449219 C 141.878906 288.027344 141.960938 287.589844 141.980469 287.132812 C 142.019531 286.671875 141.980469 286.195312 141.898438 285.714844 C 141.820312 285.277344 141.71875 284.839844 141.5625 284.441406 C 141.402344 284.003906 141.183594 283.5625 140.941406 283.164062 C 140.722656 282.824219 140.464844 282.46875 140.183594 282.167969 C 139.984375 281.929688 139.746094 281.730469 139.507812 281.53125 C 139.328125 281.269531 139.085938 281.050781 138.789062 280.890625 L 110.671875 265.921875 C 109.753906 265.421875 108.617188 265.722656 108.058594 266.597656 L 62.433594 337.648438 C 59.960938 341.476562 59.222656 346.21875 60.382812 350.625 C 61.539062 355.03125 64.527344 358.777344 68.558594 360.910156 L 69.316406 361.308594 C 71.90625 362.6875 74.699219 363.324219 77.449219 363.324219 C 83.113281 363.324219 88.617188 360.554688 91.949219 355.507812 L 93.621094 352.976562 C 93.664062 352.976562 93.703125 352.996094 93.742188 352.996094 C 94.179688 353.117188 94.640625 353.175781 95.039062 353.175781 C 95.496094 353.214844 95.957031 353.175781 96.414062 353.097656 C 96.871094 353.039062 97.273438 352.9375 97.75 352.757812 C 99.445312 352.140625 100.839844 350.824219 101.617188 349.167969 C 102.277344 347.792969 102.4375 346.179688 102.039062 344.644531 Z M 99.566406 340.296875 C 98.648438 339.742188 97.453125 340 96.871094 340.898438 L 96.613281 341.296875 C 96.035156 342.171875 96.234375 343.328125 97.050781 343.96875 C 97.210938 344.085938 97.351562 344.207031 97.492188 344.367188 C 97.628906 344.523438 97.75 344.683594 97.851562 344.84375 C 97.96875 345.023438 98.03125 345.203125 98.089844 345.34375 C 98.347656 346.058594 98.308594 346.855469 97.988281 347.535156 C 97.671875 348.234375 97.074219 348.792969 96.433594 349.03125 C 96.234375 349.089844 96.054688 349.148438 95.796875 349.191406 C 95.617188 349.230469 95.457031 349.230469 95.238281 349.210938 C 95.058594 349.210938 94.878906 349.191406 94.679688 349.128906 C 94.519531 349.089844 94.359375 349.03125 94.101562 348.910156 C 94.082031 348.890625 93.921875 348.8125 93.921875 348.792969 C 93.003906 348.253906 91.828125 348.511719 91.230469 349.410156 L 88.636719 353.316406 C 84.808594 359.078125 77.3125 360.992188 71.1875 357.78125 L 70.429688 357.382812 C 67.339844 355.75 65.148438 352.996094 64.25 349.609375 C 63.351562 346.21875 63.910156 342.75 65.804688 339.800781 L 110.414062 270.304688 L 132.804688 282.269531 L 136.316406 284.101562 C 136.414062 284.203125 136.535156 284.300781 136.675781 284.402344 C 136.734375 284.441406 136.792969 284.480469 136.855469 284.5 C 136.972656 284.601562 137.09375 284.699219 137.195312 284.820312 C 137.332031 284.980469 137.472656 285.160156 137.574219 285.316406 C 137.671875 285.457031 137.75 285.636719 137.8125 285.816406 C 137.871094 285.996094 137.910156 286.175781 137.953125 286.375 C 137.992188 286.554688 137.992188 286.714844 137.972656 286.894531 C 137.972656 287.113281 137.929688 287.292969 137.871094 287.511719 C 137.832031 287.648438 137.792969 287.808594 137.710938 287.988281 C 137.632812 288.167969 137.53125 288.328125 137.394531 288.507812 C 137.3125 288.628906 137.195312 288.746094 136.992188 288.925781 C 136.875 289.027344 136.753906 289.125 136.574219 289.246094 C 136.394531 289.363281 136.238281 289.445312 136.097656 289.484375 C 135.917969 289.542969 135.757812 289.582031 135.519531 289.625 C 135.339844 289.644531 135.179688 289.664062 134.941406 289.644531 C 134.761719 289.644531 134.601562 289.625 134.382812 289.5625 C 134.222656 289.523438 134.042969 289.464844 133.863281 289.382812 C 133.742188 289.324219 133.625 289.246094 133.503906 289.164062 C 133.066406 288.867188 132.527344 288.765625 132.007812 288.867188 C 131.492188 288.964844 131.03125 289.285156 130.734375 289.722656 L 130.472656 290.121094 C 129.875 291.039062 130.113281 292.273438 131.03125 292.875 C 132.1875 293.652344 132.628906 295.207031 132.046875 296.460938 C 131.988281 296.601562 131.929688 296.71875 131.828125 296.859375 C 130.953125 298.175781 129.175781 298.535156 127.859375 297.675781 C 126.945312 297.078125 125.707031 297.320312 125.109375 298.234375 L 124.851562 298.632812 C 124.25 299.550781 124.492188 300.765625 125.386719 301.386719 C 126.566406 302.183594 126.984375 303.699219 126.386719 304.972656 C 126.324219 305.113281 126.246094 305.234375 126.167969 305.371094 C 125.308594 306.667969 123.515625 307.027344 122.199219 306.191406 C 121.28125 305.589844 120.0625 305.851562 119.445312 306.769531 L 119.1875 307.167969 C 118.589844 308.0625 118.828125 309.300781 119.726562 309.898438 C 120.882812 310.695312 121.300781 312.210938 120.703125 313.484375 C 120.640625 313.625 120.5625 313.746094 120.484375 313.863281 C 119.605469 315.179688 117.871094 315.558594 116.535156 314.703125 C 115.617188 314.125 114.402344 314.382812 113.804688 315.28125 L 113.542969 315.679688 C 112.945312 316.574219 113.183594 317.792969 114.0625 318.410156 C 115.21875 319.207031 115.617188 320.703125 115.039062 321.976562 C 114.960938 322.136719 114.859375 322.296875 114.820312 322.378906 C 113.941406 323.671875 112.207031 324.050781 110.871094 323.214844 C 109.953125 322.636719 108.757812 322.914062 108.160156 323.8125 L 107.898438 324.210938 C 107.300781 325.109375 107.519531 326.304688 108.398438 326.941406 C 109.535156 327.738281 109.933594 329.234375 109.355469 330.492188 C 109.296875 330.628906 109.214844 330.769531 109.117188 330.890625 C 108.257812 332.183594 106.542969 332.542969 105.207031 331.746094 C 104.289062 331.1875 103.09375 331.449219 102.496094 332.34375 L 102.21875 332.742188 C 101.617188 333.640625 101.839844 334.835938 102.714844 335.453125 C 103.832031 336.273438 104.230469 337.746094 103.652344 338.984375 C 103.59375 339.121094 103.535156 339.242188 103.433594 339.382812 C 102.617188 340.738281 100.902344 341.097656 99.566406 340.296875 Z M 204.714844 355.949219 C 202.378906 361.011719 196.378906 363.222656 191.3125 360.890625 C 186.25 358.558594 184.035156 352.558594 186.367188 347.496094 C 188.699219 342.433594 194.703125 340.21875 199.769531 342.550781 C 204.851562 344.882812 207.066406 350.882812 204.714844 355.949219 Z M 322.785156 460.566406 L 306.910156 494.976562 C 302.445312 495.335938 298.792969 498.382812 296.203125 499.800781 C 284.257812 506.316406 271.15625 518.679688 258.433594 533.53125 C 257.21875 531.796875 256.460938 529.78125 256.160156 527.667969 C 252.371094 530.0625 247.507812 530.558594 243.160156 528.566406 L 236.5 525.496094 C 229.699219 522.367188 226.707031 514.234375 229.839844 507.433594 L 263.976562 433.457031 C 267.109375 426.65625 275.246094 423.667969 282.042969 426.796875 L 288.703125 429.867188 C 293.03125 431.859375 295.824219 435.886719 296.460938 440.3125 C 300.230469 437.921875 305.117188 437.421875 309.441406 439.4375 L 316.101562 442.507812 C 322.921875 445.636719 325.914062 453.769531 322.785156 460.566406 Z M 322.785156 460.566406 " fill-opacity="1" fill-rule="nonzero"/><path fill="#22a454" d="M 293.089844 431.878906 L 305.175781 437.460938 L 259.628906 536.160156 L 247.546875 530.578125 Z M 565.144531 562.835938 C 555.453125 547.882812 543.03125 535.324219 529.769531 524.859375 C 488.550781 492.34375 439.257812 480.164062 439.257812 480.164062 L 392.597656 480.164062 L 393.113281 483.511719 L 423.945312 681.207031 L 561.636719 582.351562 C 559.921875 579.160156 567.078125 565.84375 565.144531 562.835938 Z M 565.144531 562.835938 " fill-opacity="1" fill-rule="nonzero"/><path fill="#ffffff" d="M 467.433594 370.71875 L 467.433594 438 C 467.433594 448.605469 462.449219 458.832031 453.554688 464.632812 C 449.667969 467.164062 444.921875 468.960938 439.277344 468.960938 L 439.277344 492.023438 L 417.882812 524.558594 L 371.898438 484.328125 L 375.46875 370.699219 L 467.433594 370.699219 Z M 467.433594 370.71875 " fill-opacity="1" fill-rule="nonzero"/><path fill="#000000" d="M 375.449219 370.71875 L 375.449219 447.710938 C 338.617188 427.476562 350.898438 372.753906 350.898438 372.753906 Z M 375.449219 370.71875 " fill-opacity="1" fill-rule="nonzero"/><path fill="#ffffff" d="M 371.898438 484.351562 L 375.46875 439.996094 C 368.609375 438.679688 362.066406 432.796875 359.015625 424.285156 C 354.847656 412.644531 358.816406 400.5625 367.910156 397.3125 C 370.363281 396.4375 372.933594 396.316406 375.46875 396.792969 L 375.46875 370.71875 L 467.453125 370.71875 L 467.453125 438 C 467.453125 448.605469 462.46875 458.832031 453.574219 464.632812 C 449.6875 467.164062 444.941406 468.960938 439.296875 468.960938 L 439.296875 492.023438 " fill-opacity="1" fill-rule="nonzero"/><path fill="#000000" d="M 467.433594 368.726562 L 375.449219 368.726562 C 374.351562 368.726562 373.453125 369.625 373.453125 370.71875 L 367.890625 370.71875 L 367.890625 395.238281 C 367.671875 395.300781 367.429688 395.359375 367.210938 395.4375 C 357.101562 399.066406 352.574219 412.304688 357.121094 424.964844 C 360.054688 433.136719 366.292969 439.4375 373.332031 441.527344 L 369.902344 484.191406 C 369.824219 485.285156 370.640625 486.242188 371.738281 486.34375 C 372.835938 486.441406 373.792969 485.605469 373.890625 484.507812 L 377.460938 440.152344 C 377.542969 439.136719 376.84375 438.21875 375.847656 438.039062 C 369.464844 436.824219 363.601562 431.164062 360.890625 423.628906 C 357.082031 413.042969 360.53125 402.078125 368.566406 399.1875 C 369.523438 398.847656 370.523438 398.628906 371.539062 398.550781 C 372.515625 398.507812 373.472656 398.550781 374.371094 398.648438 C 374.390625 398.648438 374.410156 398.648438 374.429688 398.648438 C 380.371094 399.386719 384.679688 403.074219 387.570312 406.78125 C 389.824219 409.671875 394.429688 408.734375 395.546875 405.265625 L 405.976562 372.714844 L 465.460938 372.714844 L 465.460938 438 C 465.460938 438.082031 465.460938 438.160156 465.460938 438.238281 C 462.070312 435.011719 454.074219 429.390625 439.457031 429.390625 C 429.207031 429.390625 422.109375 432.160156 417.582031 434.929688 C 413.515625 437.402344 408.308594 437.242188 404.382812 434.53125 C 401.3125 432.417969 397.382812 430.007812 394.152344 431.382812 C 382.488281 436.304688 391.839844 469.296875 437.304688 470.253906 L 437.304688 492.042969 C 437.304688 493.140625 438.203125 494.039062 439.296875 494.039062 C 440.394531 494.039062 441.292969 493.140625 441.292969 492.042969 L 441.292969 470.875 C 446.019531 470.535156 450.503906 469 454.671875 466.289062 C 463.925781 460.269531 469.46875 449.683594 469.46875 437.980469 L 469.46875 370.71875 C 469.429688 369.625 468.550781 368.726562 467.433594 368.726562 Z M 452.140625 439.914062 C 451.261719 441.808594 448.113281 446.832031 439.398438 446.832031 C 430.804688 446.832031 427.355469 442.167969 426.335938 440.3125 C 426.117188 439.914062 426.277344 439.417969 426.695312 439.214844 C 428.332031 438.480469 432.71875 436.863281 439.617188 436.863281 C 446.398438 436.863281 450.265625 438.199219 451.742188 438.859375 C 452.160156 439.039062 452.339844 439.515625 452.140625 439.914062 Z M 448.832031 405.289062 C 447.894531 402.019531 449.789062 398.628906 453.058594 397.691406 C 456.328125 396.753906 459.71875 398.648438 460.65625 401.917969 C 461.59375 405.1875 459.699219 408.578125 456.425781 409.511719 C 453.15625 410.449219 449.765625 408.554688 448.832031 405.289062 Z M 419.058594 405.289062 C 418.121094 402.019531 420.015625 398.628906 423.285156 397.691406 C 426.554688 396.753906 429.945312 398.648438 430.882812 401.917969 C 431.820312 405.1875 429.925781 408.578125 426.65625 409.511719 C 423.386719 410.449219 419.976562 408.554688 419.058594 405.289062 Z M 430.027344 393.585938 C 429.507812 393.585938 428.988281 393.386719 428.609375 392.988281 C 428.429688 392.828125 424.921875 389.480469 418.757812 392.546875 C 417.78125 393.046875 416.566406 392.628906 416.085938 391.652344 C 415.589844 390.675781 416.007812 389.480469 416.984375 388.980469 C 425.839844 384.574219 431.222656 389.976562 431.460938 390.214844 C 432.21875 391.011719 432.199219 392.269531 431.421875 393.027344 C 431.023438 393.386719 430.523438 393.585938 430.027344 393.585938 Z M 448.453125 393.585938 C 447.953125 393.585938 447.453125 393.40625 447.054688 393.027344 C 446.257812 392.269531 446.238281 390.992188 447.015625 390.214844 C 447.234375 389.976562 452.617188 384.574219 461.492188 388.980469 C 462.488281 389.480469 462.886719 390.675781 462.390625 391.652344 C 461.890625 392.628906 460.695312 393.046875 459.71875 392.546875 C 453.4375 389.4375 449.925781 392.949219 449.886719 392.988281 C 449.488281 393.386719 448.96875 393.585938 448.453125 393.585938 Z M 441.871094 425.519531 L 435.628906 425.519531 C 434.53125 425.519531 433.636719 424.625 433.636719 423.527344 C 433.636719 422.429688 434.53125 421.535156 435.628906 421.535156 L 441.871094 421.535156 C 443.882812 421.535156 445.601562 420 445.800781 418.027344 C 446.417969 411.804688 443.445312 408.496094 443.328125 408.355469 C 442.589844 407.539062 442.628906 406.285156 443.425781 405.546875 C 444.222656 404.808594 445.480469 404.828125 446.21875 405.625 C 446.398438 405.804688 450.546875 410.3125 449.746094 418.425781 C 449.367188 422.472656 445.957031 425.519531 441.871094 425.519531 Z M 441.871094 425.519531 " fill-opacity="1" fill-rule="nonzero"/><path fill="#22a454" d="M 485.78125 386.328125 L 481.054688 386.765625 C 463.386719 388.421875 445.640625 388.660156 427.933594 387.503906 L 425.578125 387.34375 C 406.792969 386.109375 388.429688 381.386719 371.339844 373.550781 L 350.898438 373.550781 L 350.898438 372.773438 C 350.898438 344.007812 374.210938 320.703125 402.984375 320.703125 L 418.042969 320.703125 C 444.503906 320.703125 466.339844 340.4375 469.648438 365.996094 L 487.773438 378.8125 C 490.945312 381.007812 489.628906 385.949219 485.78125 386.328125 Z M 485.78125 386.328125 " fill-opacity="1" fill-rule="nonzero"/><path fill="#ffffff" d="M 579.261719 493.480469 C 573.621094 493.859375 566.382812 506.9375 559.324219 511.421875 C 552.261719 515.90625 540.699219 511.519531 550.988281 495.433594 C 561.277344 479.347656 574.476562 482.214844 574.476562 482.214844 C 585.386719 483.574219 584.90625 493.121094 579.261719 493.480469 Z M 579.261719 493.480469 " fill-opacity="1" fill-rule="nonzero"/><path fill="#000000" d="M 574.777344 480.242188 C 573.359375 479.964844 559.839844 477.851562 549.292969 494.355469 C 542.433594 505.101562 545.085938 510.386719 547.257812 512.578125 C 548.894531 514.210938 551.246094 515.050781 553.757812 515.050781 C 555.972656 515.050781 558.304688 514.410156 560.378906 513.097656 C 563.710938 510.984375 566.921875 507.296875 570.011719 503.707031 C 573.300781 499.917969 577.03125 495.613281 579.382812 495.453125 C 582.632812 495.234375 585.066406 492.703125 585.167969 489.433594 C 585.285156 485.527344 582.113281 481.179688 574.777344 480.242188 Z M 579.125 491.488281 C 575.117188 491.746094 571.347656 496.089844 567 501.113281 C 564.089844 504.464844 561.078125 507.953125 558.246094 509.746094 C 555.433594 511.542969 551.84375 511.542969 550.089844 509.785156 C 547.835938 507.515625 548.792969 502.570312 552.664062 496.511719 C 559.742188 485.425781 568.097656 483.992188 571.925781 483.992188 C 573.160156 483.992188 573.917969 484.128906 574.039062 484.171875 C 574.097656 484.191406 574.160156 484.191406 574.21875 484.191406 C 579.125 484.789062 581.257812 487.199219 581.199219 489.332031 C 581.15625 490.308594 580.601562 491.386719 579.125 491.488281 Z M 579.125 491.488281 " fill-opacity="1" fill-rule="nonzero"/><path fill="#ffffff" d="M 591.707031 499.222656 C 586.0625 499.601562 578.824219 512.675781 571.765625 517.164062 C 564.707031 521.648438 553.140625 517.261719 563.429688 501.175781 C 573.71875 485.085938 586.921875 487.957031 586.921875 487.957031 C 597.828125 489.3125 597.371094 498.863281 591.707031 499.222656 Z M 591.707031 499.222656 " fill-opacity="1" fill-rule="nonzero"/><path fill="#000000" d="M 587.21875 485.984375 C 585.804688 485.707031 572.285156 483.59375 561.734375 500.097656 C 554.875 510.84375 557.527344 516.125 559.703125 518.320312 C 561.335938 519.953125 563.691406 520.792969 566.203125 520.792969 C 568.414062 520.792969 570.75 520.152344 572.824219 518.835938 C 576.152344 516.722656 579.363281 513.035156 582.453125 509.449219 C 585.746094 505.660156 589.472656 501.355469 591.828125 501.195312 C 595.078125 500.976562 597.507812 498.445312 597.609375 495.175781 C 597.730469 491.289062 594.558594 486.921875 587.21875 485.984375 Z M 591.585938 497.246094 C 587.578125 497.507812 583.808594 501.851562 579.464844 506.875 C 576.550781 510.226562 573.539062 513.714844 570.707031 515.507812 C 567.898438 517.300781 564.308594 517.300781 562.554688 515.546875 C 560.300781 513.277344 561.257812 508.332031 565.125 502.269531 C 572.203125 491.1875 580.558594 489.753906 584.386719 489.753906 C 585.625 489.753906 586.382812 489.890625 586.503906 489.929688 C 586.5625 489.953125 586.621094 489.953125 586.683594 489.953125 C 591.585938 490.550781 593.722656 492.960938 593.660156 495.09375 C 593.601562 496.050781 593.0625 497.148438 591.585938 497.246094 Z M 591.585938 497.246094 " fill-opacity="1" fill-rule="nonzero"/><path fill="#ffffff" d="M 604.167969 504.960938 C 598.527344 505.339844 591.289062 518.417969 584.230469 522.902344 C 577.167969 527.390625 565.605469 523.003906 575.894531 506.917969 C 586.183594 490.828125 599.382812 493.699219 599.382812 493.699219 C 610.292969 495.054688 609.8125 504.605469 604.167969 504.960938 Z M 604.167969 504.960938 " fill-opacity="1" fill-rule="nonzero"/><path fill="#000000" d="M 599.683594 491.746094 C 598.265625 491.464844 584.746094 489.351562 574.199219 505.859375 C 567.339844 516.605469 569.992188 521.886719 572.164062 524.082031 C 573.800781 525.714844 576.152344 526.550781 578.664062 526.550781 C 580.878906 526.550781 583.210938 525.914062 585.285156 524.597656 C 588.617188 522.484375 591.828125 518.796875 594.917969 515.210938 C 598.207031 511.421875 601.9375 507.117188 604.289062 506.957031 C 607.539062 506.738281 609.972656 504.207031 610.074219 500.9375 C 610.191406 497.027344 607.019531 492.664062 599.683594 491.746094 Z M 604.050781 502.988281 C 600.042969 503.25 596.273438 507.59375 591.925781 512.617188 C 589.015625 515.96875 586.003906 519.457031 583.171875 521.25 C 580.359375 523.042969 576.769531 523.042969 575.015625 521.289062 C 572.761719 519.015625 573.71875 514.074219 577.589844 508.011719 C 584.667969 496.929688 593.023438 495.492188 596.851562 495.492188 C 598.085938 495.492188 598.84375 495.632812 598.964844 495.671875 C 599.023438 495.691406 599.085938 495.691406 599.125 495.691406 C 604.03125 496.289062 606.164062 498.703125 606.105469 500.835938 C 606.0625 501.8125 605.507812 502.890625 604.050781 502.988281 Z M 604.050781 502.988281 " fill-opacity="1" fill-rule="nonzero"/><path fill="#ffffff" d="M 617.789062 511.242188 C 612.144531 511.621094 604.90625 524.699219 597.847656 529.183594 C 590.789062 533.667969 579.222656 529.285156 589.511719 513.195312 C 599.804688 497.109375 613.003906 499.980469 613.003906 499.980469 C 623.910156 501.335938 623.433594 510.882812 617.789062 511.242188 Z M 617.789062 511.242188 " fill-opacity="1" fill-rule="nonzero"/><path fill="#000000" d="M 613.304688 498.023438 C 611.886719 497.746094 598.367188 495.632812 587.816406 512.140625 C 580.957031 522.882812 583.609375 528.167969 585.785156 530.359375 C 587.417969 531.996094 589.773438 532.832031 592.285156 532.832031 C 594.5 532.832031 596.832031 532.195312 598.90625 530.878906 C 602.234375 528.765625 605.445312 525.078125 608.535156 521.488281 C 611.828125 517.703125 615.554688 513.394531 617.910156 513.234375 C 621.160156 513.015625 623.59375 510.484375 623.691406 507.214844 C 623.8125 503.308594 620.640625 498.941406 613.304688 498.023438 Z M 617.648438 509.25 C 613.640625 509.507812 609.871094 513.855469 605.527344 518.878906 C 602.613281 522.226562 599.601562 525.714844 596.773438 527.507812 C 593.960938 529.304688 590.371094 529.304688 588.617188 527.550781 C 586.363281 525.277344 587.320312 520.332031 591.1875 514.273438 C 598.265625 503.1875 606.621094 501.753906 610.453125 501.753906 C 611.6875 501.753906 612.445312 501.894531 612.566406 501.933594 C 612.625 501.953125 612.683594 501.953125 612.746094 501.953125 C 617.648438 502.550781 619.785156 504.960938 619.722656 507.097656 C 619.683594 508.074219 619.125 509.167969 617.648438 509.25 Z M 617.648438 509.25 " fill-opacity="1" fill-rule="nonzero"/><path fill="#000000" d="M 367.691406 377.316406 C 367.011719 376.441406 367.191406 375.183594 368.050781 374.527344 C 420.714844 334 467.394531 361.988281 467.855469 362.289062 C 468.789062 362.867188 469.089844 364.101562 468.511719 365.039062 C 467.933594 365.976562 466.695312 366.273438 465.761719 365.695312 C 465.320312 365.417969 420.894531 338.921875 370.480469 377.71875 C 370.125 377.996094 369.683594 378.136719 369.265625 378.136719 C 368.667969 378.097656 368.070312 377.816406 367.691406 377.316406 Z M 525.023438 771.175781 C 525.125 772.234375 524.367188 773.1875 523.308594 773.347656 C 522.433594 773.46875 466.078125 781.242188 400.832031 781.242188 C 364.480469 781.242188 325.355469 778.832031 291.535156 771.335938 C 290.460938 771.097656 289.78125 770.039062 290.019531 768.964844 C 290.261719 767.886719 291.316406 767.207031 292.394531 767.449219 C 329.78125 775.742188 373.734375 777.753906 413.175781 777.175781 L 412.957031 759.113281 C 411.0625 759.136719 409.148438 759.136719 407.234375 759.136719 C 372.777344 759.136719 333.390625 756.902344 293.230469 750.105469 C 292.15625 749.925781 291.417969 748.886719 291.597656 747.8125 C 291.777344 746.734375 292.8125 746.019531 293.890625 746.175781 C 336.042969 753.3125 377.320312 755.386719 412.898438 755.128906 L 410.464844 563.191406 C 410.363281 555.9375 408.929688 549.257812 406.175781 543.296875 C 392.457031 513.632812 361.546875 525.875 360.234375 526.414062 C 359.632812 526.652344 358.957031 526.59375 358.398438 526.253906 C 357.859375 525.914062 357.5 525.316406 357.480469 524.679688 L 356.5625 506.796875 C 356.503906 505.699219 357.359375 504.761719 358.457031 504.703125 C 359.535156 504.644531 360.492188 505.5 360.550781 506.597656 L 361.328125 521.847656 C 369.84375 519.296875 396.882812 513.773438 409.785156 541.644531 C 412.777344 548.101562 414.351562 555.339844 414.453125 563.152344 L 416.882812 755.109375 C 421.96875 755.046875 426.933594 754.929688 431.761719 754.789062 L 426.597656 543.535156 C 426.496094 540.089844 426.816406 537.058594 427.59375 534.289062 C 429.425781 527.707031 433.097656 523.105469 438.460938 520.613281 C 447.074219 516.625 457.882812 519.117188 463.84375 521.089844 L 450.324219 488.257812 C 449.90625 487.242188 450.386719 486.0625 451.402344 485.644531 C 452.417969 485.226562 453.597656 485.707031 454.015625 486.722656 L 469.269531 523.800781 C 469.589844 524.558594 469.390625 525.4375 468.8125 525.996094 C 468.234375 526.550781 467.355469 526.710938 466.597656 526.371094 C 466.4375 526.292969 450.722656 519.257812 440.097656 524.199219 C 435.828125 526.171875 432.898438 529.921875 431.402344 535.324219 C 430.742188 537.714844 430.445312 540.347656 430.542969 543.398438 L 435.710938 754.628906 C 480.238281 753.054688 512.261719 748.289062 519.71875 747.09375 C 518.722656 691.375 527.058594 611.933594 527.15625 610.996094 C 527.277344 609.902344 528.234375 609.105469 529.351562 609.222656 C 530.449219 609.34375 531.246094 610.320312 531.125 611.417969 C 531.085938 612.492188 519.9375 718.785156 525.023438 771.175781 Z M 417.183594 777.097656 C 422.328125 776.996094 427.375 776.859375 432.320312 776.679688 L 431.878906 758.738281 C 427.035156 758.875 422.050781 758.996094 416.945312 759.054688 Z M 520.875 769.640625 C 520.378906 763.980469 520.058594 757.738281 519.878906 751.121094 C 511.386719 752.457031 479.617188 757.082031 435.867188 758.617188 L 436.308594 776.539062 C 478.941406 774.84375 512.699219 770.71875 520.875 769.640625 Z M 339.15625 629.9375 C 339.953125 629.179688 339.992188 627.921875 339.234375 627.125 C 338.476562 626.328125 337.222656 626.289062 336.421875 627.046875 C 334.925781 628.460938 299.472656 662.070312 285.972656 679.992188 C 285.316406 680.871094 285.492188 682.125 286.371094 682.785156 C 286.730469 683.0625 287.148438 683.183594 287.566406 683.183594 C 288.167969 683.183594 288.765625 682.902344 289.164062 682.386719 C 302.445312 664.742188 338.796875 630.292969 339.15625 629.9375 Z M 363.941406 860.523438 C 363.003906 859.945312 361.769531 860.246094 361.210938 861.183594 C 360.632812 862.121094 360.929688 863.355469 361.867188 863.933594 C 362.886719 864.550781 463.1875 926.113281 483.6875 968.074219 C 484.027344 968.792969 484.742188 969.191406 485.480469 969.191406 C 485.78125 969.191406 486.078125 969.132812 486.359375 968.992188 C 487.355469 968.511719 487.753906 967.316406 487.277344 966.320312 C 466.257812 923.320312 368.109375 863.078125 363.941406 860.523438 Z M 215.042969 794.359375 C 168.242188 791.351562 141.660156 765.175781 141.402344 764.917969 C 140.625 764.140625 139.367188 764.140625 138.589844 764.917969 C 137.8125 765.695312 137.8125 766.949219 138.589844 767.726562 C 139.707031 768.84375 166.425781 795.21875 214.804688 798.347656 C 214.84375 798.347656 214.882812 798.347656 214.941406 798.347656 C 215.980469 798.347656 216.859375 797.53125 216.9375 796.472656 C 216.976562 795.378906 216.160156 794.441406 215.042969 794.359375 Z M 459.699219 583.6875 L 506.816406 583.6875 C 507.914062 583.6875 508.8125 584.582031 508.8125 585.679688 L 508.8125 600.609375 C 508.8125 601.707031 507.914062 602.605469 506.816406 602.605469 L 459.699219 602.605469 C 458.601562 602.605469 457.703125 601.707031 457.703125 600.609375 L 457.703125 585.679688 C 457.703125 584.582031 458.601562 583.6875 459.699219 583.6875 Z M 461.691406 598.617188 L 504.824219 598.617188 L 504.824219 587.671875 L 461.691406 587.671875 Z M 340.53125 600.609375 L 340.53125 585.679688 C 340.53125 584.582031 341.429688 583.6875 342.523438 583.6875 L 389.644531 583.6875 C 390.742188 583.6875 391.640625 584.582031 391.640625 585.679688 L 391.640625 600.609375 C 391.640625 601.707031 390.742188 602.605469 389.644531 602.605469 L 342.523438 602.605469 C 341.429688 602.605469 340.53125 601.707031 340.53125 600.609375 Z M 344.519531 598.617188 L 387.652344 598.617188 L 387.652344 587.671875 L 344.519531 587.671875 Z M 344.519531 598.617188 " fill-opacity="1" fill-rule="nonzero"/></svg>