<svg xmlns="http://www.w3.org/2000/svg" xmlns:xlink="http://www.w3.org/1999/xlink" width="1080" zoomAndPan="magnify" viewBox="0 0 810 809.999993" height="1080" preserveAspectRatio="xMidYMid meet" version="1.0"><defs><clipPath id="4df1962ca6"><path d="M 132 94 L 690.789062 94 L 690.789062 729 L 132 729 Z M 132 94 " clip-rule="nonzero"/></clipPath></defs><g clip-path="url(#4df1962ca6)"><path fill="#009a57" d="M 648.429688 131.707031 C 623.285156 107.738281 589.582031 94.371094 554.847656 94.492188 C 518.980469 94.628906 485.277344 108.660156 459.902344 134.035156 L 411.515625 182.421875 L 364.339844 135.242188 C 311.792969 82.699219 226.226562 81.050781 173.167969 133.097656 C 119.578125 185.640625 119.261719 271.996094 172.214844 324.933594 L 428.421875 581.144531 C 457.664062 610.386719 459.027344 658.003906 430.359375 687.789062 C 401.023438 718.273438 352.320312 718.636719 322.53125 688.847656 L 259.066406 625.386719 C 256.390625 622.710938 256.121094 618.476562 258.417969 615.453125 C 267.792969 603.128906 272.980469 587.464844 271.816406 570.589844 C 269.53125 537.261719 242.285156 510.46875 208.925781 508.730469 C 170.292969 506.71875 138.269531 537.820312 138.78125 576.136719 C 139.25 611.625 168.175781 640.914062 203.648438 641.808594 C 215.097656 642.09375 225.910156 639.480469 235.417969 634.65625 C 238.308594 633.1875 241.816406 633.808594 244.097656 636.09375 L 309.664062 701.671875 C 327.929688 719.9375 351.910156 729.054688 375.890625 729.054688 C 399.875 729.054688 423.871094 719.921875 442.121094 701.671875 C 478.636719 665.15625 478.636719 605.730469 442.121094 569.210938 L 185.050781 312.113281 C 139.492188 266.554688 139.492188 192.429688 185.050781 146.871094 C 230.609375 101.3125 304.75 101.3125 350.292969 146.871094 L 404.863281 201.441406 C 406.695312 203.273438 409.113281 204.132812 411.515625 204.074219 C 413.921875 204.132812 416.339844 203.273438 418.171875 201.441406 L 471.652344 147.960938 C 493.835938 125.777344 523.773438 112.714844 555.136719 112.652344 C 586.433594 112.59375 615.875 124.75 637.996094 146.871094 C 660.105469 168.992188 672.261719 198.386719 672.214844 229.671875 C 672.171875 261.050781 659.089844 291.019531 636.910156 313.214844 L 619.625 330.5 C 618.203125 331.921875 616.269531 332.722656 614.257812 332.722656 L 562.726562 332.722656 C 559.867188 332.722656 557.238281 331.105469 555.964844 328.550781 L 531.078125 278.769531 C 528.296875 273.191406 520.34375 273.191406 517.558594 278.769531 L 474.78125 364.25 C 472 369.828125 464.046875 369.828125 461.265625 364.25 L 446.65625 335.019531 C 443.875 329.441406 435.921875 329.441406 433.140625 335.019531 L 418.53125 364.234375 C 415.75 369.8125 407.796875 369.8125 405.015625 364.234375 L 362.269531 278.742188 C 359.484375 273.160156 351.53125 273.160156 348.75 278.742188 L 323.859375 328.519531 C 322.574219 331.074219 319.960938 332.691406 317.101562 332.691406 L 271.496094 332.691406 C 266.523438 332.691406 262.199219 336.515625 262.046875 341.492188 C 261.894531 346.632812 266.007812 350.835938 271.121094 350.835938 L 328.320312 350.835938 C 331.179688 350.835938 333.8125 349.21875 335.082031 346.664062 L 348.75 319.308594 C 351.53125 313.730469 359.484375 313.730469 362.269531 319.308594 L 405.015625 404.804688 C 407.796875 410.382812 415.75 410.382812 418.53125 404.804688 L 433.140625 375.589844 C 435.921875 370.011719 443.875 370.011719 446.65625 375.589844 L 461.265625 404.820312 C 464.046875 410.398438 472 410.398438 474.78125 404.820312 L 517.53125 319.324219 C 520.3125 313.761719 528.265625 313.746094 531.046875 319.324219 L 544.730469 346.679688 C 546.015625 349.234375 548.632812 350.851562 551.492188 350.851562 L 621.121094 350.851562 C 621.121094 350.851562 621.121094 350.851562 621.136719 350.851562 L 621.152344 350.851562 C 621.710938 350.851562 622.257812 350.792969 622.785156 350.699219 C 622.816406 350.699219 622.863281 350.6875 622.890625 350.6875 C 623.421875 350.578125 623.949219 350.429688 624.449219 350.230469 C 624.496094 350.21875 624.539062 350.203125 624.585938 350.1875 C 625.085938 349.976562 625.566406 349.71875 626.023438 349.429688 C 626.066406 349.402344 626.113281 349.386719 626.15625 349.355469 C 626.640625 349.023438 627.09375 348.660156 627.519531 348.25 C 627.535156 348.234375 627.535156 348.234375 627.550781 348.222656 L 649.503906 326.265625 C 675.480469 300.289062 690.648438 265.101562 690.359375 228.359375 C 690.058594 191.613281 675.164062 157.183594 648.429688 131.707031 Z M 156.925781 575.230469 C 156.925781 548.511719 178.671875 526.785156 205.375 526.785156 C 232.078125 526.785156 253.820312 548.527344 253.820312 575.230469 C 253.820312 601.949219 232.078125 623.679688 205.375 623.679688 C 178.671875 623.679688 156.925781 601.949219 156.925781 575.230469 Z M 156.925781 575.230469 " fill-opacity="1" fill-rule="nonzero"/></g></svg>