<svg xmlns="http://www.w3.org/2000/svg" xmlns:xlink="http://www.w3.org/1999/xlink" width="1080" zoomAndPan="magnify" viewBox="0 0 810 809.999993" height="1080" preserveAspectRatio="xMidYMid meet" version="1.0"><defs><clipPath id="b7f50a0d0f"><path d="M 81 103.976562 L 729 103.976562 L 729 706.222656 L 81 706.222656 Z M 81 103.976562 " clip-rule="nonzero"/></clipPath></defs><g clip-path="url(#b7f50a0d0f)"><path fill="#009a57" d="M 725.453125 421.984375 L 710.726562 414.875 L 710.726562 299.789062 C 710.726562 297.828125 709.609375 296.035156 707.84375 295.171875 C 696.714844 289.75 685.546875 285.964844 674.351562 283.75 L 674.351562 181.429688 C 674.351562 178.597656 672.054688 176.296875 669.21875 176.296875 L 470.144531 176.296875 C 467.308594 176.296875 465.011719 178.597656 465.011719 181.429688 L 465.011719 230.207031 C 436.746094 240.230469 416.410156 267.160156 416.410156 298.824219 L 416.410156 310.574219 L 380.3125 310.574219 C 377.480469 310.574219 375.179688 312.875 375.179688 315.707031 L 375.179688 355.3125 L 365.242188 350.511719 L 357.902344 133.054688 C 357.8125 130.289062 355.542969 128.097656 352.769531 128.097656 L 317.167969 128.097656 C 314.398438 128.097656 312.132812 130.289062 312.035156 133.054688 L 305.664062 321.753906 L 301.15625 319.578125 C 299.570312 318.8125 297.699219 318.917969 296.199219 319.851562 C 294.699219 320.789062 293.796875 322.433594 293.796875 324.199219 L 293.796875 418.425781 L 276.839844 410.242188 L 250.257812 108.652344 C 250.023438 106.007812 247.804688 103.976562 245.140625 103.976562 L 206.914062 103.976562 C 204.253906 103.976562 202.03125 106.007812 201.800781 108.65625 L 179.371094 363.195312 L 89.011719 319.578125 C 87.425781 318.8125 85.558594 318.917969 84.054688 319.851562 C 82.554688 320.796875 81.648438 322.433594 81.648438 324.203125 L 81.648438 701.058594 C 81.648438 703.894531 83.949219 706.191406 86.78125 706.191406 L 723.21875 706.191406 C 726.050781 706.191406 728.351562 703.894531 728.351562 701.058594 L 728.351562 426.609375 C 728.351562 424.636719 727.222656 422.839844 725.453125 421.984375 Z M 700.460938 409.921875 L 601.679688 362.242188 L 601.679688 303.03125 C 634.472656 287.941406 667.667969 287.941406 700.460938 303.03125 Z M 638.085938 282.148438 C 623.453125 283.761719 608.835938 288.085938 594.300781 295.171875 C 592.535156 296.035156 591.414062 297.828125 591.414062 299.789062 L 591.414062 310.574219 L 562.117188 310.574219 L 562.117188 298.824219 C 562.117188 262.75 535.742188 232.796875 501.277344 227.042969 L 501.277344 211.367188 L 638.082031 211.367188 L 638.082031 282.148438 Z M 562.117188 320.839844 L 591.414062 320.839844 L 591.414062 331.105469 L 562.117188 331.105469 Z M 562.117188 341.371094 L 591.414062 341.371094 L 591.414062 357.289062 L 562.117188 343.148438 Z M 475.273438 186.5625 L 664.09375 186.5625 L 664.09375 282.148438 C 658.847656 281.566406 653.601562 281.355469 648.351562 281.480469 L 648.351562 206.234375 C 648.351562 203.402344 646.050781 201.101562 643.21875 201.101562 L 496.148438 201.101562 C 493.316406 201.101562 491.015625 203.402344 491.015625 206.234375 L 491.015625 226.058594 C 490.433594 226.042969 489.855469 225.972656 489.265625 225.972656 C 484.476562 225.972656 479.808594 226.464844 475.273438 227.351562 Z M 426.675781 298.824219 C 426.675781 271.28125 444.578125 247.886719 469.34375 239.542969 C 469.613281 239.585938 469.855469 239.699219 470.140625 239.699219 C 471.503906 239.699219 472.71875 239.152344 473.636719 238.289062 C 478.640625 236.996094 483.863281 236.234375 489.265625 236.234375 C 523.777344 236.234375 551.851562 264.316406 551.851562 298.828125 L 551.851562 338.195312 L 513.300781 319.582031 C 511.714844 318.820312 509.847656 318.921875 508.34375 319.855469 C 506.84375 320.796875 505.941406 322.4375 505.941406 324.203125 L 505.941406 418.433594 L 426.679688 380.167969 L 426.679688 298.824219 Z M 416.410156 375.214844 L 407.320312 370.828125 L 407.320312 341.371094 L 416.410156 341.371094 Z M 385.445312 320.839844 L 416.410156 320.839844 L 416.410156 331.105469 L 402.1875 331.105469 C 399.355469 331.105469 397.054688 333.40625 397.054688 336.238281 L 397.054688 365.875 L 385.445312 360.269531 Z M 322.128906 138.363281 L 347.808594 138.363281 L 354.804688 345.476562 L 315.773438 326.636719 Z M 211.613281 114.238281 L 240.445312 114.238281 L 266.078125 405.050781 L 189.257812 367.96875 Z M 293.792969 695.925781 L 224.039062 695.925781 L 224.039062 617.046875 L 293.792969 617.046875 Z M 718.085938 695.925781 L 304.058594 695.925781 L 304.058594 611.914062 C 304.058594 609.074219 301.757812 606.78125 298.925781 606.78125 L 218.910156 606.78125 C 216.074219 606.78125 213.777344 609.074219 213.777344 611.914062 L 213.777344 695.917969 L 91.914062 695.917969 L 91.914062 332.378906 L 296.699219 431.226562 C 298.289062 431.996094 300.160156 431.894531 301.65625 430.949219 C 303.15625 430.011719 304.058594 428.367188 304.058594 426.601562 L 304.058594 332.378906 L 308.367188 334.464844 C 308.367188 334.464844 308.375 334.464844 308.375 334.464844 L 508.84375 431.226562 C 510.433594 431.996094 512.308594 431.894531 513.800781 430.949219 C 515.300781 430.011719 516.203125 428.367188 516.203125 426.601562 L 516.203125 332.378906 L 718.085938 429.832031 Z M 718.085938 695.925781 " fill-opacity="1" fill-rule="nonzero"/></g><path fill="#009a57" d="M 177.289062 471.59375 L 114.21875 471.59375 C 111.386719 471.59375 109.085938 473.890625 109.085938 476.726562 L 109.085938 539.796875 C 109.085938 542.636719 111.386719 544.929688 114.21875 544.929688 L 177.289062 544.929688 C 180.121094 544.929688 182.421875 542.636719 182.421875 539.796875 L 182.421875 476.726562 C 182.421875 473.894531 180.121094 471.59375 177.289062 471.59375 Z M 172.15625 534.667969 L 119.351562 534.667969 L 119.351562 481.859375 L 172.15625 481.859375 Z M 172.15625 534.667969 " fill-opacity="1" fill-rule="nonzero"/><path fill="#009a57" d="M 346.617188 482.679688 C 343.785156 482.679688 341.484375 484.976562 341.484375 487.8125 L 341.484375 588.007812 C 341.484375 590.84375 343.785156 593.140625 346.617188 593.140625 L 675.523438 593.140625 C 678.355469 593.140625 680.65625 590.84375 680.65625 588.007812 L 680.65625 487.8125 C 680.65625 484.976562 678.355469 482.679688 675.523438 482.679688 Z M 516.207031 543.039062 L 589.253906 543.039062 L 589.253906 582.875 L 516.207031 582.875 Z M 505.941406 582.875 L 432.894531 582.875 L 432.894531 543.039062 L 505.9375 543.039062 L 505.9375 582.875 Z M 516.207031 532.773438 L 516.207031 492.941406 L 589.253906 492.941406 L 589.253906 532.773438 Z M 505.941406 532.773438 L 432.894531 532.773438 L 432.894531 492.941406 L 505.9375 492.941406 L 505.9375 532.773438 Z M 422.628906 492.945312 L 422.628906 532.78125 L 351.75 532.78125 L 351.75 492.945312 Z M 351.75 543.039062 L 422.628906 543.039062 L 422.628906 582.875 L 351.75 582.875 Z M 599.515625 582.875 L 599.515625 543.039062 L 670.390625 543.039062 L 670.390625 582.875 Z M 670.394531 532.773438 L 599.519531 532.773438 L 599.519531 492.941406 L 670.394531 492.941406 Z M 670.394531 532.773438 " fill-opacity="1" fill-rule="nonzero"/></svg>