<svg xmlns="http://www.w3.org/2000/svg" xmlns:xlink="http://www.w3.org/1999/xlink" width="1080" zoomAndPan="magnify" viewBox="0 0 810 1439.999935" height="1920" preserveAspectRatio="xMidYMid meet" version="1.0"><path fill="#ffffff" d="M 230.148438 1006.761719 L 195.296875 1149.183594 L 142.808594 1149.183594 L 151.007812 1006.761719 Z M 308.097656 1004.945312 L 343.40625 1149.183594 L 395.890625 1149.183594 L 387.367188 1001.246094 Z M 807.75 963.320312 L 567.734375 1151.390625 L 541.773438 1118.246094 L 781.789062 930.175781 Z M 807.75 963.320312 " fill-opacity="1" fill-rule="nonzero"/><path fill="#333333" d="M 422.15625 997.609375 L 378.367188 744.398438 L 270.023438 746.5 L 161.675781 744.398438 L 117.867188 997.609375 C 116.804688 1003.691406 120.65625 1009.53125 126.648438 1010.980469 C 132.1875 1012.324219 139.652344 1013.96875 148.347656 1015.460938 L 140.648438 1149.074219 C 140.601562 1149.660156 140.820312 1150.242188 141.230469 1150.675781 C 141.640625 1151.109375 142.203125 1151.347656 142.808594 1151.347656 L 195.296875 1151.347656 C 196.289062 1151.347656 197.15625 1150.675781 197.394531 1149.703125 L 230.0625 1016.238281 C 236.421875 1014.917969 242.675781 1013.1875 248.648438 1010.917969 C 252.714844 1009.378906 255.503906 1005.59375 255.980469 1001.289062 L 270.023438 871.15625 L 284.0625 1001.289062 C 284.539062 1005.617188 287.328125 1009.378906 291.398438 1010.917969 C 296.933594 1013.015625 302.710938 1014.679688 308.597656 1015.957031 L 341.328125 1149.703125 C 341.566406 1150.675781 342.433594 1151.347656 343.429688 1151.347656 L 395.914062 1151.347656 C 396.519531 1151.347656 397.082031 1151.109375 397.492188 1150.675781 C 397.902344 1150.242188 398.121094 1149.660156 398.078125 1149.074219 L 390.398438 1015.699219 C 399.679688 1014.160156 407.597656 1012.429688 413.414062 1011.003906 C 419.367188 1009.511719 423.195312 1003.691406 422.15625 997.609375 Z M 193.585938 1147.019531 L 145.101562 1147.019531 L 152.632812 1016.152344 C 173.378906 1019.398438 200.140625 1021.453125 225.367188 1017.105469 Z M 393.578125 1147.019531 L 345.09375 1147.019531 L 313.246094 1016.886719 C 338.367188 1021.453125 365.128906 1019.546875 386.046875 1016.367188 Z M 393.578125 1147.019531 " fill-opacity="1" fill-rule="nonzero"/><path fill="#009a57" d="M 395.976562 660.523438 L 383.558594 736.546875 C 382.5 742.324219 377.480469 746.5 371.617188 746.5 L 165.527344 746.5 C 159.46875 746.5 154.339844 742.042969 153.496094 736.046875 L 134.285156 599.101562 C 133.746094 595.230469 131.367188 591.855469 127.925781 590.035156 L 56.597656 552.523438 C 51.683594 549.949219 49.132812 544.367188 50.429688 538.980469 C 55.945312 516.023438 72.671875 456.464844 102.871094 432.167969 C 105.859375 429.765625 109.773438 428.902344 113.472656 429.8125 L 282.9375 472.0625 C 284.128906 472.367188 285.339844 472.472656 286.550781 472.410156 C 298.601562 471.761719 382.261719 472.128906 447.988281 525.003906 C 520.074219 583.003906 458.675781 663.011719 395.976562 660.523438 Z M 395.976562 660.523438 " fill-opacity="1" fill-rule="nonzero"/><path fill="#333333" d="M 254.554688 421.9375 L 244.015625 444.132812 C 242.652344 447.011719 239.234375 448.199219 236.359375 446.878906 C 224.394531 441.386719 217.363281 433.640625 213.445312 427.734375 C 211.132812 424.230469 213.296875 419.46875 217.449219 418.90625 C 226.515625 417.652344 232.355469 413.648438 235.363281 410.988281 C 237.007812 409.515625 239.320312 409.085938 241.355469 409.929688 L 251.546875 414.148438 C 254.597656 415.402344 255.980469 418.949219 254.554688 421.9375 Z M 254.554688 421.9375 " fill-opacity="1" fill-rule="nonzero"/><path fill="#ffffff" d="M 357.792969 408.628906 L 346.609375 447.378906 C 341.070312 466.566406 324.496094 479.722656 305.761719 481.949219 L 305.761719 494.628906 L 275.929688 530.542969 L 226.773438 474.746094 L 239.191406 425.742188 C 234.496094 421.847656 230.777344 415.488281 229.304688 407.851562 C 226.621094 393.917969 232.464844 381.089844 242.351562 379.1875 C 249.902344 377.734375 259.507812 381.585938 263.921875 390.390625 L 264.914062 381.824219 C 272.292969 356.296875 299.226562 341.433594 324.757812 348.8125 C 350.308594 356.144531 365.171875 383.078125 357.792969 408.628906 Z M 357.792969 408.628906 " fill-opacity="1" fill-rule="nonzero"/><path fill="#333333" d="M 359.871094 409.214844 L 348.683594 447.960938 C 348.316406 449.261719 347.882812 450.515625 347.410156 451.75 C 347.257812 452.160156 347.085938 452.546875 346.910156 452.960938 C 346.585938 453.761719 346.242188 454.582031 345.871094 455.359375 C 345.65625 455.835938 345.398438 456.3125 345.160156 456.789062 C 344.8125 457.480469 344.445312 458.152344 344.078125 458.824219 C 343.796875 459.296875 343.515625 459.773438 343.234375 460.25 C 342.84375 460.898438 342.433594 461.527344 342.023438 462.15625 C 341.71875 462.609375 341.414062 463.042969 341.113281 463.472656 C 340.636719 464.125 340.160156 464.75 339.664062 465.378906 C 339.359375 465.746094 339.078125 466.113281 338.777344 466.480469 C 338.128906 467.238281 337.457031 467.972656 336.785156 468.6875 C 336.589844 468.882812 336.417969 469.097656 336.246094 469.273438 C 335.335938 470.203125 334.40625 471.089844 333.433594 471.933594 C 333.324219 472.042969 333.195312 472.128906 333.085938 472.214844 C 332.242188 472.949219 331.378906 473.640625 330.46875 474.3125 C 330.164062 474.550781 329.839844 474.746094 329.539062 474.960938 C 328.824219 475.480469 328.109375 475.980469 327.351562 476.453125 C 326.941406 476.714844 326.53125 476.953125 326.121094 477.210938 C 325.472656 477.601562 324.800781 477.992188 324.128906 478.359375 C 323.632812 478.617188 323.132812 478.878906 322.617188 479.136719 C 322.03125 479.441406 321.425781 479.699219 320.820312 479.980469 C 320.214844 480.261719 319.609375 480.523438 319.003906 480.761719 C 318.503906 480.953125 318.007812 481.148438 317.507812 481.324219 C 316.773438 481.582031 316.039062 481.863281 315.304688 482.078125 C 314.957031 482.1875 314.632812 482.273438 314.285156 482.382812 C 313.378906 482.640625 312.46875 482.902344 311.539062 483.117188 C 311.496094 483.140625 311.429688 483.140625 311.386719 483.140625 C 310.242188 483.398438 309.09375 483.636719 307.925781 483.832031 L 307.925781 494.628906 C 307.925781 495.816406 306.953125 496.792969 305.761719 496.792969 C 304.570312 496.792969 303.597656 495.816406 303.597656 494.628906 L 303.597656 484.328125 C 302.453125 484.417969 301.304688 484.480469 300.136719 484.480469 C 295.507812 484.480469 290.8125 483.832031 286.140625 482.492188 C 273.65625 478.878906 263.140625 470.679688 256.566406 459.363281 C 255.960938 458.324219 256.304688 457.003906 257.34375 456.398438 C 258.382812 455.792969 259.703125 456.140625 260.308594 457.179688 C 266.320312 467.519531 275.929688 475.027344 287.351562 478.316406 C 293.320312 480.046875 299.445312 480.523438 305.4375 479.808594 C 305.460938 479.808594 305.480469 479.785156 305.503906 479.785156 C 305.914062 479.742188 306.304688 479.65625 306.691406 479.59375 C 307.515625 479.460938 308.335938 479.355469 309.160156 479.179688 C 309.722656 479.074219 310.242188 478.921875 310.804688 478.792969 C 311.667969 478.574219 312.535156 478.359375 313.378906 478.097656 C 313.765625 477.992188 314.15625 477.859375 314.546875 477.730469 C 317.25 476.824219 319.890625 475.699219 322.441406 474.292969 C 326.421875 472.085938 329.992188 469.378906 333.085938 466.242188 C 333.257812 466.070312 333.433594 465.875 333.605469 465.703125 C 334.382812 464.902344 335.121094 464.058594 335.835938 463.191406 C 336.050781 462.910156 336.289062 462.652344 336.503906 462.371094 C 337.328125 461.3125 338.128906 460.230469 338.863281 459.105469 C 338.929688 458.996094 338.992188 458.886719 339.058594 458.78125 C 339.707031 457.761719 340.335938 456.703125 340.898438 455.621094 C 341.089844 455.230469 341.285156 454.84375 341.480469 454.453125 C 341.914062 453.585938 342.324219 452.699219 342.691406 451.792969 C 342.84375 451.402344 343.015625 451.035156 343.167969 450.644531 C 343.664062 449.367188 344.121094 448.070312 344.507812 446.75 L 355.695312 408.023438 C 362.769531 383.554688 348.597656 357.917969 324.152344 350.867188 C 316.320312 348.617188 308.378906 348.53125 300.980469 350.238281 C 305.199219 358.199219 304.703125 368.453125 295.527344 379.164062 L 265.523438 404.066406 C 265.414062 403.027344 265.285156 401.988281 265.066406 400.949219 C 264.09375 395.824219 262.082031 391.28125 259.464844 387.667969 C 254.898438 382.324219 247.933594 380.289062 242.742188 381.285156 C 234.042969 382.949219 228.960938 394.675781 231.402344 407.417969 C 232.722656 414.253906 236.054688 420.335938 240.554688 424.054688 C 241.203125 424.597656 241.484375 425.441406 241.269531 426.261719 L 228.851562 475.265625 C 228.546875 476.433594 227.378906 477.125 226.234375 476.824219 C 225.066406 476.519531 224.371094 475.351562 224.675781 474.203125 L 236.769531 426.480469 C 232.03125 422.085938 228.570312 415.53125 227.183594 408.242188 C 224.742188 395.5 229.089844 383.578125 237.160156 378.882812 C 235.859375 373.148438 234.28125 356.707031 253.492188 341.066406 C 267.535156 329.640625 288.84375 334.335938 298.492188 346.410156 C 307.039062 344.136719 316.277344 344.074219 325.382812 346.691406 C 352.125 354.414062 367.617188 382.472656 359.871094 409.214844 Z M 302.710938 429.25 C 306.324219 428.597656 308.746094 425.136719 308.097656 421.523438 C 307.449219 417.910156 303.988281 415.488281 300.375 416.136719 C 296.761719 416.785156 294.339844 420.25 294.988281 423.859375 C 295.636719 427.472656 299.097656 429.898438 302.710938 429.25 Z M 335.421875 432.535156 C 339.035156 431.886719 341.460938 428.425781 340.808594 424.8125 C 340.160156 421.199219 336.699219 418.777344 333.085938 419.425781 C 329.472656 420.074219 327.050781 423.535156 327.699219 427.148438 C 328.328125 430.761719 331.789062 433.1875 335.421875 432.535156 Z M 326.054688 436.324219 L 327.050781 431 C 327.265625 429.832031 326.488281 428.707031 325.320312 428.46875 C 324.152344 428.253906 323.027344 429.03125 322.789062 430.199219 L 321.792969 435.523438 C 320.710938 441.363281 315.238281 445.324219 309.351562 444.523438 L 306.777344 444.175781 C 305.589844 444.023438 304.507812 444.847656 304.355469 446.035156 C 304.203125 447.226562 305.027344 448.308594 306.214844 448.460938 L 308.789062 448.804688 C 309.484375 448.890625 310.175781 448.9375 310.867188 448.9375 C 318.203125 448.957031 324.671875 443.742188 326.054688 436.324219 Z M 294.835938 454.496094 C 300.417969 458.714844 306 459.949219 310.566406 459.949219 C 316.621094 459.949219 320.929688 457.804688 321.253906 457.65625 C 322.3125 457.113281 322.722656 455.816406 322.183594 454.753906 C 321.640625 453.695312 320.34375 453.261719 319.285156 453.804688 C 318.828125 454.019531 308.226562 459.210938 297.453125 451.054688 C 296.503906 450.34375 295.140625 450.515625 294.425781 451.46875 C 293.710938 452.417969 293.882812 453.78125 294.835938 454.496094 Z M 309.9375 406.898438 C 308.789062 406.75 298.515625 405.535156 293.300781 409.863281 C 292.390625 410.621094 292.261719 411.984375 293.019531 412.914062 C 293.453125 413.433594 294.058594 413.691406 294.683594 413.691406 C 295.183594 413.691406 295.660156 413.519531 296.070312 413.195312 C 299.273438 410.535156 306.757812 410.835938 309.375 411.183594 C 310.566406 411.335938 311.648438 410.511719 311.796875 409.324219 C 311.949219 408.132812 311.128906 407.050781 309.9375 406.898438 Z M 309.9375 406.898438 " fill-opacity="1" fill-rule="nonzero"/><path fill="#009a57" d="M 364.261719 417.867188 C 358.289062 419.75 350.566406 420.832031 340.808594 420.832031 C 301.609375 420.832031 287.199219 402.464844 282.050781 391.042969 C 279.539062 385.480469 274.5 381.5 268.59375 379.964844 C 252.757812 375.898438 243.476562 369.167969 238.089844 363.242188 C 237.332031 362.398438 236.921875 361.292969 237.027344 360.167969 C 240.230469 329.554688 266.300781 305.5 297.714844 305.5 L 303.273438 305.5 C 336.851562 305.5 364.328125 332.953125 364.328125 366.53125 C 381.351562 381.175781 393.101562 408.824219 364.261719 417.867188 Z M 364.261719 417.867188 " fill-opacity="1" fill-rule="nonzero"/><path fill="#333333" d="M 279 381.390625 C 278.285156 380.441406 278.480469 379.078125 279.433594 378.363281 C 320.601562 347.621094 364.671875 364.367188 365.105469 364.515625 C 366.210938 364.949219 366.773438 366.203125 366.339844 367.328125 C 365.90625 368.433594 364.652344 368.996094 363.546875 368.5625 C 363.136719 368.390625 321.230469 352.574219 282.050781 381.847656 C 281.660156 382.128906 281.207031 382.28125 280.753906 382.28125 C 280.058594 382.257812 279.410156 381.953125 279 381.390625 Z M 200.554688 510.703125 L 210.289062 468.039062 C 210.546875 466.871094 209.835938 465.722656 208.664062 465.441406 C 207.519531 465.183594 206.351562 465.898438 206.070312 467.066406 L 195.492188 513.472656 C 195.316406 514.273438 195.597656 515.09375 196.203125 515.613281 C 196.832031 516.132812 197.695312 516.261719 198.433594 515.960938 C 200.164062 515.222656 241.289062 498.652344 263.726562 546.917969 C 264.09375 547.699219 264.871094 548.171875 265.695312 548.171875 C 265.996094 548.171875 266.300781 548.109375 266.601562 547.980469 C 267.683594 547.480469 268.160156 546.183594 267.664062 545.101562 C 247.5 501.746094 212.148438 507.4375 200.554688 510.703125 Z M 809.890625 963.578125 C 809.828125 964.140625 809.523438 964.660156 809.070312 965.03125 L 719.371094 1035.320312 L 581.472656 1143.363281 L 569.054688 1153.097656 C 568.664062 1153.402344 568.191406 1153.554688 567.714844 1153.554688 C 567.066406 1153.554688 566.4375 1153.273438 566.003906 1152.730469 L 546.707031 1128.109375 L 543.765625 1130.40625 C 541.773438 1131.960938 539.4375 1132.699219 537.101562 1132.699219 C 533.898438 1132.699219 530.71875 1131.269531 528.578125 1128.542969 C 524.898438 1123.847656 525.722656 1117.035156 530.414062 1113.355469 L 627.402344 1037.355469 L 623.640625 1010.894531 L 619.851562 984.15625 C 619.789062 983.699219 619.765625 983.246094 619.746094 982.8125 L 22.328125 220.367188 C 19.753906 217.078125 20.316406 212.316406 23.625 209.742188 C 26.914062 207.167969 31.671875 207.730469 34.246094 211.042969 L 288.109375 535.019531 C 302.191406 514.878906 332.328125 514.640625 343.601562 515.3125 L 327.398438 488.59375 C 326.769531 487.574219 327.09375 486.234375 328.132812 485.628906 C 329.148438 485 330.492188 485.324219 331.097656 486.363281 L 349.507812 516.738281 C 349.941406 517.453125 349.917969 518.359375 349.464844 519.054688 C 349.007812 519.746094 348.1875 520.113281 347.367188 520.003906 C 346.910156 519.941406 306.324219 514.617188 290.921875 538.632812 L 352.148438 616.777344 C 346.261719 593.261719 353.054688 569.546875 353.421875 568.335938 C 353.769531 567.191406 354.960938 566.542969 356.105469 566.867188 C 357.253906 567.210938 357.902344 568.402344 357.578125 569.546875 C 357.46875 569.894531 348.210938 602.304688 360.691406 627.660156 L 373.132812 643.539062 C 379.449219 648.839844 387.238281 652.777344 396.5625 655.222656 C 397.710938 655.523438 398.402344 656.714844 398.097656 657.859375 C 397.839844 658.835938 396.972656 659.484375 396 659.484375 C 395.828125 659.484375 395.632812 659.460938 395.460938 659.417969 C 390.332031 658.078125 385.679688 656.261719 381.398438 654.097656 L 631.730469 973.554688 C 632.164062 973.660156 632.597656 973.792969 633.027344 973.964844 L 658.082031 984.046875 L 682.875 994.019531 L 779.105469 918.601562 C 783.800781 914.921875 790.617188 915.746094 794.292969 920.441406 C 797.972656 925.136719 797.148438 931.949219 792.453125 935.628906 L 790.183594 937.402344 L 809.480469 962.023438 C 809.804688 962.433594 809.957031 963.015625 809.890625 963.578125 Z M 804.699219 962.953125 L 786.742188 940.042969 L 550.125 1125.449219 L 568.082031 1148.359375 L 577.101562 1141.285156 L 561.960938 1121.96875 C 561.222656 1121.015625 561.398438 1119.671875 562.328125 1118.9375 C 563.277344 1118.203125 564.621094 1118.375 565.355469 1119.304688 L 580.5 1138.625 L 592.421875 1129.28125 L 577.277344 1109.960938 C 576.539062 1109.007812 576.714844 1107.667969 577.644531 1106.929688 C 578.597656 1106.195312 579.9375 1106.367188 580.671875 1107.296875 L 595.816406 1126.617188 L 607.738281 1117.273438 L 592.59375 1097.953125 C 591.859375 1097 592.03125 1095.660156 592.960938 1094.921875 C 593.914062 1094.1875 595.253906 1094.359375 595.992188 1095.292969 L 611.132812 1114.609375 L 623.054688 1105.265625 L 607.910156 1085.945312 C 607.175781 1084.992188 607.347656 1083.652344 608.277344 1082.917969 C 609.230469 1082.179688 610.574219 1082.355469 611.308594 1083.285156 L 626.453125 1102.605469 L 638.371094 1093.257812 L 623.230469 1073.9375 C 622.492188 1072.984375 622.667969 1071.644531 623.597656 1070.910156 C 624.546875 1070.171875 625.890625 1070.347656 626.625 1071.277344 L 641.769531 1090.597656 L 653.691406 1081.25 L 638.546875 1061.929688 C 637.808594 1060.980469 637.984375 1059.636719 638.914062 1058.902344 C 639.867188 1058.167969 641.207031 1058.339844 641.941406 1059.269531 L 657.085938 1078.589844 L 669.007812 1069.242188 L 653.863281 1049.921875 C 653.128906 1048.972656 653.300781 1047.628906 654.230469 1046.894531 C 655.183594 1046.160156 656.523438 1046.332031 657.261719 1047.261719 L 672.402344 1066.582031 L 684.324219 1057.234375 L 669.179688 1037.917969 C 668.445312 1036.964844 668.617188 1035.625 669.546875 1034.886719 C 670.5 1034.152344 671.839844 1034.324219 672.578125 1035.253906 L 687.722656 1054.574219 L 699.640625 1045.230469 L 684.496094 1025.910156 C 683.761719 1024.957031 683.933594 1023.617188 684.867188 1022.878906 C 685.816406 1022.144531 687.160156 1022.316406 687.894531 1023.25 L 703.039062 1042.566406 L 714.960938 1033.222656 L 699.816406 1013.902344 C 699.078125 1012.949219 699.253906 1011.609375 700.183594 1010.875 C 701.136719 1010.136719 702.476562 1010.3125 703.210938 1011.242188 L 718.355469 1030.5625 L 730.277344 1021.214844 L 715.132812 1001.894531 C 714.398438 1000.941406 714.570312 999.601562 715.5 998.867188 C 716.453125 998.128906 717.792969 998.304688 718.527344 999.234375 L 733.671875 1018.554688 L 745.59375 1009.207031 L 730.449219 989.886719 C 729.714844 988.9375 729.886719 987.59375 730.816406 986.859375 C 731.769531 986.125 733.109375 986.296875 733.847656 987.226562 L 748.992188 1006.546875 L 760.910156 997.199219 L 745.765625 977.878906 C 745.03125 976.929688 745.203125 975.585938 746.136719 974.851562 C 747.085938 974.117188 748.429688 974.289062 749.164062 975.21875 L 764.308594 994.539062 L 776.230469 985.191406 L 761.085938 965.875 C 760.347656 964.921875 760.523438 963.582031 761.453125 962.84375 C 762.40625 962.109375 763.746094 962.28125 764.480469 963.210938 L 779.625 982.53125 L 791.546875 973.1875 L 776.402344 953.867188 C 775.667969 952.914062 775.839844 951.574219 776.769531 950.835938 C 777.722656 950.101562 779.0625 950.273438 779.796875 951.207031 L 794.941406 970.523438 Z M 804.699219 962.953125 " fill-opacity="1" fill-rule="nonzero"/><path fill="#ffffff" d="M 63.777344 366.011719 C 67.976562 359.734375 71.480469 353.03125 73.902344 345.890625 C 75.871094 340.113281 78.773438 334.121094 81.953125 328.148438 C 87.792969 317.203125 121.261719 289.054688 132.535156 300.671875 C 140.496094 308.875 133.441406 318.328125 133.441406 318.328125 C 133.441406 318.328125 144.886719 311.1875 150.707031 320.921875 C 156.09375 329.921875 150.402344 335.65625 150.402344 335.65625 C 150.402344 335.65625 160.746094 331.699219 164.421875 339.484375 C 168.101562 347.253906 164.164062 351.992188 164.164062 351.992188 C 168.554688 349.027344 176.710938 350.171875 179.394531 359.042969 C 181.191406 364.972656 168.792969 379.617188 160.355469 388.683594 C 155.789062 393.59375 150.101562 397.273438 143.761719 399.414062 L 123.535156 406.230469 L 104.820312 413.519531 L 83.273438 511.328125 C 76.132812 543.761719 34.679688 555.054688 13.109375 529.785156 C 6.554688 522.0625 2.207031 512.304688 2.378906 499.972656 C 2.921875 461.136719 45.648438 393.140625 63.777344 366.011719 Z M 407.164062 550.140625 C 398.941406 557.542969 390.960938 569.722656 388.902344 589.648438 C 387.433594 603.96875 394.722656 617.816406 407.359375 624.738281 L 419.558594 631.421875 C 419.558594 631.421875 444.136719 640.445312 436.132812 691.308594 L 421.289062 703.984375 C 417.546875 707.1875 414.757812 711.34375 413.179688 716.015625 C 408.871094 728.867188 400.933594 754.847656 404.632812 761.230469 C 409.609375 769.796875 419.539062 767.3125 419.539062 767.3125 C 419.539062 767.3125 415.945312 779.730469 423.410156 784.984375 C 430.875 790.242188 437.710938 784.984375 437.710938 784.984375 C 437.710938 784.984375 435.546875 794.65625 441.085938 798.789062 C 446.625 802.921875 456.554688 798.789062 456.554688 798.789062 C 456.554688 798.789062 452.421875 807.074219 459.324219 810.386719 C 465.511719 813.347656 488.273438 804.804688 500.558594 771.703125 C 503.265625 764.410156 504.152344 756.558594 503.351562 748.8125 L 498.808594 704.894531 C 498.808594 704.894531 539.371094 602.066406 442.578125 546.679688 C 431.265625 540.191406 416.855469 541.402344 407.164062 550.140625 Z M 407.164062 550.140625 " fill-opacity="1" fill-rule="nonzero"/><path fill="#333333" d="M 501.035156 705.175781 C 502.484375 701.304688 511.007812 677.050781 509.171875 646.417969 C 507.351562 616.105469 494.503906 573.875 443.660156 544.777344 C 431.308594 537.703125 416.054688 539.21875 405.714844 548.519531 C 394.917969 558.234375 388.535156 571.992188 386.761719 589.410156 C 385.203125 604.640625 392.882812 619.242188 406.320312 626.621094 L 418.523438 633.304688 C 418.609375 633.347656 418.714844 633.390625 418.804688 633.4375 C 419.039062 633.523438 441.347656 642.628906 434.121094 690.160156 L 419.882812 702.320312 C 415.839844 705.761719 412.832031 710.261719 411.144531 715.300781 C 402.492188 741.152344 399.699219 756.96875 402.792969 762.292969 C 406.363281 768.433594 412.464844 769.929688 416.855469 769.796875 C 416.207031 774.253906 416.011719 782.390625 422.199219 786.738281 C 426.894531 790.046875 431.695312 789.832031 435.179688 788.683594 C 435.09375 792.339844 435.785156 797.492188 439.808594 800.519531 C 443.835938 803.546875 449.546875 802.964844 453.351562 802.054688 C 453.117188 803.636719 453.09375 805.472656 453.699219 807.246094 C 454.476562 809.496094 456.058594 811.230469 458.414062 812.355469 C 459.476562 812.871094 460.773438 813.109375 462.265625 813.109375 C 464.558594 813.109375 467.285156 812.503906 470.183594 811.335938 C 475.160156 809.324219 492.1875 800.585938 502.617188 772.460938 C 505.363281 765.039062 506.378906 756.796875 505.535156 748.597656 Z M 498.527344 770.945312 C 488.703125 797.40625 473.085938 805.472656 468.539062 807.3125 C 464.558594 808.914062 461.507812 809.042969 460.253906 808.4375 C 458.976562 807.808594 458.15625 806.96875 457.765625 805.839844 C 457.03125 803.679688 457.960938 800.867188 458.4375 799.847656 L 478.210938 771.292969 C 478.882812 770.316406 478.644531 768.953125 477.671875 768.285156 C 476.675781 767.613281 475.335938 767.851562 474.664062 768.824219 L 455.171875 796.992188 C 452.335938 798.054688 445.867188 799.652344 442.382812 797.058594 C 438.46875 794.117188 439.527344 787.085938 439.789062 785.699219 L 456.945312 753.398438 C 457.507812 752.339844 457.097656 751.042969 456.058594 750.480469 C 454.996094 749.917969 453.699219 750.328125 453.136719 751.367188 L 436.066406 783.492188 C 434.746094 784.335938 429.902344 786.890625 424.664062 783.210938 C 418.910156 779.167969 421.289062 769.257812 421.59375 768.023438 L 436.433594 734.1875 C 436.910156 733.085938 436.414062 731.808594 435.332031 731.332031 C 434.226562 730.855469 432.953125 731.355469 432.476562 732.433594 L 418.023438 765.339844 C 415.664062 765.644531 409.78125 765.753906 406.492188 760.105469 C 404.71875 757.035156 406.058594 744.011719 415.210938 716.664062 C 416.660156 712.359375 419.234375 708.527344 422.675781 705.585938 L 437.515625 692.910156 C 437.90625 692.585938 438.164062 692.109375 438.253906 691.609375 C 446.191406 641.246094 422.914062 630.40625 420.46875 629.433594 L 408.398438 622.8125 C 396.476562 616.277344 389.683594 603.339844 391.066406 589.839844 C 392.734375 573.527344 398.640625 560.699219 408.613281 551.722656 C 417.570312 543.671875 430.789062 542.398438 441.519531 548.519531 C 480.9375 571.085938 502.246094 604.035156 504.84375 646.503906 C 506.789062 678.304688 496.902344 703.835938 496.816406 704.074219 C 496.6875 704.398438 496.644531 704.742188 496.6875 705.089844 L 501.230469 749.007812 C 501.988281 756.578125 501.058594 764.152344 498.527344 770.945312 Z M 173.207031 349.046875 C 171.519531 348.441406 169.703125 348.25 167.949219 348.421875 C 168.425781 345.933594 168.296875 342.558594 166.390625 338.554688 C 163.902344 333.296875 158.839844 332.195312 154.578125 332.542969 C 155.574219 329.296875 155.574219 324.839844 152.589844 319.796875 C 150.726562 316.683594 148.195312 314.734375 145.039062 313.957031 C 142.507812 313.351562 139.976562 313.609375 137.835938 314.171875 C 139.109375 309.804688 138.960938 304.113281 134.113281 299.136719 C 131.367188 296.324219 127.515625 295.222656 122.648438 295.914062 C 107.285156 298.078125 84.980469 317.894531 80.070312 327.089844 C 76.152344 334.445312 73.621094 340.003906 71.871094 345.15625 C 69.664062 351.667969 66.332031 358.265625 61.984375 364.777344 C 43.59375 392.339844 0.777344 460.597656 0.214844 499.949219 C 0.0429688 511.742188 3.851562 522.253906 11.488281 531.210938 C 19.578125 540.6875 30.808594 545.816406 42.816406 545.816406 C 46.339844 545.816406 49.933594 545.382812 53.523438 544.472656 C 69.640625 540.449219 81.867188 527.921875 85.414062 511.828125 L 106.703125 415.164062 L 124.226562 408.328125 L 144.453125 401.511719 C 151.097656 399.261719 157.152344 395.367188 161.957031 390.199219 C 183.9375 366.550781 182.078125 360.449219 181.472656 358.460938 C 180.085938 353.765625 177.144531 350.453125 173.207031 349.046875 Z M 158.820312 387.210938 C 154.515625 391.84375 149.085938 395.367188 143.113281 397.359375 L 122.777344 404.21875 L 104.0625 411.507812 C 103.390625 411.765625 102.894531 412.351562 102.742188 413.066406 L 81.195312 510.875 C 77.992188 525.371094 67.003906 536.640625 52.484375 540.253906 C 38.273438 543.804688 24.1875 539.367188 14.796875 528.398438 C 7.851562 520.265625 4.414062 510.722656 4.566406 500.015625 C 5.105469 461.828125 47.421875 394.417969 65.597656 367.222656 C 70.140625 360.40625 73.644531 353.460938 75.980469 346.582031 C 77.625 341.734375 80.132812 336.199219 83.898438 329.167969 C 88.226562 321.054688 109.644531 302.167969 123.273438 300.242188 C 124.03125 300.132812 124.722656 300.089844 125.394531 300.089844 C 127.796875 300.089844 129.65625 300.78125 131.019531 302.1875 C 137.035156 308.375 132.835938 315.429688 131.90625 316.792969 L 106.007812 335.484375 C 105.035156 336.175781 104.820312 337.539062 105.511719 338.511719 C 105.945312 339.097656 106.59375 339.398438 107.265625 339.398438 C 107.695312 339.398438 108.152344 339.269531 108.519531 338.988281 L 134.632812 320.144531 C 134.871094 320.015625 139.695312 317.160156 144 318.199219 C 146.011719 318.695312 147.589844 319.949219 148.847656 322.046875 C 152.976562 328.972656 149.515625 333.40625 148.933594 334.078125 L 120.375 355.820312 C 119.421875 356.535156 119.25 357.898438 119.964844 358.847656 C 120.398438 359.410156 121.023438 359.691406 121.695312 359.691406 C 122.148438 359.691406 122.601562 359.542969 122.992188 359.261719 L 151.421875 337.605469 C 152.871094 337.105469 159.921875 335.074219 162.453125 340.417969 C 165.246094 346.324219 162.953125 349.957031 162.539062 350.519531 L 136.148438 375.074219 C 135.28125 375.898438 135.214844 377.261719 136.039062 378.125 C 136.472656 378.578125 137.035156 378.816406 137.617188 378.816406 C 138.136719 378.816406 138.679688 378.625 139.089844 378.234375 L 165.484375 353.722656 C 167.234375 352.597656 169.617188 352.359375 171.757812 353.117188 C 173.597656 353.765625 176.0625 355.429688 177.359375 359.648438 C 178.203125 362.417969 173.769531 371.117188 158.820312 387.210938 Z M 158.820312 387.210938 " fill-opacity="1" fill-rule="nonzero"/><path fill="#009a57" d="M 203.367188 1218.304688 C 203.796875 1226.074219 197.632812 1232.585938 189.867188 1232.585938 L 45.996094 1232.585938 C 36.671875 1232.585938 30.222656 1223.410156 33.210938 1214.585938 C 43.355469 1184.640625 89.222656 1175.492188 102.699219 1173.4375 C 105.210938 1173.046875 107.546875 1171.964844 109.472656 1170.296875 L 140.128906 1143.730469 L 199.234375 1143.730469 Z M 335.316406 1218.304688 C 334.882812 1226.074219 341.046875 1232.585938 348.816406 1232.585938 L 492.683594 1232.585938 C 502.007812 1232.585938 508.457031 1223.410156 505.472656 1214.585938 C 495.324219 1184.640625 449.460938 1175.492188 435.980469 1173.4375 C 433.472656 1173.046875 431.132812 1171.964844 429.210938 1170.296875 L 398.554688 1143.730469 L 339.445312 1143.730469 Z M 335.316406 1218.304688 " fill-opacity="1" fill-rule="nonzero"/></svg>