<svg xmlns="http://www.w3.org/2000/svg" xmlns:xlink="http://www.w3.org/1999/xlink" width="882" zoomAndPan="magnify" viewBox="0 0 661.5 331.499995" height="442" preserveAspectRatio="xMidYMid meet" version="1.0"><defs><g/></defs><g fill="#333333" fill-opacity="1"><g transform="translate(63.339518, 212.242418)"><g><path d="M 10.265625 0 L 10.265625 -147.03125 L 40.515625 -147.03125 L 40.515625 -78.46875 L 40.859375 -78.46875 C 48.722656 -86.332031 57.101562 -90.265625 66 -90.265625 C 70.320312 -90.265625 74.617188 -89.695312 78.890625 -88.5625 C 83.171875 -87.425781 87.273438 -85.660156 91.203125 -83.265625 C 95.140625 -80.867188 98.332031 -77.472656 100.78125 -73.078125 C 103.238281 -68.691406 104.46875 -63.59375 104.46875 -57.78125 L 104.46875 0 L 74.203125 0 L 74.203125 -49.578125 C 74.203125 -54.140625 72.75 -58.128906 69.84375 -61.546875 C 66.9375 -64.960938 63.144531 -66.671875 58.46875 -66.671875 C 53.90625 -66.671875 49.769531 -64.90625 46.0625 -61.375 C 42.363281 -57.84375 40.515625 -53.910156 40.515625 -49.578125 L 40.515625 0 Z M 10.265625 0 "/></g></g></g><g fill="#333333" fill-opacity="1"><g transform="translate(163.010864, 212.242418)"><g><path d="M 18.546875 -10.421875 C 8.804688 -19.085938 3.9375 -30.203125 3.9375 -43.765625 C 3.9375 -57.328125 9.003906 -68.46875 19.140625 -77.1875 C 29.285156 -85.90625 41.828125 -90.265625 56.765625 -90.265625 C 71.460938 -90.265625 83.851562 -85.875 93.9375 -77.09375 C 104.03125 -68.320312 109.078125 -57.210938 109.078125 -43.765625 C 109.078125 -30.316406 104.144531 -19.234375 94.28125 -10.515625 C 84.425781 -1.796875 71.921875 2.5625 56.765625 2.5625 C 41.035156 2.5625 28.296875 -1.765625 18.546875 -10.421875 Z M 41.96875 -58.640625 C 38.039062 -54.765625 36.078125 -49.804688 36.078125 -43.765625 C 36.078125 -37.722656 37.957031 -32.789062 41.71875 -28.96875 C 45.476562 -25.15625 50.4375 -23.25 56.59375 -23.25 C 62.519531 -23.25 67.390625 -25.1875 71.203125 -29.0625 C 75.023438 -32.9375 76.9375 -37.835938 76.9375 -43.765625 C 76.9375 -49.804688 74.96875 -54.765625 71.03125 -58.640625 C 67.101562 -62.515625 62.289062 -64.453125 56.59375 -64.453125 C 50.78125 -64.453125 45.90625 -62.515625 41.96875 -58.640625 Z M 41.96875 -58.640625 "/></g></g></g><g fill="#333333" fill-opacity="1"><g transform="translate(262.68221, 212.242418)"><g><path d="M 38.8125 -87.703125 L 38.8125 -45.984375 C 38.8125 -37.328125 40.117188 -31.175781 42.734375 -27.53125 C 45.359375 -23.882812 49.804688 -22.0625 56.078125 -22.0625 C 62.347656 -22.0625 66.789062 -23.882812 69.40625 -27.53125 C 72.03125 -31.175781 73.34375 -37.328125 73.34375 -45.984375 L 73.34375 -87.703125 L 103.609375 -87.703125 L 103.609375 -38.640625 C 103.609375 -24.046875 99.816406 -13.53125 92.234375 -7.09375 C 84.660156 -0.65625 72.609375 2.5625 56.078125 2.5625 C 39.546875 2.5625 27.488281 -0.65625 19.90625 -7.09375 C 12.332031 -13.53125 8.546875 -24.046875 8.546875 -38.640625 L 8.546875 -87.703125 Z M 38.8125 -87.703125 "/></g></g></g><g fill="#333333" fill-opacity="1"><g transform="translate(361.498737, 212.242418)"><g><path d="M 48.390625 -90.265625 C 53.398438 -90.265625 58.351562 -89.695312 63.25 -88.5625 C 68.15625 -87.425781 71.804688 -86.285156 74.203125 -85.140625 L 77.796875 -83.4375 L 67.875 -63.59375 C 61.03125 -67.25 54.535156 -69.078125 48.390625 -69.078125 C 44.960938 -69.078125 42.535156 -68.703125 41.109375 -67.953125 C 39.691406 -67.210938 38.984375 -65.816406 38.984375 -63.765625 C 38.984375 -63.316406 39.039062 -62.863281 39.15625 -62.40625 C 39.269531 -61.945312 39.492188 -61.515625 39.828125 -61.109375 C 40.171875 -60.710938 40.484375 -60.375 40.765625 -60.09375 C 41.054688 -59.8125 41.539062 -59.5 42.21875 -59.15625 C 42.90625 -58.8125 43.445312 -58.550781 43.84375 -58.375 C 44.25 -58.207031 44.90625 -57.953125 45.8125 -57.609375 C 46.726562 -57.273438 47.414062 -57.019531 47.875 -56.84375 C 48.332031 -56.675781 49.097656 -56.421875 50.171875 -56.078125 C 51.253906 -55.734375 52.082031 -55.503906 52.65625 -55.390625 C 56.1875 -54.367188 59.265625 -53.226562 61.890625 -51.96875 C 64.515625 -50.71875 67.28125 -49.007812 70.1875 -46.84375 C 73.09375 -44.675781 75.34375 -41.941406 76.9375 -38.640625 C 78.53125 -35.335938 79.328125 -31.578125 79.328125 -27.359375 C 79.328125 -7.410156 65.476562 2.5625 37.78125 2.5625 C 31.507812 2.5625 25.550781 1.59375 19.90625 -0.34375 C 14.269531 -2.28125 10.195312 -4.21875 7.6875 -6.15625 L 3.9375 -9.234375 L 16.234375 -29.921875 C 17.148438 -29.117188 18.347656 -28.175781 19.828125 -27.09375 C 21.316406 -26.007812 24 -24.523438 27.875 -22.640625 C 31.75 -20.765625 35.109375 -19.828125 37.953125 -19.828125 C 44.222656 -19.828125 47.359375 -21.9375 47.359375 -26.15625 C 47.359375 -28.09375 46.5625 -29.601562 44.96875 -30.6875 C 43.375 -31.769531 40.664062 -32.992188 36.84375 -34.359375 C 33.019531 -35.734375 30.03125 -36.988281 27.875 -38.125 C 22.394531 -40.976562 18.0625 -44.195312 14.875 -47.78125 C 11.6875 -51.375 10.09375 -56.132812 10.09375 -62.0625 C 10.09375 -70.945312 13.539062 -77.867188 20.4375 -82.828125 C 27.332031 -87.785156 36.648438 -90.265625 48.390625 -90.265625 Z M 48.390625 -90.265625 "/></g></g></g><g fill="#333333" fill-opacity="1"><g transform="translate(432.277049, 212.242418)"><g><path d="M 98.984375 -39.671875 L 35.390625 -39.671875 C 35.390625 -33.515625 37.382812 -28.953125 41.375 -25.984375 C 45.363281 -23.023438 49.695312 -21.546875 54.375 -21.546875 C 59.269531 -21.546875 63.140625 -22.195312 65.984375 -23.5 C 68.835938 -24.8125 72.085938 -27.40625 75.734375 -31.28125 L 97.625 -20.34375 C 88.507812 -5.070312 73.347656 2.5625 52.140625 2.5625 C 38.921875 2.5625 27.582031 -1.96875 18.125 -11.03125 C 8.664062 -20.09375 3.9375 -31.003906 3.9375 -43.765625 C 3.9375 -56.535156 8.664062 -67.476562 18.125 -76.59375 C 27.582031 -85.707031 38.921875 -90.265625 52.140625 -90.265625 C 66.046875 -90.265625 77.359375 -86.25 86.078125 -78.21875 C 94.796875 -70.1875 99.15625 -58.703125 99.15625 -43.765625 C 99.15625 -41.710938 99.097656 -40.347656 98.984375 -39.671875 Z M 36.25 -56.421875 L 69.578125 -56.421875 C 68.898438 -60.984375 67.109375 -64.488281 64.203125 -66.9375 C 61.296875 -69.382812 57.5625 -70.609375 53 -70.609375 C 47.988281 -70.609375 44 -69.296875 41.03125 -66.671875 C 38.070312 -64.054688 36.476562 -60.640625 36.25 -56.421875 Z M 36.25 -56.421875 "/></g></g></g><g fill="#333333" fill-opacity="1"><g transform="translate(522.032444, 212.242418)"><g><path d="M 29.75 -36.59375 C 35.21875 -36.59375 39.859375 -34.679688 43.671875 -30.859375 C 47.492188 -27.035156 49.40625 -22.390625 49.40625 -16.921875 C 49.40625 -11.566406 47.492188 -6.976562 43.671875 -3.15625 C 39.859375 0.65625 35.21875 2.5625 29.75 2.5625 C 24.394531 2.5625 19.804688 0.65625 15.984375 -3.15625 C 12.171875 -6.976562 10.265625 -11.566406 10.265625 -16.921875 C 10.265625 -22.390625 12.171875 -27.035156 15.984375 -30.859375 C 19.804688 -34.679688 24.394531 -36.59375 29.75 -36.59375 Z M 29.75 -36.59375 "/></g></g></g><g fill="#333333" fill-opacity="1"><g transform="translate(116.879533, 258.533825)"><g><path d="M 2.796875 -20.859375 L 13.546875 -20.859375 L 13.546875 -18.828125 L 4.984375 -18.828125 L 4.984375 -11.203125 L 11.515625 -11.203125 L 11.515625 -9.1875 L 4.984375 -9.1875 L 4.984375 0 L 2.796875 0 Z M 2.796875 -20.859375 "/></g></g></g><g fill="#333333" fill-opacity="1"><g transform="translate(141.00041, 258.533825)"><g><path d="M 8.875 -21.46875 L 9.5 -21.46875 L 17.4375 0 L 15.03125 0 L 13.078125 -5.484375 L 5.171875 -5.484375 L 3.203125 0 L 0.9375 0 Z M 12.359375 -7.5 L 9.125 -16.53125 L 5.875 -7.5 Z M 12.359375 -7.5 "/></g></g></g><g fill="#333333" fill-opacity="1"><g transform="translate(168.699148, 258.533825)"><g><path d="M 11.890625 0.3125 C 10.421875 0.3125 9.054688 0.0351562 7.796875 -0.515625 C 6.535156 -1.066406 5.441406 -1.8125 4.515625 -2.75 C 3.597656 -3.695312 2.875 -4.816406 2.34375 -6.109375 C 1.820312 -7.410156 1.5625 -8.804688 1.5625 -10.296875 C 1.5625 -11.835938 1.832031 -13.265625 2.375 -14.578125 C 2.925781 -15.898438 3.671875 -17.046875 4.609375 -18.015625 C 5.554688 -18.992188 6.660156 -19.765625 7.921875 -20.328125 C 9.191406 -20.890625 10.546875 -21.171875 11.984375 -21.171875 C 13.535156 -21.171875 14.984375 -20.84375 16.328125 -20.1875 C 17.679688 -19.53125 18.847656 -18.640625 19.828125 -17.515625 L 18.171875 -16.125 C 17.367188 -17.050781 16.4375 -17.765625 15.375 -18.265625 C 14.3125 -18.765625 13.160156 -19.015625 11.921875 -19.015625 C 10.753906 -19.015625 9.679688 -18.800781 8.703125 -18.375 C 7.734375 -17.945312 6.890625 -17.347656 6.171875 -16.578125 C 5.460938 -15.816406 4.90625 -14.914062 4.5 -13.875 C 4.09375 -12.84375 3.890625 -11.703125 3.890625 -10.453125 C 3.890625 -9.210938 4.09375 -8.0625 4.5 -7 C 4.90625 -5.945312 5.46875 -5.039062 6.1875 -4.28125 C 6.914062 -3.519531 7.773438 -2.921875 8.765625 -2.484375 C 9.765625 -2.054688 10.859375 -1.84375 12.046875 -1.84375 C 13.347656 -1.84375 14.53125 -2.097656 15.59375 -2.609375 C 16.65625 -3.128906 17.546875 -3.828125 18.265625 -4.703125 L 19.828125 -3.359375 C 18.847656 -2.222656 17.679688 -1.328125 16.328125 -0.671875 C 14.984375 -0.015625 13.503906 0.3125 11.890625 0.3125 Z M 11.890625 0.3125 "/></g></g></g><g fill="#333333" fill-opacity="1"><g transform="translate(199.260183, 258.533825)"><g><path d="M 2.796875 -20.859375 L 4.984375 -20.859375 L 4.984375 0 L 2.796875 0 Z M 2.796875 -20.859375 "/></g></g></g><g fill="#333333" fill-opacity="1"><g transform="translate(216.380937, 258.533825)"><g><path d="M 2.796875 -20.859375 L 4.984375 -20.859375 L 4.984375 -2.015625 L 13.390625 -2.015625 L 13.390625 0 L 2.796875 0 Z M 2.796875 -20.859375 "/></g></g></g><g fill="#333333" fill-opacity="1"><g transform="translate(240.501819, 258.533825)"><g><path d="M 2.796875 -20.859375 L 4.984375 -20.859375 L 4.984375 0 L 2.796875 0 Z M 2.796875 -20.859375 "/></g></g></g><g fill="#333333" fill-opacity="1"><g transform="translate(257.622573, 258.533825)"><g><path d="M 7.78125 -18.828125 L 0.9375 -18.828125 L 0.9375 -20.859375 L 16.8125 -20.859375 L 16.8125 -18.828125 L 9.953125 -18.828125 L 9.953125 0 L 7.78125 0 Z M 7.78125 -18.828125 "/></g></g></g><g fill="#333333" fill-opacity="1"><g transform="translate(284.699091, 258.533825)"><g><path d="M 7 -8.09375 L 0.625 -20.859375 L 3.078125 -20.859375 L 8.25 -10.515625 L 13.515625 -20.859375 L 15.78125 -20.859375 L 9.1875 -8.09375 L 9.1875 0 L 7 0 Z M 7 -8.09375 "/></g></g></g><g fill="#333333" fill-opacity="1"><g transform="translate(310.437792, 258.533825)"><g/></g></g><g fill="#333333" fill-opacity="1"><g transform="translate(326.625174, 258.533825)"><g><path d="M 7.8125 0.3125 C 6.40625 0.3125 5.101562 -0.0234375 3.90625 -0.703125 C 2.707031 -1.378906 1.71875 -2.347656 0.9375 -3.609375 L 2.609375 -4.984375 C 4.066406 -2.785156 5.8125 -1.6875 7.84375 -1.6875 C 9.070312 -1.6875 10.054688 -2.015625 10.796875 -2.671875 C 11.546875 -3.335938 11.921875 -4.222656 11.921875 -5.328125 C 11.921875 -6.273438 11.582031 -7.09375 10.90625 -7.78125 C 10.226562 -8.46875 9.144531 -9.113281 7.65625 -9.71875 C 5.769531 -10.4375 4.40625 -11.28125 3.5625 -12.25 C 2.71875 -13.226562 2.296875 -14.394531 2.296875 -15.75 C 2.296875 -16.5625 2.429688 -17.296875 2.703125 -17.953125 C 2.972656 -18.617188 3.359375 -19.191406 3.859375 -19.671875 C 4.359375 -20.148438 4.953125 -20.519531 5.640625 -20.78125 C 6.335938 -21.039062 7.113281 -21.171875 7.96875 -21.171875 C 10.351562 -21.171875 12.320312 -20.109375 13.875 -17.984375 L 12.203125 -16.625 C 11.578125 -17.488281 10.914062 -18.125 10.21875 -18.53125 C 9.53125 -18.9375 8.769531 -19.140625 7.9375 -19.140625 C 6.875 -19.140625 6.03125 -18.847656 5.40625 -18.265625 C 4.789062 -17.691406 4.484375 -16.914062 4.484375 -15.9375 C 4.484375 -15 4.796875 -14.203125 5.421875 -13.546875 C 6.054688 -12.898438 7.113281 -12.285156 8.59375 -11.703125 C 10.476562 -10.972656 11.863281 -10.101562 12.75 -9.09375 C 13.644531 -8.09375 14.09375 -6.898438 14.09375 -5.515625 C 14.09375 -4.660156 13.9375 -3.875 13.625 -3.15625 C 13.320312 -2.4375 12.890625 -1.816406 12.328125 -1.296875 C 11.765625 -0.785156 11.097656 -0.390625 10.328125 -0.109375 C 9.566406 0.171875 8.726562 0.3125 7.8125 0.3125 Z M 7.8125 0.3125 "/></g></g></g><g fill="#333333" fill-opacity="1"><g transform="translate(351.617206, 258.533825)"><g><path d="M 2.796875 -20.859375 L 13.546875 -20.859375 L 13.546875 -18.828125 L 4.984375 -18.828125 L 4.984375 -11.828125 L 11.515625 -11.828125 L 11.515625 -9.796875 L 4.984375 -9.796875 L 4.984375 -2.015625 L 13.6875 -2.015625 L 13.6875 0 L 2.796875 0 Z M 2.796875 -20.859375 "/></g></g></g><g fill="#333333" fill-opacity="1"><g transform="translate(376.515904, 258.533825)"><g><path d="M 2.796875 -20.859375 L 7.78125 -20.859375 C 8.820312 -20.859375 9.78125 -20.707031 10.65625 -20.40625 C 11.539062 -20.101562 12.296875 -19.675781 12.921875 -19.125 C 13.554688 -18.570312 14.050781 -17.921875 14.40625 -17.171875 C 14.757812 -16.429688 14.9375 -15.613281 14.9375 -14.71875 C 14.9375 -13.988281 14.820312 -13.304688 14.59375 -12.671875 C 14.363281 -12.046875 14.039062 -11.476562 13.625 -10.96875 C 13.21875 -10.457031 12.722656 -10.019531 12.140625 -9.65625 C 11.554688 -9.300781 10.921875 -9.03125 10.234375 -8.84375 L 16.1875 0 L 13.578125 0 L 7.78125 -8.59375 L 4.984375 -8.59375 L 4.984375 0 L 2.796875 0 Z M 7.78125 -10.609375 C 9.269531 -10.609375 10.472656 -10.984375 11.390625 -11.734375 C 12.304688 -12.484375 12.765625 -13.488281 12.765625 -14.75 C 12.765625 -16 12.304688 -16.988281 11.390625 -17.71875 C 10.472656 -18.457031 9.269531 -18.828125 7.78125 -18.828125 L 4.984375 -18.828125 L 4.984375 -10.609375 Z M 7.78125 -10.609375 "/></g></g></g><g fill="#333333" fill-opacity="1"><g transform="translate(403.28131, 258.533825)"><g><path d="M 0.9375 -20.859375 L 3.234375 -20.859375 L 8.9375 -4.546875 L 14.96875 -20.859375 L 17.125 -20.859375 L 9.125 0.625 L 8.5 0.625 Z M 0.9375 -20.859375 "/></g></g></g><g fill="#333333" fill-opacity="1"><g transform="translate(430.668939, 258.533825)"><g><path d="M 2.796875 -20.859375 L 4.984375 -20.859375 L 4.984375 0 L 2.796875 0 Z M 2.796875 -20.859375 "/></g></g></g><g fill="#333333" fill-opacity="1"><g transform="translate(447.789676, 258.533825)"><g><path d="M 11.890625 0.3125 C 10.421875 0.3125 9.054688 0.0351562 7.796875 -0.515625 C 6.535156 -1.066406 5.441406 -1.8125 4.515625 -2.75 C 3.597656 -3.695312 2.875 -4.816406 2.34375 -6.109375 C 1.820312 -7.410156 1.5625 -8.804688 1.5625 -10.296875 C 1.5625 -11.835938 1.832031 -13.265625 2.375 -14.578125 C 2.925781 -15.898438 3.671875 -17.046875 4.609375 -18.015625 C 5.554688 -18.992188 6.660156 -19.765625 7.921875 -20.328125 C 9.191406 -20.890625 10.546875 -21.171875 11.984375 -21.171875 C 13.535156 -21.171875 14.984375 -20.84375 16.328125 -20.1875 C 17.679688 -19.53125 18.847656 -18.640625 19.828125 -17.515625 L 18.171875 -16.125 C 17.367188 -17.050781 16.4375 -17.765625 15.375 -18.265625 C 14.3125 -18.765625 13.160156 -19.015625 11.921875 -19.015625 C 10.753906 -19.015625 9.679688 -18.800781 8.703125 -18.375 C 7.734375 -17.945312 6.890625 -17.347656 6.171875 -16.578125 C 5.460938 -15.816406 4.90625 -14.914062 4.5 -13.875 C 4.09375 -12.84375 3.890625 -11.703125 3.890625 -10.453125 C 3.890625 -9.210938 4.09375 -8.0625 4.5 -7 C 4.90625 -5.945312 5.46875 -5.039062 6.1875 -4.28125 C 6.914062 -3.519531 7.773438 -2.921875 8.765625 -2.484375 C 9.765625 -2.054688 10.859375 -1.84375 12.046875 -1.84375 C 13.347656 -1.84375 14.53125 -2.097656 15.59375 -2.609375 C 16.65625 -3.128906 17.546875 -3.828125 18.265625 -4.703125 L 19.828125 -3.359375 C 18.847656 -2.222656 17.679688 -1.328125 16.328125 -0.671875 C 14.984375 -0.015625 13.503906 0.3125 11.890625 0.3125 Z M 11.890625 0.3125 "/></g></g></g><g fill="#333333" fill-opacity="1"><g transform="translate(478.350702, 258.533825)"><g><path d="M 2.796875 -20.859375 L 13.546875 -20.859375 L 13.546875 -18.828125 L 4.984375 -18.828125 L 4.984375 -11.828125 L 11.515625 -11.828125 L 11.515625 -9.796875 L 4.984375 -9.796875 L 4.984375 -2.015625 L 13.6875 -2.015625 L 13.6875 0 L 2.796875 0 Z M 2.796875 -20.859375 "/></g></g></g><g fill="#333333" fill-opacity="1"><g transform="translate(503.249381, 258.533825)"><g><path d="M 7.8125 0.3125 C 6.40625 0.3125 5.101562 -0.0234375 3.90625 -0.703125 C 2.707031 -1.378906 1.71875 -2.347656 0.9375 -3.609375 L 2.609375 -4.984375 C 4.066406 -2.785156 5.8125 -1.6875 7.84375 -1.6875 C 9.070312 -1.6875 10.054688 -2.015625 10.796875 -2.671875 C 11.546875 -3.335938 11.921875 -4.222656 11.921875 -5.328125 C 11.921875 -6.273438 11.582031 -7.09375 10.90625 -7.78125 C 10.226562 -8.46875 9.144531 -9.113281 7.65625 -9.71875 C 5.769531 -10.4375 4.40625 -11.28125 3.5625 -12.25 C 2.71875 -13.226562 2.296875 -14.394531 2.296875 -15.75 C 2.296875 -16.5625 2.429688 -17.296875 2.703125 -17.953125 C 2.972656 -18.617188 3.359375 -19.191406 3.859375 -19.671875 C 4.359375 -20.148438 4.953125 -20.519531 5.640625 -20.78125 C 6.335938 -21.039062 7.113281 -21.171875 7.96875 -21.171875 C 10.351562 -21.171875 12.320312 -20.109375 13.875 -17.984375 L 12.203125 -16.625 C 11.578125 -17.488281 10.914062 -18.125 10.21875 -18.53125 C 9.53125 -18.9375 8.769531 -19.140625 7.9375 -19.140625 C 6.875 -19.140625 6.03125 -18.847656 5.40625 -18.265625 C 4.789062 -17.691406 4.484375 -16.914062 4.484375 -15.9375 C 4.484375 -15 4.796875 -14.203125 5.421875 -13.546875 C 6.054688 -12.898438 7.113281 -12.285156 8.59375 -11.703125 C 10.476562 -10.972656 11.863281 -10.101562 12.75 -9.09375 C 13.644531 -8.09375 14.09375 -6.898438 14.09375 -5.515625 C 14.09375 -4.660156 13.9375 -3.875 13.625 -3.15625 C 13.320312 -2.4375 12.890625 -1.816406 12.328125 -1.296875 C 11.765625 -0.785156 11.097656 -0.390625 10.328125 -0.109375 C 9.566406 0.171875 8.726562 0.3125 7.8125 0.3125 Z M 7.8125 0.3125 "/></g></g></g></svg>