<svg xmlns="http://www.w3.org/2000/svg" xmlns:xlink="http://www.w3.org/1999/xlink" width="1080" zoomAndPan="magnify" viewBox="0 0 810 1439.999935" height="1920" preserveAspectRatio="xMidYMid meet" version="1.0"><defs><clipPath id="a467acb566"><path d="M 147 303 L 500 303 L 500 1341 L 147 1341 Z M 147 303 " clip-rule="nonzero"/></clipPath></defs><path fill="#ffffff" d="M 459.34375 306.519531 L 455.957031 377.945312 L 232.511719 377.945312 L 235.820312 308.265625 L 198.792969 306.519531 L 149.71875 1338.460938 L 186.828125 1338.433594 L 191.011719 1250.710938 L 414.453125 1250.710938 L 410.273438 1338.460938 L 447.378906 1338.433594 L 496.453125 306.679688 Z M 454.183594 414.980469 L 449.3125 517.226562 L 225.867188 517.226562 L 230.738281 414.980469 Z M 206.019531 935.089844 L 210.886719 832.847656 L 434.332031 832.847656 L 429.460938 935.089844 Z M 427.6875 972.125 L 422.816406 1074.371094 L 199.375 1074.371094 L 204.246094 972.125 Z M 212.636719 795.8125 L 217.503906 693.566406 L 440.949219 693.566406 L 436.078125 795.8125 Z M 219.25 656.53125 L 224.121094 554.285156 L 447.566406 554.285156 L 442.695312 656.53125 Z M 192.757812 1213.675781 L 197.628906 1111.433594 L 421.070312 1111.433594 L 416.199219 1213.675781 Z M 192.757812 1213.675781 " fill-opacity="1" fill-rule="nonzero"/><g clip-path="url(#a467acb566)"><path fill="#000000" d="M 410.273438 1341.105469 C 409.558594 1341.105469 408.84375 1340.816406 408.367188 1340.285156 C 407.863281 1339.757812 407.597656 1339.070312 407.625 1338.328125 L 411.675781 1253.359375 L 193.523438 1253.359375 L 189.476562 1338.566406 C 189.394531 1339.96875 188.257812 1341.078125 186.828125 1341.078125 L 149.71875 1341.105469 C 149.003906 1341.105469 148.292969 1340.816406 147.816406 1340.285156 C 147.339844 1339.757812 147.046875 1339.070312 147.074219 1338.328125 L 196.171875 306.386719 C 196.199219 305.671875 196.515625 305.039062 197.046875 304.5625 C 197.574219 304.085938 198.261719 303.847656 198.949219 303.875 L 235.953125 305.648438 C 237.410156 305.726562 238.546875 306.941406 238.46875 308.425781 L 235.292969 375.328125 L 453.414062 375.328125 L 456.695312 306.414062 C 456.777344 305.011719 457.941406 303.902344 459.34375 303.902344 L 496.425781 304.058594 C 497.140625 304.058594 497.828125 304.351562 498.332031 304.878906 C 498.832031 305.410156 499.097656 306.097656 499.046875 306.835938 L 449.972656 1338.59375 C 449.894531 1339.996094 448.757812 1341.105469 447.328125 1341.105469 Z M 190.984375 1248.066406 L 414.425781 1248.066406 C 415.140625 1248.066406 415.855469 1248.359375 416.332031 1248.886719 C 416.835938 1249.417969 417.101562 1250.105469 417.074219 1250.84375 L 413.023438 1335.816406 L 444.839844 1335.789062 L 493.644531 309.324219 L 461.859375 309.191406 L 458.574219 378.105469 C 458.496094 379.507812 457.359375 380.617188 455.929688 380.617188 L 232.511719 380.617188 C 231.796875 380.617188 231.082031 380.324219 230.605469 379.796875 C 230.105469 379.269531 229.839844 378.578125 229.867188 377.839844 L 233.042969 310.804688 L 201.332031 309.296875 L 152.5 1335.816406 L 184.289062 1335.789062 L 188.335938 1250.582031 C 188.417969 1249.179688 189.582031 1248.066406 190.984375 1248.066406 Z M 416.199219 1216.324219 L 192.757812 1216.324219 C 192.042969 1216.324219 191.328125 1216.03125 190.851562 1215.503906 C 190.347656 1214.972656 190.085938 1214.285156 190.109375 1213.546875 L 194.980469 1111.300781 C 195.058594 1109.898438 196.226562 1108.789062 197.628906 1108.789062 L 421.070312 1108.789062 C 421.785156 1108.789062 422.5 1109.078125 422.976562 1109.609375 C 423.480469 1110.136719 423.742188 1110.824219 423.71875 1111.566406 L 418.847656 1213.808594 C 418.769531 1215.210938 417.601562 1216.324219 416.199219 1216.324219 Z M 195.535156 1211.03125 L 413.6875 1211.03125 L 418.292969 1114.078125 L 200.140625 1114.078125 Z M 422.816406 1077.042969 L 199.375 1077.042969 C 198.660156 1077.042969 197.945312 1076.75 197.46875 1076.222656 C 196.964844 1075.695312 196.699219 1075.003906 196.726562 1074.265625 L 201.597656 972.019531 C 201.675781 970.617188 202.839844 969.507812 204.246094 969.507812 L 427.6875 969.507812 C 428.402344 969.507812 429.117188 969.796875 429.59375 970.328125 C 430.097656 970.855469 430.359375 971.542969 430.335938 972.285156 L 425.464844 1074.53125 C 425.410156 1075.933594 424.246094 1077.042969 422.816406 1077.042969 Z M 202.152344 1071.75 L 420.304688 1071.75 L 424.910156 974.796875 L 206.757812 974.796875 Z M 429.460938 937.738281 L 206.019531 937.738281 C 205.304688 937.738281 204.589844 937.445312 204.113281 936.917969 C 203.609375 936.386719 203.34375 935.699219 203.371094 934.957031 L 208.242188 832.714844 C 208.320312 831.3125 209.484375 830.203125 210.886719 830.203125 L 434.332031 830.203125 C 435.046875 830.203125 435.761719 830.492188 436.238281 831.019531 C 436.738281 831.550781 437.003906 832.238281 436.976562 832.980469 L 432.109375 935.222656 C 432.027344 936.625 430.863281 937.738281 429.460938 937.738281 Z M 208.769531 932.445312 L 426.921875 932.445312 L 431.527344 835.492188 L 213.402344 835.492188 Z M 436.078125 798.457031 L 212.636719 798.457031 C 211.921875 798.457031 211.207031 798.164062 210.730469 797.636719 C 210.226562 797.105469 209.960938 796.417969 209.988281 795.679688 L 214.859375 693.433594 C 214.9375 692.03125 216.101562 690.921875 217.503906 690.921875 L 440.949219 690.921875 C 441.664062 690.921875 442.378906 691.210938 442.855469 691.742188 C 443.355469 692.269531 443.621094 692.957031 443.59375 693.699219 L 438.726562 795.945312 C 438.644531 797.34375 437.480469 798.457031 436.078125 798.457031 Z M 215.414062 793.164062 L 433.5625 793.164062 L 438.167969 696.210938 L 220.019531 696.210938 Z M 442.695312 659.175781 L 219.25 659.175781 C 218.539062 659.175781 217.824219 658.886719 217.347656 658.355469 C 216.84375 657.828125 216.578125 657.140625 216.605469 656.398438 L 221.476562 554.15625 C 221.554688 552.753906 222.71875 551.640625 224.121094 551.640625 L 447.566406 551.640625 C 448.28125 551.640625 448.996094 551.933594 449.472656 552.460938 C 449.972656 552.992188 450.238281 553.679688 450.210938 554.417969 L 445.34375 656.664062 C 445.289062 658.066406 444.125 659.175781 442.695312 659.175781 Z M 222.03125 653.886719 L 440.179688 653.886719 L 444.785156 556.933594 L 226.636719 556.933594 Z M 449.3125 519.898438 L 225.867188 519.898438 C 225.152344 519.898438 224.441406 519.605469 223.964844 519.078125 C 223.460938 518.546875 223.195312 517.859375 223.222656 517.121094 L 228.09375 414.875 C 228.171875 413.472656 229.335938 412.363281 230.738281 412.363281 L 454.183594 412.363281 C 454.898438 412.363281 455.613281 412.652344 456.089844 413.183594 C 456.589844 413.710938 456.855469 414.398438 456.828125 415.140625 L 451.957031 517.382812 C 451.90625 518.785156 450.742188 519.898438 449.3125 519.898438 Z M 228.648438 514.605469 L 446.796875 514.605469 L 451.402344 417.652344 L 233.28125 417.652344 Z M 228.648438 514.605469 " fill-opacity="1" fill-rule="nonzero"/></g><path fill="#22a454" d="M 392.21875 1188.996094 C 399.261719 1201.984375 389.601562 1217.777344 374.832031 1217.777344 L 287.355469 1217.777344 C 267.898438 1217.777344 250.535156 1205.53125 244.160156 1187.171875 C 239.84375 1174.761719 232.988281 1162.117188 222.269531 1156.878906 C 217.265625 1154.421875 213.429688 1150.082031 211.839844 1144.738281 C 207.394531 1129.5 204.535156 1099.132812 237.011719 1069.1875 C 282.933594 1026.859375 289.472656 1021.648438 303.207031 1058.367188 C 303.207031 1058.367188 318.71875 1099.847656 329.410156 1128.257812 C 331.53125 1133.867188 335.765625 1138.390625 341.214844 1140.929688 C 353.523438 1146.644531 376.789062 1160.53125 392.21875 1188.996094 Z M 365.859375 845.96875 C 366.785156 845.28125 367.3125 844.9375 367.3125 844.9375 C 367.3125 844.9375 366.175781 845.28125 365.859375 845.96875 Z M 429.171875 863.878906 C 370.835938 853.296875 364.957031 848.003906 365.859375 845.996094 C 359.480469 850.757812 333.726562 872.449219 326.128906 917.65625 C 324.117188 929.589844 333.433594 940.433594 345.53125 940.433594 L 510.375 940.433594 C 527.234375 940.433594 536.445312 920.460938 525.195312 907.921875 C 510.769531 891.734375 482.898438 873.613281 429.171875 863.878906 Z M 722.039062 383.078125 L 715.183594 375.089844 C 703.140625 361.066406 681.835938 359.425781 667.804688 371.464844 L 606.398438 424.105469 C 592.371094 436.144531 590.730469 457.4375 602.773438 471.460938 L 609.628906 479.449219 C 621.671875 493.46875 642.980469 495.109375 657.007812 483.074219 L 718.414062 430.429688 C 732.441406 418.417969 734.054688 397.097656 722.039062 383.078125 Z M 722.039062 383.078125 " fill-opacity="1" fill-rule="nonzero"/><path fill="#ffffff" d="M 656.796875 394.371094 L 624.265625 422.175781 C 624.082031 422.335938 623.867188 422.441406 623.683594 422.574219 L 623.179688 423.023438 C 594.355469 448.023438 565.957031 432.015625 565.957031 432.015625 C 565.957031 432.015625 533.058594 479.527344 481.710938 487.859375 C 430.359375 496.195312 404.210938 469.394531 404.210938 469.394531 L 415.9375 383.84375 C 484.195312 402.96875 529.007812 356.386719 529.007812 356.386719 C 522.257812 321.941406 560.53125 287.949219 560.53125 287.949219 L 583.503906 307.101562 C 608.066406 285.25 630.140625 287.949219 631.253906 303.160156 C 631.996094 313.132812 619.394531 323.265625 611.585938 328.582031 C 615.636719 328.449219 619.6875 330.011719 622.519531 333.289062 C 627.441406 339.03125 626.753906 347.734375 621.011719 352.65625 C 626.753906 347.734375 635.460938 348.421875 640.386719 354.164062 C 645.308594 359.902344 644.621094 368.605469 638.875 373.527344 C 644.621094 368.605469 653.328125 369.292969 658.25 375.035156 C 663.175781 380.777344 662.539062 389.480469 656.796875 394.371094 Z M 656.796875 394.371094 " fill-opacity="1" fill-rule="nonzero"/><path fill="#000000" d="M 660.316406 373.289062 C 656.582031 368.925781 651.023438 367.019531 645.707031 367.707031 C 647.214844 362.574219 646.179688 356.78125 642.449219 352.417969 C 638.71875 348.050781 633.160156 346.148438 627.839844 346.835938 C 629.347656 341.703125 628.316406 335.910156 624.582031 331.546875 C 622.863281 329.507812 620.667969 328 618.230469 327.019531 C 626.648438 320.488281 634.613281 311.863281 633.953125 302.921875 C 633.503906 296.835938 630.195312 292.234375 624.664062 289.984375 C 616.324219 286.625 601.265625 288.503906 583.53125 303.582031 L 562.277344 285.886719 C 561.273438 285.039062 559.816406 285.066406 558.835938 285.9375 C 557.25 287.339844 520.484375 320.433594 526.203125 355.433594 C 519.453125 361.78125 477.234375 398.234375 416.675781 381.277344 C 415.9375 381.066406 415.140625 381.199219 414.507812 381.621094 C 413.871094 382.046875 413.449219 382.707031 413.34375 383.472656 L 401.644531 469.027344 C 401.539062 469.847656 401.800781 470.640625 402.359375 471.222656 C 403.3125 472.199219 423.242188 492.09375 462.203125 492.09375 C 468.371094 492.09375 475.039062 491.589844 482.183594 490.425781 C 528.929688 482.863281 560.132812 444.316406 566.855469 435.324219 C 574.269531 438.523438 599.675781 446.882812 624.980469 424.953125 L 625.378906 424.609375 C 625.589844 424.476562 625.800781 424.34375 626.011719 424.160156 L 658.542969 396.355469 C 665.371094 390.511719 666.191406 380.167969 660.316406 373.289062 Z M 655.074219 392.363281 L 622.546875 420.191406 C 622.386719 420.296875 622.253906 420.378906 621.9375 420.640625 L 621.488281 421.039062 C 594.464844 444.449219 568.390625 430.351562 567.308594 429.742188 C 566.117188 429.054688 564.605469 429.425781 563.839844 430.535156 C 563.523438 431.011719 530.964844 477.226562 481.339844 485.269531 C 437.214844 492.4375 412.070312 472.808594 407.070312 468.417969 L 418.1875 387.203125 C 428.851562 389.929688 438.964844 391.09375 448.414062 391.09375 C 498.648438 391.09375 530.570312 358.632812 530.964844 358.238281 C 531.574219 357.628906 531.8125 356.730469 531.65625 355.882812 C 526.042969 327.367188 553.570312 298.425781 560.691406 291.492188 L 581.863281 309.136719 C 582.871094 309.984375 584.351562 309.957031 585.332031 309.085938 C 602.03125 294.246094 615.902344 292.179688 622.703125 294.933594 C 626.332031 296.386719 628.394531 299.296875 628.710938 303.34375 C 629.109375 308.582031 624.558594 315.195312 616.0625 322.023438 L 597.824219 334.878906 C 596.632812 335.726562 596.34375 337.363281 597.1875 338.554688 C 597.71875 339.296875 598.511719 339.667969 599.359375 339.667969 C 599.890625 339.667969 600.417969 339.507812 600.894531 339.191406 L 612.195312 331.226562 C 615.480469 331.226562 618.523438 332.578125 620.585938 334.984375 C 624.558594 339.640625 624.027344 346.648438 619.371094 350.617188 C 618.761719 351.148438 618.441406 351.886719 618.441406 352.628906 C 618.441406 353.238281 618.65625 353.84375 619.078125 354.347656 C 620.03125 355.460938 621.699219 355.589844 622.808594 354.640625 C 625.058594 352.734375 627.917969 351.808594 630.882812 352.019531 C 633.847656 352.257812 636.546875 353.609375 638.453125 355.855469 C 642.421875 360.511719 641.894531 367.523438 637.234375 371.492188 C 636.625 372.019531 636.308594 372.761719 636.308594 373.5 C 636.308594 374.109375 636.519531 374.71875 636.945312 375.21875 C 637.898438 376.332031 639.566406 376.464844 640.675781 375.511719 C 645.335938 371.542969 652.347656 372.074219 656.320312 376.726562 C 660.261719 381.382812 659.707031 388.394531 655.074219 392.363281 Z M 506.058594 648.621094 C 548.648438 718.882812 466.570312 841.417969 448.28125 867.132812 C 446.164062 870.121094 442.589844 871.707031 438.9375 871.285156 L 360.960938 862.34375 C 354.082031 861.550781 350.03125 854.222656 353.019531 847.976562 C 367.765625 817.449219 399.632812 740.8125 360.960938 717.558594 C 333.488281 701.027344 302.863281 698.699219 281.398438 699.785156 C 265.941406 700.578125 254.164062 713.855469 255.117188 729.28125 C 257.605469 769.382812 261.917969 812.34375 268.746094 857.6875 C 279.464844 928.714844 294.5 992.8125 310.9375 1049.214844 C 314.90625 1062.863281 307.894531 1077.28125 294.738281 1082.675781 C 292.355469 1083.65625 289.921875 1084.609375 287.433594 1085.507812 C 272.054688 1091.117188 251.011719 1097.199219 224.625 1101.25 C 210.542969 1103.417969 197.046875 1094.765625 193.367188 1081.011719 C 172.960938 1005.21875 109.992188 762.347656 105.332031 635.792969 C 100.171875 495.71875 327.109375 562.992188 360.617188 573.652344 C 363.265625 574.496094 366.042969 574.921875 368.847656 574.921875 C 387.402344 575.027344 464.292969 579.683594 506.058594 648.621094 Z M 506.058594 648.621094 " fill-opacity="1" fill-rule="nonzero"/><path fill="#22a454" d="M 364.71875 575 C 289.152344 617.300781 203.582031 638.410156 117.003906 636.109375 L 105.332031 635.792969 C 105.332031 635.792969 81.351562 453.761719 124.917969 359.535156 C 168.484375 265.304688 251.277344 252.816406 251.277344 252.816406 L 273.0625 301.441406 C 273.0625 301.441406 384.414062 287.605469 356.542969 388.578125 C 328.671875 489.582031 364.71875 575 364.71875 575 Z M 364.71875 575 " fill-opacity="1" fill-rule="nonzero"/><path fill="#ffffff" d="M 394.390625 217.871094 C 392.40625 224.035156 386.554688 227.925781 380.390625 227.738281 C 373.136719 255.464844 345.320312 272.949219 317.183594 267.445312 L 308.898438 297.761719 C 308.898438 297.761719 259.617188 311.519531 212.316406 271.496094 L 254.03125 193.058594 C 254.03125 193.058594 258 196.710938 274.515625 201.445312 L 284.390625 157.929688 C 291.035156 128.667969 320.414062 110.179688 349.6875 116.820312 C 378.960938 123.457031 397.460938 152.824219 390.816406 182.082031 L 386.636719 200.492188 C 393.171875 203.429688 396.613281 210.914062 394.390625 217.871094 Z M 394.390625 217.871094 " fill-opacity="1" fill-rule="nonzero"/><path fill="#000000" d="M 396.90625 218.667969 C 394.839844 225.09375 389.042969 229.644531 382.402344 230.304688 C 374.273438 257.527344 347.117188 274.695312 319.089844 270.464844 L 311.441406 298.449219 C 311.121094 299.613281 310.0625 300.410156 308.898438 300.410156 C 308.660156 300.410156 308.421875 300.382812 308.210938 300.304688 C 306.808594 299.90625 305.960938 298.449219 306.359375 297.050781 L 314.644531 266.757812 C 315.011719 265.410156 316.363281 264.589844 317.714844 264.855469 C 318.773438 265.066406 319.832031 265.171875 320.890625 265.304688 L 325.28125 251.390625 C 325.734375 249.988281 327.214844 249.21875 328.589844 249.671875 C 329.996094 250.121094 330.761719 251.601562 330.3125 252.976562 L 326.289062 265.753906 C 327.53125 265.78125 328.75 265.753906 329.996094 265.699219 L 334.96875 250.226562 C 335.421875 248.824219 336.902344 248.082031 338.304688 248.507812 C 339.707031 248.957031 340.449219 250.4375 340.027344 251.839844 L 335.738281 265.121094 C 336.902344 264.933594 338.066406 264.695312 339.230469 264.429688 L 342.75 254.113281 C 343.226562 252.738281 344.738281 251.996094 346.113281 252.472656 C 347.488281 252.949219 348.230469 254.457031 347.753906 255.832031 L 345.453125 262.605469 C 360.910156 256.917969 373.402344 244.035156 377.847656 227.078125 C 378.167969 225.886719 379.25 225.066406 380.496094 225.09375 C 385.628906 225.199219 390.339844 221.921875 391.902344 217.050781 C 393.730469 211.417969 391.003906 205.332031 385.605469 202.898438 C 384.464844 202.371094 383.832031 201.128906 384.121094 199.910156 L 388.304688 181.5 C 394.628906 153.589844 377.082031 125.734375 349.15625 119.410156 C 328.089844 114.621094 307.046875 123.457031 295.269531 140.097656 C 295.746094 140.046875 296.195312 139.964844 296.699219 139.964844 C 303.445312 139.964844 308.953125 145.441406 308.953125 152.214844 C 308.953125 152.503906 308.871094 152.796875 308.871094 153.085938 C 309.003906 153.085938 309.109375 153.058594 309.242188 153.058594 C 309.878906 153.058594 310.515625 153.167969 311.121094 153.246094 C 312.339844 147.769531 317.210938 143.667969 323.058594 143.667969 C 329.808594 143.667969 335.3125 149.144531 335.3125 155.917969 C 335.3125 159.648438 333.621094 162.925781 331 165.175781 C 336.636719 166.789062 340.792969 171.949219 340.792969 178.113281 C 340.792969 185.570312 334.730469 191.628906 327.269531 191.628906 C 324.992188 191.628906 322.875 191.023438 321.023438 190.015625 C 320.890625 187.847656 320.546875 185.625 319.910156 183.402344 C 316.257812 170.597656 305.273438 162.53125 295.375 165.363281 C 285.476562 168.191406 280.417969 180.835938 284.070312 193.640625 C 286.003906 200.414062 290 205.835938 294.792969 209.035156 C 294.816406 209.40625 294.84375 209.777344 294.84375 210.148438 C 294.84375 217.609375 288.785156 223.664062 281.320312 223.664062 C 278.882812 223.664062 276.632812 222.976562 274.648438 221.839844 C 272.613281 226.734375 267.792969 230.199219 262.15625 230.199219 C 259.855469 230.199219 257.710938 229.566406 255.832031 228.558594 C 254.082031 234.007812 249.054688 237.976562 243.019531 237.976562 C 239.898438 237.976562 237.066406 236.867188 234.789062 235.09375 L 214.699219 272.84375 C 214.011719 274.140625 212.421875 274.617188 211.125 273.929688 C 209.828125 273.242188 209.351562 271.652344 210.042969 270.355469 L 231.136719 230.730469 C 230.128906 228.851562 229.523438 226.734375 229.523438 224.460938 C 229.523438 223.585938 229.628906 222.765625 229.785156 221.945312 C 225.628906 219.644531 222.773438 215.253906 222.773438 210.175781 C 222.773438 207.289062 223.699219 204.617188 225.234375 202.421875 C 219.886719 200.625 216.023438 195.625 216.023438 189.671875 C 216.023438 183.878906 219.703125 178.957031 224.835938 177.054688 C 224.414062 175.730469 224.121094 174.382812 224.121094 172.925781 C 224.121094 165.46875 230.183594 159.410156 237.648438 159.410156 C 238.28125 159.410156 238.863281 159.515625 239.472656 159.59375 C 241.910156 153.90625 247.546875 149.914062 254.136719 149.914062 C 256.703125 149.914062 259.140625 150.546875 261.28125 151.632812 C 264.195312 148.378906 268.429688 146.289062 273.167969 146.289062 C 277.347656 146.289062 281.132812 147.902344 283.964844 150.546875 C 293.679688 123.882812 322 107.929688 350.375 114.359375 C 381.128906 121.34375 400.480469 152.027344 393.519531 182.792969 L 389.785156 199.222656 C 396.242188 203.136719 399.3125 211.179688 396.90625 218.667969 Z M 366.945312 202.316406 C 371.285156 201.074219 373.796875 196.578125 372.554688 192.238281 C 371.3125 187.898438 366.8125 185.386719 362.46875 186.628906 C 358.128906 187.875 355.617188 192.371094 356.859375 196.710938 C 358.101562 201.019531 362.601562 203.535156 366.945312 202.316406 Z M 366.945312 202.316406 " fill-opacity="1" fill-rule="nonzero"/><path fill="#22a454" d="M 419.828125 179.964844 L 394.257812 176.074219 L 244.238281 153.191406 L 244.714844 150.097656 C 250.933594 109.4375 288.226562 81.078125 327.613281 87.085938 L 334.386719 88.117188 C 364.746094 92.746094 387.800781 116.5 393.96875 145.757812 L 424.113281 169.753906 C 428.613281 173.351562 425.492188 180.835938 419.828125 179.964844 Z M 419.828125 179.964844 " fill-opacity="1" fill-rule="nonzero"/><path fill="#000000" d="M 396.457031 146.710938 C 395.953125 148.085938 394.417969 148.773438 393.042969 148.246094 C 392.671875 148.113281 354.953125 134.542969 319.222656 166.3125 C 318.71875 166.761719 318.082031 166.976562 317.476562 166.976562 C 316.734375 166.976562 316.019531 166.683594 315.488281 166.074219 C 314.511719 164.992188 314.617188 163.324219 315.703125 162.347656 C 353.921875 128.378906 394.496094 143.140625 394.894531 143.273438 C 396.296875 143.828125 396.984375 145.363281 396.457031 146.710938 Z M 361.121094 229.539062 C 349.394531 227 349.023438 217.027344 349.023438 216.550781 C 349 215.09375 347.832031 213.851562 346.351562 213.929688 C 344.894531 213.929688 343.703125 215.148438 343.730469 216.601562 C 343.785156 221.65625 347.226562 231.945312 360.007812 234.695312 C 360.195312 234.75 360.378906 234.75 360.566406 234.75 C 361.78125 234.75 362.894531 233.902344 363.160156 232.660156 C 363.449219 231.257812 362.550781 229.855469 361.121094 229.539062 Z M 353.867188 178.007812 C 352.757812 178.933594 352.597656 180.597656 353.523438 181.738281 C 354.054688 182.371094 354.792969 182.6875 355.5625 182.6875 C 356.171875 182.6875 356.753906 182.476562 357.257812 182.082031 C 365.089844 175.574219 371.972656 180.519531 372.289062 180.757812 C 373.453125 181.628906 375.097656 181.417969 375.996094 180.253906 C 376.894531 179.089844 376.65625 177.425781 375.519531 176.550781 C 371.917969 173.800781 362.789062 170.574219 353.867188 178.007812 Z M 328.113281 265.808594 C 305.828125 265.808594 296.140625 249.089844 295.746094 248.398438 C 295.03125 247.128906 293.414062 246.679688 292.144531 247.394531 C 290.875 248.109375 290.398438 249.722656 291.113281 250.992188 C 291.5625 251.8125 302.625 271.125 328.113281 271.125 C 329.570312 271.125 330.761719 269.933594 330.761719 268.480469 C 330.761719 267.023438 329.570312 265.808594 328.113281 265.808594 Z M 328.113281 265.808594 " fill-opacity="1" fill-rule="nonzero"/><path fill="#22a454" d="M 459.609375 396.199219 C 438.855469 464.050781 405.375 492.039062 388.59375 502.277344 C 382.746094 505.851562 375.464844 505.902344 369.5625 502.410156 C 346.855469 488.972656 285.871094 450.5625 257.128906 409.53125 C 221.394531 358.527344 239.816406 309.90625 273.0625 294.035156 C 306.304688 278.160156 339.152344 294.722656 373.851562 327.816406 C 397.25 350.117188 430.097656 365.960938 449.046875 373.949219 C 457.753906 377.601562 462.386719 387.175781 459.609375 396.199219 Z M 624.742188 281.652344 L 550.183594 345.566406 C 532.605469 360.644531 505.875 358.605469 490.789062 341.015625 L 483.933594 333.027344 C 468.84375 315.460938 470.882812 288.742188 488.484375 273.664062 L 563.046875 209.75 C 580.621094 194.671875 607.351562 196.710938 622.441406 214.300781 L 629.292969 222.289062 C 644.382812 239.882812 642.34375 266.601562 624.742188 281.652344 Z M 624.742188 281.652344 " fill-opacity="1" fill-rule="nonzero"/><path fill="#000000" d="M 462.96875 389.398438 C 442.007812 469.394531 398.492188 499.367188 389.972656 504.554688 C 386.582031 506.617188 382.769531 507.648438 378.960938 507.648438 C 375.253906 507.648438 371.550781 506.667969 368.214844 504.710938 C 343.757812 490.242188 283.726562 452.148438 254.957031 411.066406 C 237.328125 385.882812 231.109375 358.6875 237.488281 334.480469 C 242.542969 315.300781 255.089844 299.695312 271.921875 291.652344 C 273.246094 291.015625 274.808594 291.574219 275.445312 292.894531 C 276.078125 294.21875 275.523438 295.804688 274.199219 296.414062 C 258.769531 303.769531 247.253906 318.132812 242.597656 335.804688 C 236.613281 358.476562 242.542969 384.136719 259.296875 407.996094 C 287.488281 448.234375 346.75 485.824219 370.914062 500.136719 C 375.96875 503.125 382.214844 503.070312 387.21875 500.03125 C 395.421875 495.03125 437.402344 466.089844 457.863281 388.050781 C 458.230469 386.648438 459.6875 385.800781 461.089844 386.171875 C 462.492188 386.515625 463.339844 387.972656 462.96875 389.398438 Z M 696.285156 165.070312 L 643.878906 210.015625 L 647.265625 213.957031 C 650.679688 217.953125 650.230469 223.957031 646.234375 227.394531 C 642.238281 230.808594 636.230469 230.359375 632.789062 226.363281 L 619 210.308594 C 615.585938 206.3125 616.035156 200.308594 620.03125 196.867188 C 624.027344 193.457031 630.035156 193.90625 633.476562 197.898438 L 636.863281 201.839844 L 689.273438 156.894531 C 691.546875 154.964844 694.9375 155.203125 696.894531 157.476562 C 698.800781 159.726562 698.535156 163.140625 696.285156 165.070312 Z M 696.285156 165.070312 " fill-opacity="1" fill-rule="nonzero"/><path fill="#ffffff" d="M 588.191406 250.621094 L 557.804688 276.679688 C 553.992188 279.933594 548.195312 279.511719 544.941406 275.699219 L 540.757812 270.859375 C 537.503906 267.050781 537.925781 261.257812 541.738281 258.003906 L 572.125 231.945312 C 575.933594 228.691406 581.730469 229.117188 584.988281 232.925781 L 589.144531 237.765625 C 592.453125 241.574219 592 247.34375 588.191406 250.621094 Z M 697.742188 400.296875 L 694.460938 396.488281 C 691.203125 392.679688 685.40625 392.230469 681.597656 395.511719 L 645.335938 426.59375 C 641.523438 429.847656 641.074219 435.640625 644.355469 439.449219 L 647.636719 443.261719 C 650.894531 447.070312 656.6875 447.519531 660.5 444.238281 L 696.761719 413.15625 C 700.546875 409.902344 700.996094 404.109375 697.742188 400.296875 Z M 697.742188 400.296875 " fill-opacity="1" fill-rule="nonzero"/></svg>