<svg xmlns="http://www.w3.org/2000/svg" xmlns:xlink="http://www.w3.org/1999/xlink" width="1080" zoomAndPan="magnify" viewBox="0 0 810 809.999993" height="1080" preserveAspectRatio="xMidYMid meet" version="1.0"><defs><clipPath id="a0fd574257"><path d="M 414 243 L 729 243 L 729 631 L 414 631 Z M 414 243 " clip-rule="nonzero"/></clipPath></defs><g clip-path="url(#a0fd574257)"><path fill="#009a57" d="M 728.316406 531.609375 L 619.488281 250.277344 C 617.433594 245.066406 611.59375 242.488281 606.382812 244.488281 L 421.199219 316.164062 C 415.988281 318.164062 413.410156 324.003906 415.410156 329.214844 C 417.460938 334.425781 423.304688 337.003906 428.511719 334.949219 L 604.28125 266.960938 L 705.84375 529.503906 L 496.503906 610.492188 C 491.292969 612.492188 488.714844 618.335938 490.714844 623.542969 C 492.242188 627.542969 496.082031 630.019531 500.136719 630.019531 C 501.34375 630.019531 502.609375 629.808594 503.765625 629.332031 L 722.527344 544.660156 C 725.054688 543.714844 727.054688 541.820312 728.15625 539.34375 C 729.210938 536.871094 729.316406 534.136719 728.316406 531.609375 " fill-opacity="1" fill-rule="nonzero"/></g><path fill="#009a57" d="M 646.433594 478.457031 C 651.640625 476.40625 654.21875 470.566406 652.21875 465.355469 L 607.753906 350.476562 C 606.804688 348 604.859375 345.949219 602.386719 344.898438 C 599.964844 343.792969 597.175781 343.738281 594.703125 344.6875 C 579.492188 350.527344 562.390625 343.003906 556.546875 327.847656 C 554.496094 322.636719 548.65625 320.109375 543.445312 322.058594 L 472.769531 349.421875 C 467.558594 351.421875 464.980469 357.265625 466.980469 362.472656 C 469.035156 367.683594 474.875 370.261719 480.085938 368.261719 L 542.289062 344.160156 C 552.96875 360.738281 572.757812 369.472656 592.175781 366.210938 L 630.066406 464.195312 C 622.015625 469.40625 615.59375 476.878906 611.59375 485.878906 C 607.648438 494.878906 606.4375 504.613281 608.015625 514.085938 L 496.503906 557.238281 C 491.292969 559.289062 488.714844 565.132812 490.714844 570.339844 C 492.242188 574.339844 496.082031 576.761719 500.136719 576.761719 C 501.34375 576.761719 502.609375 576.550781 503.765625 576.078125 L 623.804688 529.664062 C 626.277344 528.714844 628.277344 526.769531 629.382812 524.292969 C 630.488281 521.875 630.539062 519.085938 629.539062 516.613281 C 623.699219 501.402344 631.277344 484.351562 646.433594 478.457031 " fill-opacity="1" fill-rule="nonzero"/><path fill="#009a57" d="M 388.9375 301.480469 C 390.570312 302.429688 392.308594 302.851562 394.097656 302.851562 C 397.515625 302.851562 400.882812 301.113281 402.777344 297.902344 C 405.621094 293.113281 404.042969 286.90625 399.199219 284.0625 C 374.097656 269.273438 358.523438 242.015625 358.523438 212.914062 C 358.523438 167.394531 395.515625 130.398438 440.984375 130.398438 C 486.503906 130.398438 523.5 167.394531 523.5 212.914062 C 523.5 222.230469 521.972656 231.332031 518.976562 240.015625 C 517.132812 245.277344 519.921875 251.015625 525.183594 252.855469 C 530.5 254.699219 536.234375 251.910156 538.078125 246.59375 C 541.8125 235.804688 543.707031 224.492188 543.707031 212.914062 C 543.707031 156.289062 497.660156 110.191406 440.984375 110.191406 C 384.359375 110.191406 338.3125 156.289062 338.3125 212.914062 C 338.3125 249.121094 357.734375 283.0625 388.9375 301.480469 " fill-opacity="1" fill-rule="nonzero"/><path fill="#009a57" d="M 430.144531 185.179688 L 449.300781 185.179688 C 454.140625 185.179688 458.085938 189.128906 458.085938 194.023438 C 458.085938 199.601562 462.613281 204.125 468.191406 204.125 C 473.769531 204.125 478.296875 199.601562 478.296875 194.023438 C 478.296875 178.183594 465.558594 165.339844 449.824219 165.078125 L 449.824219 152.816406 C 449.824219 147.238281 445.300781 142.710938 439.722656 142.710938 C 434.144531 142.710938 429.617188 147.238281 429.617188 152.816406 L 429.617188 165.078125 C 413.882812 165.339844 401.148438 178.183594 401.148438 194.023438 C 401.148438 210.019531 414.144531 223.019531 430.144531 223.019531 L 449.300781 223.019531 C 454.140625 223.019531 458.085938 226.964844 458.085938 231.804688 C 458.085938 236.699219 454.140625 240.59375 449.300781 240.59375 L 430.144531 240.59375 C 425.300781 240.59375 421.355469 236.699219 421.355469 231.804688 C 421.355469 226.226562 416.828125 221.703125 411.25 221.703125 C 405.671875 221.703125 401.148438 226.226562 401.148438 231.804688 C 401.148438 247.644531 413.882812 260.488281 429.617188 260.75 L 429.617188 273.011719 C 429.617188 278.589844 434.144531 283.117188 439.722656 283.117188 C 445.300781 283.117188 449.824219 278.589844 449.824219 273.011719 L 449.824219 260.75 C 465.558594 260.488281 478.296875 247.644531 478.296875 231.804688 C 478.296875 215.808594 465.296875 202.808594 449.300781 202.808594 L 430.144531 202.808594 C 425.300781 202.808594 421.355469 198.863281 421.355469 194.023438 C 421.355469 189.128906 425.300781 185.179688 430.144531 185.179688 " fill-opacity="1" fill-rule="nonzero"/><path fill="#009a57" d="M 460.71875 453.144531 C 455.089844 453.144531 450.613281 457.671875 450.613281 463.25 L 450.613281 679.589844 L 139.496094 679.589844 L 139.496094 463.25 C 139.496094 457.671875 134.972656 453.144531 129.394531 453.144531 C 123.816406 453.144531 119.289062 457.671875 119.289062 463.25 L 119.289062 689.695312 C 119.289062 695.273438 123.816406 699.796875 129.394531 699.796875 L 460.71875 699.796875 C 466.246094 699.796875 470.824219 695.273438 470.824219 689.695312 L 470.824219 463.25 C 470.824219 457.671875 466.246094 453.144531 460.71875 453.144531 " fill-opacity="1" fill-rule="nonzero"/><path fill="#009a57" d="M 116.394531 414.992188 L 295.054688 323.953125 L 473.71875 414.992188 Z M 507.292969 423.042969 C 509.027344 415.886719 505.660156 408.574219 499.082031 405.257812 L 299.632812 303.640625 C 296.742188 302.164062 293.371094 302.164062 290.476562 303.640625 L 91.03125 405.203125 C 84.453125 408.574219 81.085938 415.886719 82.769531 423.042969 C 84.503906 430.203125 90.820312 435.199219 98.1875 435.199219 L 491.925781 435.199219 C 499.292969 435.199219 505.609375 430.203125 507.292969 423.042969 " fill-opacity="1" fill-rule="nonzero"/><path fill="#009a57" d="M 306.949219 374.472656 C 306.949219 381.050781 301.632812 386.363281 295.054688 386.363281 C 288.476562 386.363281 283.164062 381.050781 283.164062 374.472656 C 283.164062 367.945312 288.476562 362.578125 295.054688 362.578125 C 301.632812 362.578125 306.949219 367.945312 306.949219 374.472656 Z M 262.957031 374.472656 C 262.957031 392.152344 277.375 406.574219 295.054688 406.574219 C 312.738281 406.574219 327.15625 392.152344 327.15625 374.472656 C 327.15625 356.789062 312.738281 342.371094 295.054688 342.371094 C 277.375 342.371094 262.957031 356.789062 262.957031 374.472656 " fill-opacity="1" fill-rule="nonzero"/><path fill="#009a57" d="M 215.910156 490.613281 L 215.910156 627.28125 C 215.910156 636.597656 208.332031 644.171875 199.015625 644.171875 C 189.703125 644.171875 182.175781 636.597656 182.175781 627.28125 L 182.175781 490.613281 C 182.175781 481.300781 189.703125 473.722656 199.015625 473.722656 C 208.332031 473.722656 215.910156 481.300781 215.910156 490.613281 Z M 161.96875 490.613281 L 161.96875 627.28125 C 161.96875 647.753906 178.597656 664.382812 199.015625 664.382812 C 219.488281 664.382812 236.117188 647.753906 236.117188 627.28125 L 236.117188 490.613281 C 236.117188 470.195312 219.488281 453.515625 199.015625 453.515625 C 178.597656 453.515625 161.96875 470.195312 161.96875 490.613281 " fill-opacity="1" fill-rule="nonzero"/><path fill="#009a57" d="M 312.371094 490.613281 L 312.371094 627.28125 C 312.371094 636.597656 304.792969 644.171875 295.53125 644.171875 C 286.214844 644.171875 278.636719 636.597656 278.636719 627.28125 L 278.636719 490.613281 C 278.636719 481.300781 286.214844 473.722656 295.53125 473.722656 C 304.792969 473.722656 312.371094 481.300781 312.371094 490.613281 Z M 258.429688 490.613281 L 258.429688 627.28125 C 258.429688 647.753906 275.058594 664.382812 295.53125 664.382812 C 315.949219 664.382812 332.578125 647.753906 332.578125 627.28125 L 332.578125 490.613281 C 332.578125 470.195312 315.949219 453.515625 295.53125 453.515625 C 275.058594 453.515625 258.429688 470.195312 258.429688 490.613281 " fill-opacity="1" fill-rule="nonzero"/><path fill="#009a57" d="M 408.832031 490.613281 L 408.832031 627.28125 C 408.832031 636.597656 401.304688 644.171875 391.992188 644.171875 C 382.675781 644.171875 375.097656 636.597656 375.097656 627.28125 L 375.097656 490.613281 C 375.097656 481.300781 382.675781 473.722656 391.992188 473.722656 C 401.304688 473.722656 408.832031 481.300781 408.832031 490.613281 Z M 354.890625 490.613281 L 354.890625 627.28125 C 354.890625 647.753906 371.519531 664.382812 391.992188 664.382812 C 412.410156 664.382812 429.039062 647.753906 429.039062 627.28125 L 429.039062 490.613281 C 429.039062 470.195312 412.410156 453.515625 391.992188 453.515625 C 371.519531 453.515625 354.890625 470.195312 354.890625 490.613281 " fill-opacity="1" fill-rule="nonzero"/></svg>