<svg xmlns="http://www.w3.org/2000/svg" xmlns:xlink="http://www.w3.org/1999/xlink" width="1080" zoomAndPan="magnify" viewBox="0 0 810 809.999993" height="1080" preserveAspectRatio="xMidYMid meet" version="1.0"><path fill="#009a57" d="M 680.464844 405.789062 C 685.535156 405.789062 689.648438 401.675781 689.648438 396.605469 L 689.648438 366.464844 L 703.179688 366.464844 C 717.417969 366.464844 729 354.882812 729 340.644531 L 729 308.238281 C 729 294 717.417969 282.417969 703.179688 282.417969 L 658.984375 282.417969 L 414.183594 176.332031 L 414.183594 157.339844 L 496.808594 157.339844 C 501.878906 157.339844 505.992188 153.226562 505.992188 148.15625 L 505.992188 90.183594 C 505.992188 85.109375 501.878906 81 496.808594 81 L 405 81 C 402.5625 81 400.226562 81.96875 398.507812 83.6875 C 396.785156 85.410156 395.816406 87.746094 395.816406 90.183594 L 395.816406 176.332031 L 151.015625 282.417969 L 106.820312 282.417969 C 92.582031 282.417969 81 294 81 308.238281 L 81 340.644531 C 81 354.882812 92.582031 366.464844 106.820312 366.464844 L 120.351562 366.464844 L 120.351562 396.605469 C 120.351562 401.675781 124.464844 405.789062 129.535156 405.789062 L 141.808594 405.789062 L 141.808594 605.183594 L 129.535156 605.183594 C 124.464844 605.183594 120.351562 609.292969 120.351562 614.367188 L 120.351562 644.507812 L 109.378906 644.507812 C 93.730469 644.507812 81 657.238281 81 672.886719 L 81 700.621094 C 81 716.269531 93.730469 729 109.378906 729 L 700.621094 729 C 716.269531 729 729 716.269531 729 700.621094 L 729 672.886719 C 729 657.238281 716.269531 644.507812 700.621094 644.507812 L 689.648438 644.507812 L 689.648438 614.367188 C 689.648438 609.292969 685.535156 605.183594 680.464844 605.183594 L 668.191406 605.183594 L 668.191406 405.789062 Z M 671.285156 387.425781 L 597.121094 387.425781 L 597.121094 366.464844 L 671.285156 366.464844 Z M 587.941406 605.183594 C 582.871094 605.183594 578.757812 609.292969 578.757812 614.367188 L 578.757812 644.507812 L 536.84375 644.507812 L 536.84375 614.367188 C 536.84375 609.292969 532.734375 605.183594 527.664062 605.183594 L 515.390625 605.183594 L 515.390625 405.789062 L 527.664062 405.789062 C 532.734375 405.789062 536.84375 401.675781 536.84375 396.605469 L 536.84375 366.464844 L 578.757812 366.464844 L 578.757812 396.605469 C 578.757812 401.675781 582.871094 405.789062 587.941406 405.789062 L 600.214844 405.789062 L 600.214844 605.183594 Z M 222.058594 605.183594 L 209.785156 605.183594 L 209.785156 405.789062 L 222.058594 405.789062 C 227.128906 405.789062 231.242188 401.675781 231.242188 396.605469 L 231.242188 366.464844 L 273.15625 366.464844 L 273.15625 396.605469 C 273.15625 401.675781 277.265625 405.789062 282.335938 405.789062 L 294.609375 405.789062 L 294.609375 605.183594 L 282.335938 605.183594 C 277.265625 605.183594 273.15625 609.292969 273.15625 614.367188 L 273.15625 644.507812 L 231.242188 644.507812 L 231.242188 614.367188 C 231.242188 609.292969 227.128906 605.183594 222.058594 605.183594 Z M 312.976562 605.183594 L 312.976562 405.789062 L 344.222656 405.789062 L 344.222656 605.183594 Z M 291.519531 387.425781 L 291.519531 366.464844 L 365.679688 366.464844 L 365.679688 387.425781 Z M 291.519531 623.546875 L 365.679688 623.546875 L 365.679688 644.507812 L 291.519531 644.507812 Z M 374.863281 605.183594 L 362.585938 605.183594 L 362.585938 405.789062 L 374.863281 405.789062 C 379.933594 405.789062 384.042969 401.675781 384.042969 396.605469 L 384.042969 366.464844 L 425.953125 366.464844 L 425.953125 396.605469 C 425.953125 401.675781 430.066406 405.789062 435.136719 405.789062 L 447.410156 405.789062 L 447.410156 605.183594 L 435.136719 605.183594 C 430.066406 605.183594 425.953125 609.292969 425.953125 614.367188 L 425.953125 644.507812 L 384.042969 644.507812 L 384.042969 614.367188 C 384.042969 609.292969 379.933594 605.183594 374.863281 605.183594 Z M 465.777344 605.183594 L 465.777344 405.789062 L 497.023438 405.789062 L 497.023438 605.183594 Z M 444.320312 387.425781 L 444.320312 366.464844 L 518.480469 366.464844 L 518.480469 387.425781 Z M 444.320312 623.546875 L 518.480469 623.546875 L 518.480469 644.507812 L 444.320312 644.507812 Z M 414.179688 99.363281 L 487.625 99.363281 L 487.625 138.972656 L 414.179688 138.972656 Z M 405 192.367188 L 612.800781 282.417969 L 197.199219 282.417969 Z M 99.363281 340.644531 L 99.363281 308.238281 C 99.363281 304.125 102.707031 300.78125 106.820312 300.78125 L 703.183594 300.78125 C 707.292969 300.78125 710.636719 304.125 710.636719 308.238281 L 710.636719 340.644531 C 710.636719 344.753906 707.292969 348.097656 703.183594 348.097656 L 106.820312 348.097656 C 102.707031 348.097656 99.363281 344.753906 99.363281 340.644531 Z M 138.714844 366.464844 L 212.878906 366.464844 L 212.878906 387.425781 L 138.714844 387.425781 Z M 160.171875 405.789062 L 191.417969 405.789062 L 191.417969 605.183594 L 160.171875 605.183594 Z M 138.714844 623.546875 L 212.878906 623.546875 L 212.878906 644.507812 L 138.714844 644.507812 Z M 710.636719 672.886719 L 710.636719 700.621094 C 710.636719 706.144531 706.144531 710.636719 700.621094 710.636719 L 109.378906 710.636719 C 103.855469 710.636719 99.363281 706.144531 99.363281 700.621094 L 99.363281 672.886719 C 99.363281 667.367188 103.855469 662.875 109.378906 662.875 L 700.621094 662.875 C 706.144531 662.875 710.636719 667.363281 710.636719 672.886719 Z M 671.285156 644.507812 L 597.121094 644.507812 L 597.121094 623.546875 L 671.285156 623.546875 Z M 649.828125 605.183594 L 618.582031 605.183594 L 618.582031 405.789062 L 649.828125 405.789062 Z M 649.828125 605.183594 " fill-opacity="1" fill-rule="nonzero"/></svg>