<svg xmlns="http://www.w3.org/2000/svg" xmlns:xlink="http://www.w3.org/1999/xlink" width="1080" zoomAndPan="magnify" viewBox="0 0 810 1439.999935" height="1920" preserveAspectRatio="xMidYMid meet" version="1.0"><path fill="#333333" d="M 408.859375 804.230469 L 406.332031 807.925781 C 400.859375 815.925781 389.824219 817.960938 381.847656 812.488281 L 252.785156 723.882812 C 251.054688 722.6875 249.605469 721.214844 248.4375 719.578125 L 233.914062 718.433594 C 227.320312 717.917969 223.765625 710.457031 227.507812 705.007812 L 236.722656 691.585938 L 227.15625 685.039062 C 222.316406 681.71875 216.023438 681.953125 211.441406 685.625 L 140.351562 742.683594 C 137.078125 745.300781 133.125 746.632812 129.171875 746.632812 C 125.664062 746.632812 122.132812 745.582031 119.070312 743.476562 L 106.417969 734.800781 C 102.492188 732.113281 99.847656 728.042969 98.960938 723.34375 C 98.09375 718.667969 99.101562 713.894531 101.789062 709.96875 L 116.988281 687.820312 C 117.714844 686.769531 119.164062 686.488281 120.238281 687.214844 C 121.316406 687.9375 121.574219 689.386719 120.847656 690.464844 L 105.648438 712.632812 C 103.660156 715.53125 102.910156 719.039062 103.566406 722.5 C 104.199219 725.960938 106.164062 728.957031 109.0625 730.964844 L 121.714844 739.640625 C 126.53125 742.964844 132.84375 742.730469 137.429688 739.058594 L 208.519531 682 C 214.714844 677.039062 223.25 676.714844 229.800781 681.203125 L 239.363281 687.75 L 248.578125 674.328125 C 252.320312 668.878906 260.550781 669.511719 263.402344 675.496094 L 269.671875 688.640625 C 271.613281 689.132812 273.503906 689.949219 275.234375 691.140625 L 404.296875 779.746094 C 412.273438 785.21875 414.332031 796.234375 408.859375 804.230469 Z M 408.859375 804.230469 " fill-opacity="1" fill-rule="nonzero"/><path fill="#ffffff" d="M 372.566406 370.253906 C 372.566406 370.253906 415.148438 418.027344 476.535156 424.015625 L 444.894531 515.496094 C 444.894531 515.496094 356.007812 479.0625 321.867188 419.945312 Z M 372.566406 370.253906 " fill-opacity="1" fill-rule="nonzero"/><path fill="#333333" d="M 444.894531 517.835938 C 444.589844 517.835938 444.285156 517.789062 444.007812 517.671875 C 443.117188 517.296875 353.972656 480.253906 319.832031 421.113281 C 319.292969 420.179688 319.457031 419.035156 320.230469 418.285156 L 370.929688 368.59375 C 371.394531 368.148438 371.980469 367.914062 372.636719 367.914062 C 373.265625 367.9375 373.875 368.21875 374.296875 368.683594 C 374.714844 369.152344 417.019531 415.851562 476.769531 421.675781 C 477.46875 421.746094 478.125 422.144531 478.5 422.75 C 478.875 423.359375 478.96875 424.109375 478.734375 424.785156 L 447.09375 516.269531 C 446.882812 516.875 446.4375 517.367188 445.855469 517.625 C 445.550781 517.765625 445.222656 517.835938 444.894531 517.835938 Z M 324.8125 420.34375 C 355.703125 471.976562 429.601562 506.261719 443.515625 512.363281 L 473.378906 426.027344 C 420.082031 419.617188 380.914062 382.226562 372.496094 373.574219 Z M 324.8125 420.34375 " fill-opacity="1" fill-rule="nonzero"/><path fill="#009a57" d="M 392.722656 354.839844 L 184.527344 449.738281 C 178.960938 452.285156 172.390625 449.808594 169.839844 444.242188 L 147.132812 394.433594 C 144.585938 388.867188 147.0625 382.296875 152.628906 379.746094 L 360.824219 284.851562 C 366.390625 282.300781 372.960938 284.78125 375.511719 290.34375 L 398.21875 340.15625 C 400.742188 345.722656 398.289062 352.316406 392.722656 354.839844 Z M 677.578125 1244.667969 C 677.785156 1251.753906 672.082031 1257.597656 665.019531 1257.597656 L 355.355469 1257.597656 C 347.660156 1257.597656 342.375 1249.765625 345.34375 1242.679688 C 355.679688 1217.820312 384.890625 1204.539062 405.726562 1198.011719 C 421.113281 1193.195312 434.347656 1183.234375 443.09375 1169.695312 L 454.554688 1151.945312 L 562.03125 1151.945312 L 562.265625 1160.035156 L 567.480469 1151.945312 L 674.957031 1151.945312 Z M 229.050781 584.648438 L 136.796875 719.0625 C 133.242188 724.230469 126.179688 725.542969 121.035156 721.988281 L 87.59375 699.023438 C 82.425781 695.46875 81.117188 688.40625 84.671875 683.261719 L 176.925781 548.84375 C 180.480469 543.675781 187.542969 542.367188 192.6875 545.921875 L 226.128906 568.886719 C 231.273438 572.417969 232.582031 579.476562 229.050781 584.648438 Z M 486.894531 433.671875 L 447.65625 522.699219 C 445.621094 527.328125 440.453125 529.667969 435.585938 528.289062 C 393.679688 516.410156 350.09375 478.945312 335.664062 465.757812 C 332.578125 462.949219 331.523438 458.507812 333.089844 454.648438 C 347.003906 420.039062 376.28125 392.796875 388.863281 382.203125 C 392.207031 379.371094 397.003906 379.023438 400.695312 381.40625 C 425.601562 397.449219 463.671875 413.257812 481.421875 420.273438 C 486.707031 422.355469 489.1875 428.433594 486.894531 433.671875 Z M 486.894531 433.671875 " fill-opacity="1" fill-rule="nonzero"/><path fill="#ffffff" d="M 355.492188 809.726562 C 337.488281 818.007812 334.5625 803.882812 334.5625 803.882812 C 320.371094 811.949219 309.917969 794.503906 309.917969 794.503906 C 291.558594 801.003906 286.859375 784.191406 286.859375 784.191406 C 269.742188 777.339844 266.582031 760.222656 293.101562 721.683594 C 319.621094 683.144531 371.980469 698.789062 382.785156 723.226562 C 393.613281 747.664062 368.074219 777.621094 360.941406 786.578125 C 353.832031 795.507812 373.5 801.449219 355.492188 809.726562 Z M 355.492188 809.726562 " fill-opacity="1" fill-rule="nonzero"/><path fill="#333333" d="M 362.789062 788.003906 L 363.867188 786.648438 C 372.613281 775.773438 395.832031 746.867188 384.9375 722.246094 C 378.949219 708.75 361.480469 698.0625 342.421875 696.285156 C 321.703125 694.347656 303.019531 703.113281 291.183594 720.304688 C 274.933594 743.945312 268.710938 761.0625 272.21875 772.640625 C 273.996094 778.507812 278.300781 782.976562 285.011719 785.921875 C 285.898438 788.238281 288.449219 793.546875 293.992188 796.421875 C 298.269531 798.644531 303.273438 798.921875 308.957031 797.261719 C 313.285156 803.460938 322.496094 811.433594 333.277344 807.109375 C 334.238281 809.074219 335.992188 811.667969 339.148438 813.257812 C 341.019531 814.21875 343.125 814.683594 345.4375 814.683594 C 348.710938 814.683594 352.40625 813.75 356.5 811.855469 C 361.574219 809.515625 364.378906 807.085938 365.339844 804.207031 C 366.414062 800.933594 364.871094 798.082031 363.492188 795.554688 C 361.667969 792.28125 360.824219 790.457031 362.789062 788.003906 Z M 360.871094 802.734375 C 360.523438 803.789062 359.140625 805.472656 354.511719 807.601562 C 348.921875 810.171875 344.457031 810.6875 341.277344 809.097656 C 337.746094 807.34375 336.855469 803.4375 336.832031 803.390625 C 336.832031 803.367188 336.808594 803.320312 336.785156 803.296875 C 336.785156 803.25 336.785156 803.203125 336.761719 803.179688 C 336.574219 802.570312 332.320312 787.957031 345.789062 769.25 C 346.539062 768.195312 346.304688 766.746094 345.25 765.972656 C 344.199219 765.203125 342.75 765.460938 341.976562 766.511719 C 329.863281 783.324219 330.894531 797.449219 331.804688 802.546875 C 321.46875 806.96875 313.585938 795.929688 312.113281 793.664062 C 311.832031 791.089844 310.898438 775.632812 325.234375 756.738281 C 326.003906 755.707031 325.816406 754.234375 324.789062 753.464844 C 323.761719 752.691406 322.285156 752.878906 321.515625 753.90625 C 307.671875 772.171875 307.0625 787.417969 307.367188 792.796875 C 302.996094 794.011719 299.230469 793.847656 296.121094 792.257812 C 291.464844 789.875 289.546875 784.894531 289.152344 783.769531 C 289.128906 781.457031 289.476562 764.828125 301.753906 748.367188 C 302.527344 747.335938 302.316406 745.863281 301.289062 745.089844 C 300.257812 744.320312 298.785156 744.53125 298.011719 745.558594 C 287.375 759.800781 285.058594 773.949219 284.589844 780.496094 C 280.449219 778.203125 277.832031 775.1875 276.640625 771.28125 C 273.621094 761.296875 279.796875 745.042969 294.972656 722.96875 C 309.824219 701.382812 330.777344 699.910156 341.929688 700.964844 C 359.375 702.578125 375.277344 712.117188 380.609375 724.136719 C 390.359375 746.144531 368.425781 773.433594 360.171875 783.699219 L 359.070312 785.078125 C 355.097656 790.0625 357.527344 794.527344 359.304688 797.777344 C 360.566406 800.046875 361.292969 801.496094 360.871094 802.734375 Z M 567.363281 1257.527344 C 567.410156 1258.8125 566.378906 1259.890625 565.09375 1259.9375 C 565.070312 1259.9375 565.046875 1259.9375 565.023438 1259.9375 C 563.761719 1259.9375 562.730469 1258.929688 562.683594 1257.667969 L 559.691406 1151.992188 C 559.644531 1150.707031 560.675781 1149.628906 561.960938 1149.582031 C 563.222656 1149.628906 564.324219 1150.566406 564.367188 1151.851562 Z M 567.363281 1257.527344 " fill-opacity="1" fill-rule="nonzero"/><path fill="#ffffff" d="M 599.234375 382.738281 L 504.902344 382.738281 L 497.019531 353.507812 C 471.109375 348.339844 451.535156 325.726562 450.976562 298.4375 C 447.445312 297.222656 444.917969 293.921875 444.917969 289.996094 L 444.917969 288.683594 C 444.917969 284.757812 447.445312 281.460938 450.953125 280.242188 L 450.953125 248.019531 C 450.953125 216.332031 476.628906 190.65625 508.316406 190.65625 C 540 190.65625 565.679688 216.332031 565.679688 248.019531 L 565.679688 262.402344 C 569.023438 261.769531 572.4375 262.027344 575.617188 263.335938 C 586.210938 267.707031 590.351562 282.042969 584.855469 295.328125 C 581.882812 302.503906 576.714844 307.882812 570.941406 310.667969 Z M 599.234375 382.738281 " fill-opacity="1" fill-rule="nonzero"/><path fill="#333333" d="M 580.128906 327.691406 C 586.539062 326.523438 603.398438 321.449219 599.257812 300.867188 C 599.257812 300.867188 613.40625 289.550781 608.308594 277.460938 C 603.210938 265.394531 597.414062 269.300781 594.347656 250.800781 L 567.363281 239.367188 C 563.152344 210.53125 538.269531 188.316406 508.292969 188.316406 C 475.367188 188.316406 448.589844 215.09375 448.589844 248.019531 L 448.589844 278.722656 C 444.917969 280.664062 442.554688 284.476562 442.554688 288.683594 L 442.554688 289.996094 C 442.554688 294.25 444.964844 298.085938 448.683594 300.003906 C 449.898438 326.664062 469.144531 349.625 495.125 355.496094 L 502.632812 383.347656 C 502.914062 384.375 503.824219 385.078125 504.902344 385.078125 L 599.234375 385.078125 C 600.007812 385.078125 600.734375 384.703125 601.175781 384.050781 C 601.621094 383.417969 601.714844 382.597656 601.410156 381.875 Z M 506.703125 380.402344 L 499.289062 352.902344 C 499.054688 352.035156 498.351562 351.378906 497.488281 351.21875 C 472.417969 346.210938 453.851562 323.996094 453.335938 298.390625 C 453.3125 297.40625 452.683594 296.542969 451.746094 296.214844 C 449.058594 295.304688 447.257812 292.800781 447.257812 289.996094 L 447.257812 288.683594 C 447.257812 285.878906 449.058594 283.375 451.722656 282.464844 C 452.660156 282.136719 453.289062 281.25 453.289062 280.265625 L 453.289062 248.019531 C 453.289062 217.6875 477.960938 192.992188 508.316406 192.992188 C 534.949219 192.992188 557.214844 212.003906 562.265625 237.191406 L 516.617188 217.828125 L 516.617188 278.441406 C 516.617188 283.375 521.691406 286.746094 526.203125 284.734375 C 531.933594 282.207031 539.371094 279.84375 546.035156 280.6875 C 546.175781 280.265625 546.316406 279.867188 546.480469 279.449219 C 551.976562 266.164062 563.832031 262.632812 574.613281 266.515625 C 577.277344 267.476562 579.6875 269.160156 581.652344 271.332031 C 582.65625 272.875 583.453125 274.628906 584.011719 276.59375 C 585.601562 282.136719 585.136719 288.453125 582.703125 294.390625 C 580.082031 300.730469 575.429688 305.875 569.933594 308.515625 C 568.835938 309.054688 568.320312 310.339844 568.765625 311.484375 L 595.84375 380.378906 L 506.703125 380.378906 Z M 324.25 351.285156 L 226.734375 395.742188 C 220.773438 398.453125 213.734375 395.835938 210.996094 389.871094 C 208.285156 383.910156 210.902344 376.871094 216.867188 374.132812 L 314.382812 329.679688 C 320.347656 326.964844 327.386719 329.585938 330.121094 335.550781 C 332.855469 341.535156 330.238281 348.574219 324.25 351.285156 Z M 324.25 351.285156 " fill-opacity="1" fill-rule="nonzero"/><path fill="#009a57" d="M 595.496094 249.445312 C 595.566406 250.472656 594.699219 251.339844 593.671875 251.339844 L 440.289062 251.339844 C 437.203125 251.339844 434.722656 248.835938 434.722656 245.773438 L 434.722656 245.585938 C 434.722656 242.5 437.222656 240.019531 440.289062 240.019531 L 446.882812 240.019531 C 453.429688 206.042969 484.066406 180.15625 520.59375 180.15625 C 541.21875 180.15625 559.972656 188.410156 573.558594 201.714844 C 586.234375 214.085938 594.441406 230.878906 595.496094 249.445312 Z M 679.585938 1162.210938 C 680.171875 1167.894531 675.707031 1172.828125 670 1172.828125 L 430.347656 1172.828125 C 425.367188 1172.828125 421.207031 1169.015625 420.738281 1164.058594 L 383.742188 758.328125 C 383.484375 755.402344 381.894531 752.738281 379.417969 751.125 L 306.945312 703.816406 C 301.824219 700.472656 300.515625 693.527344 304.09375 688.546875 C 321.398438 664.4375 367.933594 593.835938 392.886719 499.335938 C 421.8125 389.707031 489.070312 372.308594 498.074219 370.4375 C 498.703125 370.324219 499.335938 370.253906 499.964844 370.253906 L 591.496094 370.253906 C 593.367188 370.253906 595.191406 370.789062 596.757812 371.796875 C 729.070312 458.226562 644.417969 687.75 634.921875 712.164062 C 634.382812 713.589844 634.171875 715.089844 634.335938 716.609375 Z M 679.585938 1162.210938 " fill-opacity="1" fill-rule="nonzero"/><path fill="#333333" d="M 535.792969 240.019531 C 535.792969 241.308594 534.742188 242.359375 533.453125 242.359375 L 448.097656 242.359375 C 446.8125 242.359375 445.761719 241.308594 445.761719 240.019531 C 445.761719 238.734375 446.8125 237.683594 448.097656 237.683594 L 533.453125 237.683594 C 534.742188 237.683594 535.792969 238.734375 535.792969 240.019531 Z M 466.152344 275.941406 C 467.25 279.777344 471.226562 281.996094 475.0625 280.898438 C 478.898438 279.800781 481.117188 275.824219 480.019531 271.988281 C 478.921875 268.152344 474.945312 265.929688 471.109375 267.03125 C 467.273438 268.128906 465.054688 272.128906 466.152344 275.941406 Z M 471.132812 261.277344 C 471.695312 260.902344 476.699219 257.769531 480.835938 263.148438 C 481.304688 263.757812 481.984375 264.0625 482.683594 264.0625 C 483.175781 264.0625 483.691406 263.898438 484.113281 263.570312 C 485.140625 262.773438 485.328125 261.324219 484.53125 260.296875 C 478.992188 253.070312 471.601562 255.246094 468.46875 257.417969 C 467.414062 258.144531 467.15625 259.59375 467.882812 260.648438 C 468.605469 261.699219 470.058594 261.980469 471.132812 261.277344 Z M 501.300781 305.804688 C 501.671875 304.5625 500.996094 303.277344 499.757812 302.902344 C 498.539062 302.527344 497.230469 303.207031 496.832031 304.421875 C 496.667969 304.914062 492.90625 316.164062 477.050781 312.609375 C 475.785156 312.328125 474.546875 313.121094 474.265625 314.386719 C 473.984375 315.648438 474.78125 316.886719 476.042969 317.167969 C 478.570312 317.730469 480.859375 317.988281 482.941406 317.988281 C 497.394531 317.988281 501.253906 305.945312 501.300781 305.804688 Z M 523.5625 350.140625 C 518.628906 351.566406 513.484375 352.292969 508.292969 352.292969 C 500.855469 352.292969 493.652344 350.84375 486.871094 347.964844 C 485.679688 347.476562 484.296875 348.011719 483.808594 349.207031 C 483.316406 350.398438 483.855469 351.777344 485.046875 352.269531 C 492.414062 355.378906 500.222656 356.96875 508.292969 356.96875 C 513.925781 356.96875 519.492188 356.199219 524.847656 354.632812 C 526.085938 354.28125 526.8125 352.972656 526.4375 351.730469 C 526.109375 350.515625 524.800781 349.789062 523.5625 350.140625 Z M 491.898438 304.820312 C 493.441406 303.019531 495.171875 299.863281 494.75 294.953125 C 494.425781 291.09375 491.011719 288.21875 487.152344 288.566406 C 483.597656 288.871094 480.90625 291.773438 480.746094 295.234375 C 480.488281 295.164062 480.113281 295.023438 479.667969 294.765625 C 470.992188 290.113281 462.738281 295.164062 459.605469 298.460938 C 456.9375 301.265625 457.007812 305.757812 459.816406 308.421875 C 461.171875 309.730469 462.925781 310.363281 464.65625 310.363281 C 466.480469 310.363281 468.304688 309.636719 469.683594 308.1875 C 469.871094 308 471.625 306.363281 473.027344 307.113281 C 476.113281 308.773438 479.199219 309.496094 482.171875 309.289062 C 487.363281 308.9375 490.332031 306.667969 491.898438 304.820312 Z M 491.898438 304.820312 " fill-opacity="1" fill-rule="nonzero"/><path fill="#ffffff" d="M 634.335938 716.609375 L 679.585938 1162.210938 C 680.171875 1167.894531 675.707031 1172.828125 670 1172.828125 L 430.347656 1172.828125 C 425.367188 1172.828125 421.207031 1169.015625 420.738281 1164.058594 L 383.742188 758.328125 C 383.484375 755.402344 381.894531 752.738281 379.417969 751.125 L 385.449219 754.421875 C 392.066406 758.023438 400.324219 755.730469 404.113281 749.230469 C 428.058594 708.351562 507.636719 569.046875 530.203125 486.195312 C 556.886719 388.28125 498.074219 370.4375 498.074219 370.4375 C 498.703125 370.324219 499.335938 370.253906 499.964844 370.253906 L 545.941406 370.253906 C 557.796875 384.796875 580.199219 423.40625 570.824219 500.53125 L 668.503906 500.53125 C 678.933594 594 641.09375 696.308594 634.945312 712.164062 C 634.382812 713.589844 634.171875 715.089844 634.335938 716.609375 Z M 634.335938 716.609375 " fill-opacity="1" fill-rule="nonzero"/><path fill="#333333" d="M 678.886719 1171.214844 C 676.617188 1173.738281 673.367188 1175.164062 670 1175.164062 L 430.347656 1175.164062 C 424.128906 1175.164062 418.984375 1170.488281 418.398438 1164.269531 L 379.765625 754 C 379.652344 752.714844 380.585938 751.570312 381.871094 751.453125 C 383.183594 751.289062 384.304688 752.269531 384.421875 753.558594 L 423.054688 1163.824219 C 423.402344 1167.613281 426.539062 1170.464844 430.324219 1170.464844 L 561.070312 1170.464844 L 532.777344 849.972656 C 532.707031 849.085938 533.125 848.21875 533.898438 847.773438 C 534.367188 847.496094 580.550781 818.894531 584.386719 771.328125 C 584.480469 770.042969 585.648438 769.109375 586.914062 769.179688 C 588.199219 769.269531 589.15625 770.417969 589.0625 771.703125 C 585.34375 817.773438 545.355469 845.925781 537.570312 850.980469 L 565.773438 1170.464844 L 669.976562 1170.464844 C 672.035156 1170.464844 674.023438 1169.578125 675.402344 1168.058594 C 676.804688 1166.511719 677.460938 1164.503906 677.25 1162.421875 L 632.210938 718.945312 L 432.265625 718.945312 C 430.980469 718.945312 429.929688 717.894531 429.929688 716.609375 C 429.929688 715.320312 430.980469 714.269531 432.265625 714.269531 L 632 714.269531 C 632.117188 713.289062 632.347656 712.304688 632.699219 711.347656 C 637.214844 699.769531 676.054688 596.457031 666.351562 502.867188 L 570.777344 502.867188 C 570.097656 502.867188 569.46875 502.589844 569.023438 502.074219 C 568.578125 501.582031 568.367188 500.90625 568.460938 500.25 C 577.699219 424.457031 555.554688 386.222656 544.796875 372.589844 L 507.566406 372.589844 C 523.351562 382.484375 552.863281 411.832031 532.449219 486.804688 C 532.097656 488.042969 530.8125 488.769531 529.570312 488.441406 C 528.332031 488.089844 527.585938 486.828125 527.933594 485.5625 C 553.660156 391.183594 499.6875 373.363281 497.371094 372.660156 C 496.34375 372.332031 495.664062 371.375 495.710938 370.300781 C 495.78125 369.222656 496.550781 368.335938 497.605469 368.125 C 498.421875 367.960938 499.171875 367.890625 499.917969 367.890625 L 545.894531 367.890625 C 546.597656 367.890625 547.25 368.21875 547.71875 368.753906 C 561.023438 385.101562 581.90625 423.5 573.417969 498.167969 L 668.480469 498.167969 C 669.671875 498.167969 670.675781 499.058594 670.792969 500.25 C 681.199219 593.507812 644.53125 693.832031 637.074219 712.984375 C 636.675781 714.058594 636.511719 715.207031 636.628906 716.328125 L 681.878906 1161.953125 C 682.253906 1165.320312 681.152344 1168.6875 678.886719 1171.214844 Z M 465.261719 832.128906 C 452.378906 832.128906 441.878906 821.628906 441.878906 808.746094 L 441.878906 760.96875 C 441.878906 748.085938 452.378906 737.585938 465.261719 737.585938 L 502.585938 737.585938 C 515.472656 737.585938 525.972656 748.085938 525.972656 760.96875 L 525.972656 808.746094 C 525.972656 821.628906 515.472656 832.128906 502.585938 832.128906 Z M 465.261719 827.453125 L 502.585938 827.453125 C 512.898438 827.453125 521.292969 819.058594 521.292969 808.746094 L 521.292969 760.96875 C 521.292969 750.65625 512.898438 742.261719 502.585938 742.261719 L 465.261719 742.261719 C 454.949219 742.261719 446.554688 750.65625 446.554688 760.96875 L 446.554688 808.746094 C 446.554688 819.082031 454.949219 827.453125 465.261719 827.453125 Z M 465.261719 827.453125 " fill-opacity="1" fill-rule="nonzero"/><path fill="#ffffff" d="M 273.597656 371.351562 L 258.445312 354.375 C 254.398438 349.835938 253.933594 342.84375 257.882812 338.238281 C 261.160156 334.449219 266.140625 333.351562 270.464844 334.707031 C 270.558594 334.730469 270.628906 334.660156 270.605469 334.589844 C 269.859375 330.613281 271.074219 326.335938 274.300781 323.457031 C 277.527344 320.582031 281.902344 319.835938 285.757812 321.050781 C 285.851562 321.074219 285.921875 321.003906 285.898438 320.933594 C 285.152344 316.957031 286.367188 312.679688 289.59375 309.800781 C 292.820312 306.925781 297.195312 306.175781 301.078125 307.394531 C 301.171875 307.417969 301.242188 307.347656 301.21875 307.277344 C 300.234375 302.0625 302.644531 296.355469 308.488281 293.921875 C 313.144531 291.984375 318.546875 293.550781 321.914062 297.3125 L 322.101562 297.523438 C 329.582031 305.898438 336.269531 314.898438 342.117188 324.441406 C 347.894531 333.839844 356.03125 346.515625 363.960938 356.710938 C 364.941406 357.976562 368.308594 359.097656 372.449219 360.054688 C 380.46875 361.902344 383.089844 372.03125 376.914062 377.476562 L 326.589844 422.097656 C 322.589844 425.628906 316.324219 424.15625 314.335938 419.195312 L 314.3125 419.128906 C 312.675781 415.082031 310.335938 411.363281 307.414062 408.136719 C 306.574219 407.199219 305.332031 406.734375 304.09375 406.757812 C 294.503906 406.96875 252.53125 405.191406 259.078125 357.695312 " fill-opacity="1" fill-rule="nonzero"/><path fill="#333333" d="M 304.140625 409.070312 C 304.75 409.023438 305.308594 409.28125 305.683594 409.679688 C 308.441406 412.71875 310.617188 416.179688 312.160156 420.039062 C 313.378906 423.054688 315.996094 425.324219 319.175781 426.074219 C 319.949219 426.257812 320.71875 426.328125 321.46875 426.328125 C 323.902344 426.328125 326.285156 425.441406 328.132812 423.804688 L 378.457031 379.183594 C 381.964844 376.074219 383.414062 371.328125 382.269531 366.792969 C 381.101562 362.253906 377.546875 358.769531 372.960938 357.71875 C 366.953125 356.339844 365.898438 355.332031 365.804688 355.238281 C 357.808594 344.972656 349.601562 332.132812 344.105469 323.179688 C 338.164062 313.496094 331.335938 304.328125 323.832031 295.910156 L 323.644531 295.699219 C 319.480469 291.046875 313.027344 289.457031 307.578125 291.726562 C 302.199219 293.96875 298.832031 298.976562 298.667969 304.492188 C 294.808594 304.144531 290.996094 305.382812 288.050781 308 C 285.105469 310.621094 283.46875 314.269531 283.351562 318.148438 C 279.492188 317.824219 275.679688 319.039062 272.734375 321.65625 C 269.789062 324.277344 268.128906 327.925781 268.035156 331.808594 C 263.542969 331.433594 259.101562 333.1875 256.105469 336.648438 C 251.453125 342.027344 251.710938 350.28125 256.691406 355.871094 L 257.113281 356.339844 C 256.925781 356.617188 256.785156 356.945312 256.738281 357.296875 C 254.5625 373.316406 257.464844 385.945312 265.414062 394.875 C 277.621094 408.558594 298.128906 409.210938 304.140625 409.070312 Z M 268.921875 391.765625 C 262.375 384.421875 259.730469 374.015625 261.066406 360.804688 L 271.867188 372.917969 C 272.734375 373.878906 274.207031 373.96875 275.167969 373.105469 C 276.125 372.238281 276.21875 370.765625 275.351562 369.808594 L 260.199219 352.832031 C 256.785156 348.996094 256.550781 343.40625 259.683594 339.78125 C 262.1875 336.882812 266.070312 335.78125 269.789062 336.953125 C 270.558594 337.210938 271.542969 337 272.148438 336.460938 C 272.757812 335.921875 273.085938 334.988281 272.921875 334.167969 C 272.289062 330.800781 273.390625 327.457031 275.890625 325.234375 C 278.394531 323.015625 281.832031 322.289062 285.128906 323.320312 C 285.898438 323.550781 286.882812 323.34375 287.488281 322.804688 C 288.097656 322.265625 288.402344 321.332031 288.238281 320.535156 C 287.605469 317.167969 288.707031 313.824219 291.207031 311.601562 C 293.710938 309.382812 297.148438 308.65625 300.445312 309.683594 C 301.21875 309.917969 302.175781 309.707031 302.785156 309.171875 C 303.390625 308.632812 303.71875 307.695312 303.554688 306.878906 C 302.832031 303.042969 304.351562 298.25 309.425781 296.121094 C 313.027344 294.625 317.375 295.722656 320.207031 298.90625 L 320.394531 299.113281 C 327.734375 307.300781 334.378906 316.257812 340.175781 325.703125 C 345.71875 334.777344 354.042969 347.753906 362.183594 358.207031 C 363.09375 359.378906 364.964844 360.78125 371.980469 362.394531 C 374.878906 363.050781 377.054688 365.175781 377.804688 368.078125 C 378.527344 370.953125 377.640625 373.832031 375.441406 375.816406 L 325.117188 420.4375 C 323.785156 421.605469 322.054688 422.050781 320.324219 421.652344 C 318.59375 421.253906 317.234375 420.0625 316.558594 418.355469 C 314.828125 414.050781 312.347656 410.101562 309.214844 406.664062 C 307.976562 405.28125 306.175781 404.511719 304.257812 404.511719 C 304.210938 404.511719 304.164062 404.511719 304.09375 404.511719 C 298.527344 404.535156 279.773438 403.949219 268.921875 391.765625 Z M 498.539062 372.730469 C 490.988281 374.296875 423.824219 391.207031 395.132812 499.945312 C 370.34375 593.835938 324.53125 664.085938 305.988281 689.925781 C 305.519531 690.558594 304.820312 690.90625 304.09375 690.90625 C 303.625 690.90625 303.132812 690.769531 302.738281 690.464844 C 301.683594 689.714844 301.449219 688.242188 302.199219 687.191406 C 320.601562 661.558594 366.039062 591.894531 390.640625 498.753906 C 420.035156 387.324219 489.769531 369.785156 497.605469 368.171875 C 498.867188 367.914062 500.105469 368.707031 500.363281 369.996094 C 500.621094 371.234375 499.804688 372.449219 498.539062 372.730469 Z M 498.539062 372.730469 " fill-opacity="1" fill-rule="nonzero"/></svg>